<ttFont>
<head>
    <!-- Most of this table will be recalculated by the compiler -->
    <tableVersion value="1.0"/>
    <fontRevision value="1.002"/>
    <checkSumAdjustment value="0xb6edf1a"/>
    <magicNumber value="0x5f0f3cf5"/>
    <flags value="00000000 00000011"/>
    <unitsPerEm value="1000"/>
    <created value="Sun Jan 10 02:32:51 2016"/>
    <modified value="Sun Jan 10 02:32:53 2016"/>
    <xMin value="-84"/>
    <yMin value="-277"/>
    <xMax value="985"/>
    <yMax value="1137"/>
    <macStyle value="00000000 00000000"/>
    <lowestRecPPEM value="6"/>
    <fontDirectionHint value="2"/>
    <indexToLocFormat value="0"/>
    <glyphDataFormat value="0"/>
  </head>
    <TTGlyph name=".notdef" xMin="0" yMin="-200" xMax="500" yMax="800">
      <contour>
        <pt x="0" y="-200" on="1"/>
        <pt x="0" y="800" on="1"/>
        <pt x="500" y="800" on="1"/>
        <pt x="500" y="-200" on="1"/>
      </contour>
      <contour>
        <pt x="71" y="750" on="1"/>
        <pt x="250" y="360" on="1"/>
        <pt x="429" y="750" on="1"/>
      </contour>
      <contour>
        <pt x="450" y="676" on="1"/>
        <pt x="278" y="300" on="1"/>
        <pt x="450" y="-76" on="1"/>
      </contour>
      <contour>
        <pt x="50" y="-76" on="1"/>
        <pt x="222" y="300" on="1"/>
        <pt x="50" y="676" on="1"/>
      </contour>
      <contour>
        <pt x="250" y="240" on="1"/>
        <pt x="71" y="-150" on="1"/>
        <pt x="429" y="-150" on="1"/>
      </contour>
    </TTGlyph>
    <TTGlyph name="A" xMin="54" yMin="-1" xMax="528" yMax="624">
      <contour>
        <pt x="502" y="-1" on="1"/>
        <pt x="483" y="55" on="0"/>
        <pt x="446" y="167" on="0"/>
        <pt x="427" y="222" on="1"/>
        <pt x="154" y="222" on="1"/>
        <pt x="135" y="167" on="0"/>
        <pt x="98" y="56" on="0"/>
        <pt x="79" y="0" on="1"/>
        <pt x="54" y="0" on="1"/>
        <pt x="105" y="154" on="0"/>
        <pt x="213" y="467" on="0"/>
        <pt x="270" y="624" on="1"/>
        <pt x="312" y="624" on="1"/>
        <pt x="369" y="467" on="0"/>
        <pt x="477" y="155" on="0"/>
        <pt x="528" y="1" on="1"/>
      </contour>
      <contour>
        <pt x="286" y="600" on="1"/>
        <pt x="254" y="511" on="0"/>
        <pt x="192" y="333" on="0"/>
        <pt x="161" y="244" on="1"/>
        <pt x="419" y="244" on="1"/>
        <pt x="388" y="333" on="0"/>
        <pt x="326" y="511" on="0"/>
        <pt x="294" y="600" on="1"/>
      </contour>
    </TTGlyph>
    <TTGlyph name="A.sc" xMin="53" yMin="-1" xMax="461" yMax="524">
      <contour>
        <pt x="435" y="-1" on="1"/>
        <pt x="420" y="45" on="0"/>
        <pt x="388" y="138" on="0"/>
        <pt x="372" y="184" on="1"/>
        <pt x="141" y="184" on="1"/>
        <pt x="125" y="138" on="0"/>
        <pt x="94" y="46" on="0"/>
        <pt x="78" y="0" on="1"/>
        <pt x="53" y="0" on="1"/>
        <pt x="96" y="130" on="0"/>
        <pt x="191" y="394" on="0"/>
        <pt x="240" y="524" on="1"/>
        <pt x="280" y="524" on="1"/>
        <pt x="327" y="393" on="0"/>
        <pt x="418" y="131" on="0"/>
        <pt x="461" y="1" on="1"/>
      </contour>
      <contour>
        <pt x="256" y="500" on="1"/>
        <pt x="229" y="427" on="0"/>
        <pt x="175" y="279" on="0"/>
        <pt x="149" y="206" on="1"/>
        <pt x="365" y="206" on="1"/>
        <pt x="340" y="279" on="0"/>
        <pt x="288" y="427" on="0"/>
        <pt x="262" y="500" on="1"/>
      </contour>
    </TTGlyph>
    <TTGlyph name="AE" xMin="22" yMin="0" xMax="770" yMax="620">
      <contour>
        <pt x="406" y="596" on="1"/>
        <pt x="351" y="509" on="0"/>
        <pt x="240" y="325" on="0"/>
        <pt x="186" y="234" on="1"/>
        <pt x="413" y="234" on="1"/>
        <pt x="413" y="596" on="1"/>
      </contour>
      <contour>
        <pt x="413" y="0" on="1"/>
        <pt x="413" y="212" on="1"/>
        <pt x="173" y="212" on="1"/>
        <pt x="142" y="158" on="0"/>
        <pt x="79" y="51" on="0"/>
        <pt x="50" y="0" on="1"/>
        <pt x="22" y="0" on="1"/>
        <pt x="110" y="154" on="0"/>
        <pt x="296" y="466" on="0"/>
        <pt x="394" y="620" on="1"/>
        <pt x="768" y="620" on="1"/>
        <pt x="768" y="596" on="1"/>
        <pt x="440" y="596" on="1"/>
        <pt x="440" y="327" on="1"/>
        <pt x="727" y="327" on="1"/>
        <pt x="727" y="305" on="1"/>
        <pt x="440" y="305" on="1"/>
        <pt x="440" y="24" on="1"/>
        <pt x="770" y="24" on="1"/>
        <pt x="767" y="0" on="1"/>
      </contour>
    </TTGlyph>
    <TTGlyph name="AE.sc" xMin="24" yMin="0" xMax="664" yMax="521">
      <contour>
        <pt x="350" y="497" on="1"/>
        <pt x="307" y="428" on="0"/>
        <pt x="216" y="279" on="0"/>
        <pt x="172" y="206" on="1"/>
        <pt x="356" y="206" on="1"/>
        <pt x="356" y="497" on="1"/>
      </contour>
      <contour>
        <pt x="356" y="0" on="1"/>
        <pt x="356" y="184" on="1"/>
        <pt x="159" y="184" on="1"/>
        <pt x="131" y="137" on="0"/>
        <pt x="77" y="44" on="0"/>
        <pt x="52" y="0" on="1"/>
        <pt x="24" y="0" on="1"/>
        <pt x="96" y="129" on="0"/>
        <pt x="256" y="392" on="0"/>
        <pt x="338" y="521" on="1"/>
        <pt x="662" y="521" on="1"/>
        <pt x="662" y="497" on="1"/>
        <pt x="383" y="497" on="1"/>
        <pt x="383" y="276" on="1"/>
        <pt x="627" y="276" on="1"/>
        <pt x="627" y="254" on="1"/>
        <pt x="383" y="254" on="1"/>
        <pt x="383" y="24" on="1"/>
        <pt x="664" y="24" on="1"/>
        <pt x="661" y="0" on="1"/>
      </contour>
    </TTGlyph>
    <TTGlyph name="AEacute" xMin="22" yMin="0" xMax="770" yMax="892">
      <contour>
        <pt x="426" y="712" on="1"/>
        <pt x="446" y="729" on="0"/>
        <pt x="491" y="775" on="0"/>
        <pt x="533" y="823" on="0"/>
        <pt x="571" y="872" on="0"/>
        <pt x="585" y="892" on="1"/>
        <pt x="615" y="868" on="1"/>
        <pt x="582" y="829" on="0"/>
        <pt x="480" y="734" on="0"/>
        <pt x="437" y="700" on="1"/>
      </contour>
      <contour>
        <pt x="406" y="596" on="1"/>
        <pt x="351" y="509" on="0"/>
        <pt x="240" y="325" on="0"/>
        <pt x="186" y="234" on="1"/>
        <pt x="413" y="234" on="1"/>
        <pt x="413" y="596" on="1"/>
      </contour>
      <contour>
        <pt x="413" y="0" on="1"/>
        <pt x="413" y="212" on="1"/>
        <pt x="173" y="212" on="1"/>
        <pt x="142" y="158" on="0"/>
        <pt x="79" y="51" on="0"/>
        <pt x="50" y="0" on="1"/>
        <pt x="22" y="0" on="1"/>
        <pt x="110" y="154" on="0"/>
        <pt x="296" y="466" on="0"/>
        <pt x="394" y="620" on="1"/>
        <pt x="768" y="620" on="1"/>
        <pt x="768" y="596" on="1"/>
        <pt x="440" y="596" on="1"/>
        <pt x="440" y="327" on="1"/>
        <pt x="727" y="327" on="1"/>
        <pt x="727" y="305" on="1"/>
        <pt x="440" y="305" on="1"/>
        <pt x="440" y="24" on="1"/>
        <pt x="770" y="24" on="1"/>
        <pt x="767" y="0" on="1"/>
      </contour>
    </TTGlyph>
    <TTGlyph name="AEacute.sc" xMin="24" yMin="0" xMax="664" yMax="793">
      <contour>
        <pt x="370" y="613" on="1"/>
        <pt x="390" y="630" on="0"/>
        <pt x="435" y="676" on="0"/>
        <pt x="477" y="724" on="0"/>
        <pt x="515" y="773" on="0"/>
        <pt x="529" y="793" on="1"/>
        <pt x="559" y="769" on="1"/>
        <pt x="526" y="730" on="0"/>
        <pt x="424" y="635" on="0"/>
        <pt x="381" y="601" on="1"/>
      </contour>
      <contour>
        <pt x="350" y="497" on="1"/>
        <pt x="307" y="428" on="0"/>
        <pt x="216" y="279" on="0"/>
        <pt x="172" y="206" on="1"/>
        <pt x="356" y="206" on="1"/>
        <pt x="356" y="497" on="1"/>
      </contour>
      <contour>
        <pt x="356" y="0" on="1"/>
        <pt x="356" y="184" on="1"/>
        <pt x="159" y="184" on="1"/>
        <pt x="131" y="137" on="0"/>
        <pt x="77" y="44" on="0"/>
        <pt x="52" y="0" on="1"/>
        <pt x="24" y="0" on="1"/>
        <pt x="96" y="129" on="0"/>
        <pt x="256" y="392" on="0"/>
        <pt x="338" y="521" on="1"/>
        <pt x="662" y="521" on="1"/>
        <pt x="662" y="497" on="1"/>
        <pt x="383" y="497" on="1"/>
        <pt x="383" y="276" on="1"/>
        <pt x="627" y="276" on="1"/>
        <pt x="627" y="254" on="1"/>
        <pt x="383" y="254" on="1"/>
        <pt x="383" y="24" on="1"/>
        <pt x="664" y="24" on="1"/>
        <pt x="661" y="0" on="1"/>
      </contour>
    </TTGlyph>
    <TTGlyph name="Aacute" xMin="54" yMin="-1" xMax="528" yMax="892">
      <contour>
        <pt x="217" y="712" on="1"/>
        <pt x="237" y="729" on="0"/>
        <pt x="282" y="775" on="0"/>
        <pt x="324" y="823" on="0"/>
        <pt x="362" y="872" on="0"/>
        <pt x="376" y="892" on="1"/>
        <pt x="406" y="868" on="1"/>
        <pt x="373" y="829" on="0"/>
        <pt x="271" y="734" on="0"/>
        <pt x="228" y="700" on="1"/>
      </contour>
      <contour>
        <pt x="502" y="-1" on="1"/>
        <pt x="483" y="55" on="0"/>
        <pt x="446" y="167" on="0"/>
        <pt x="427" y="222" on="1"/>
        <pt x="154" y="222" on="1"/>
        <pt x="135" y="167" on="0"/>
        <pt x="98" y="56" on="0"/>
        <pt x="79" y="0" on="1"/>
        <pt x="54" y="0" on="1"/>
        <pt x="105" y="154" on="0"/>
        <pt x="213" y="467" on="0"/>
        <pt x="270" y="624" on="1"/>
        <pt x="312" y="624" on="1"/>
        <pt x="369" y="467" on="0"/>
        <pt x="477" y="155" on="0"/>
        <pt x="528" y="1" on="1"/>
      </contour>
      <contour>
        <pt x="286" y="600" on="1"/>
        <pt x="254" y="511" on="0"/>
        <pt x="192" y="333" on="0"/>
        <pt x="161" y="244" on="1"/>
        <pt x="419" y="244" on="1"/>
        <pt x="388" y="333" on="0"/>
        <pt x="326" y="511" on="0"/>
        <pt x="294" y="600" on="1"/>
      </contour>
    </TTGlyph>
    <TTGlyph name="Aacute.sc" xMin="53" yMin="-1" xMax="461" yMax="793">
      <contour>
        <pt x="183" y="613" on="1"/>
        <pt x="203" y="630" on="0"/>
        <pt x="248" y="676" on="0"/>
        <pt x="290" y="724" on="0"/>
        <pt x="328" y="773" on="0"/>
        <pt x="342" y="793" on="1"/>
        <pt x="372" y="769" on="1"/>
        <pt x="339" y="730" on="0"/>
        <pt x="237" y="635" on="0"/>
        <pt x="194" y="601" on="1"/>
      </contour>
      <contour>
        <pt x="435" y="-1" on="1"/>
        <pt x="420" y="45" on="0"/>
        <pt x="388" y="138" on="0"/>
        <pt x="372" y="184" on="1"/>
        <pt x="141" y="184" on="1"/>
        <pt x="125" y="138" on="0"/>
        <pt x="94" y="46" on="0"/>
        <pt x="78" y="0" on="1"/>
        <pt x="53" y="0" on="1"/>
        <pt x="96" y="130" on="0"/>
        <pt x="191" y="394" on="0"/>
        <pt x="240" y="524" on="1"/>
        <pt x="280" y="524" on="1"/>
        <pt x="327" y="393" on="0"/>
        <pt x="418" y="131" on="0"/>
        <pt x="461" y="1" on="1"/>
      </contour>
      <contour>
        <pt x="256" y="500" on="1"/>
        <pt x="229" y="427" on="0"/>
        <pt x="175" y="279" on="0"/>
        <pt x="149" y="206" on="1"/>
        <pt x="365" y="206" on="1"/>
        <pt x="340" y="279" on="0"/>
        <pt x="288" y="427" on="0"/>
        <pt x="262" y="500" on="1"/>
      </contour>
    </TTGlyph>
    <TTGlyph name="Abreve" xMin="54" yMin="-1" xMax="528" yMax="864">
      <contour>
        <pt x="286" y="710" on="1"/>
        <pt x="243" y="710" on="0"/>
        <pt x="168" y="781" on="0"/>
        <pt x="129" y="852" on="1"/>
        <pt x="149" y="864" on="1"/>
        <pt x="188" y="793" on="0"/>
        <pt x="250" y="733" on="0"/>
        <pt x="287" y="733" on="1"/>
        <pt x="328" y="733" on="0"/>
        <pt x="395" y="799" on="0"/>
        <pt x="434" y="860" on="1"/>
        <pt x="453" y="851" on="1"/>
        <pt x="415" y="785" on="0"/>
        <pt x="332" y="710" on="0"/>
      </contour>
      <contour>
        <pt x="502" y="-1" on="1"/>
        <pt x="483" y="55" on="0"/>
        <pt x="446" y="167" on="0"/>
        <pt x="427" y="222" on="1"/>
        <pt x="154" y="222" on="1"/>
        <pt x="135" y="167" on="0"/>
        <pt x="98" y="56" on="0"/>
        <pt x="79" y="0" on="1"/>
        <pt x="54" y="0" on="1"/>
        <pt x="105" y="154" on="0"/>
        <pt x="213" y="467" on="0"/>
        <pt x="270" y="624" on="1"/>
        <pt x="312" y="624" on="1"/>
        <pt x="369" y="467" on="0"/>
        <pt x="477" y="155" on="0"/>
        <pt x="528" y="1" on="1"/>
      </contour>
      <contour>
        <pt x="286" y="600" on="1"/>
        <pt x="254" y="511" on="0"/>
        <pt x="192" y="333" on="0"/>
        <pt x="161" y="244" on="1"/>
        <pt x="419" y="244" on="1"/>
        <pt x="388" y="333" on="0"/>
        <pt x="326" y="511" on="0"/>
        <pt x="294" y="600" on="1"/>
      </contour>
    </TTGlyph>
    <TTGlyph name="Abreve.sc" xMin="53" yMin="-1" xMax="461" yMax="765">
      <contour>
        <pt x="252" y="611" on="1"/>
        <pt x="209" y="611" on="0"/>
        <pt x="134" y="682" on="0"/>
        <pt x="95" y="753" on="1"/>
        <pt x="115" y="765" on="1"/>
        <pt x="154" y="694" on="0"/>
        <pt x="216" y="634" on="0"/>
        <pt x="253" y="634" on="1"/>
        <pt x="294" y="634" on="0"/>
        <pt x="361" y="700" on="0"/>
        <pt x="400" y="761" on="1"/>
        <pt x="419" y="752" on="1"/>
        <pt x="381" y="686" on="0"/>
        <pt x="298" y="611" on="0"/>
      </contour>
      <contour>
        <pt x="435" y="-1" on="1"/>
        <pt x="420" y="45" on="0"/>
        <pt x="388" y="138" on="0"/>
        <pt x="372" y="184" on="1"/>
        <pt x="141" y="184" on="1"/>
        <pt x="125" y="138" on="0"/>
        <pt x="94" y="46" on="0"/>
        <pt x="78" y="0" on="1"/>
        <pt x="53" y="0" on="1"/>
        <pt x="96" y="130" on="0"/>
        <pt x="191" y="394" on="0"/>
        <pt x="240" y="524" on="1"/>
        <pt x="280" y="524" on="1"/>
        <pt x="327" y="393" on="0"/>
        <pt x="418" y="131" on="0"/>
        <pt x="461" y="1" on="1"/>
      </contour>
      <contour>
        <pt x="256" y="500" on="1"/>
        <pt x="229" y="427" on="0"/>
        <pt x="175" y="279" on="0"/>
        <pt x="149" y="206" on="1"/>
        <pt x="365" y="206" on="1"/>
        <pt x="340" y="279" on="0"/>
        <pt x="288" y="427" on="0"/>
        <pt x="262" y="500" on="1"/>
      </contour>
    </TTGlyph>
    <TTGlyph name="Acircumflex" xMin="54" yMin="-1" xMax="528" yMax="871">
      <contour>
        <pt x="425" y="705" on="1"/>
        <pt x="293" y="839" on="1"/>
        <pt x="156" y="705" on="1"/>
        <pt x="139" y="720" on="1"/>
        <pt x="293" y="871" on="1"/>
        <pt x="294" y="871" on="1"/>
        <pt x="443" y="721" on="1"/>
      </contour>
      <contour>
        <pt x="502" y="-1" on="1"/>
        <pt x="483" y="55" on="0"/>
        <pt x="446" y="167" on="0"/>
        <pt x="427" y="222" on="1"/>
        <pt x="154" y="222" on="1"/>
        <pt x="135" y="167" on="0"/>
        <pt x="98" y="56" on="0"/>
        <pt x="79" y="0" on="1"/>
        <pt x="54" y="0" on="1"/>
        <pt x="105" y="154" on="0"/>
        <pt x="213" y="467" on="0"/>
        <pt x="270" y="624" on="1"/>
        <pt x="312" y="624" on="1"/>
        <pt x="369" y="467" on="0"/>
        <pt x="477" y="155" on="0"/>
        <pt x="528" y="1" on="1"/>
      </contour>
      <contour>
        <pt x="286" y="600" on="1"/>
        <pt x="254" y="511" on="0"/>
        <pt x="192" y="333" on="0"/>
        <pt x="161" y="244" on="1"/>
        <pt x="419" y="244" on="1"/>
        <pt x="388" y="333" on="0"/>
        <pt x="326" y="511" on="0"/>
        <pt x="294" y="600" on="1"/>
      </contour>
    </TTGlyph>
    <TTGlyph name="Acircumflex.sc" xMin="53" yMin="-1" xMax="461" yMax="772">
      <contour>
        <pt x="391" y="606" on="1"/>
        <pt x="259" y="740" on="1"/>
        <pt x="122" y="606" on="1"/>
        <pt x="105" y="621" on="1"/>
        <pt x="259" y="772" on="1"/>
        <pt x="260" y="772" on="1"/>
        <pt x="409" y="622" on="1"/>
      </contour>
      <contour>
        <pt x="435" y="-1" on="1"/>
        <pt x="420" y="45" on="0"/>
        <pt x="388" y="138" on="0"/>
        <pt x="372" y="184" on="1"/>
        <pt x="141" y="184" on="1"/>
        <pt x="125" y="138" on="0"/>
        <pt x="94" y="46" on="0"/>
        <pt x="78" y="0" on="1"/>
        <pt x="53" y="0" on="1"/>
        <pt x="96" y="130" on="0"/>
        <pt x="191" y="394" on="0"/>
        <pt x="240" y="524" on="1"/>
        <pt x="280" y="524" on="1"/>
        <pt x="327" y="393" on="0"/>
        <pt x="418" y="131" on="0"/>
        <pt x="461" y="1" on="1"/>
      </contour>
      <contour>
        <pt x="256" y="500" on="1"/>
        <pt x="229" y="427" on="0"/>
        <pt x="175" y="279" on="0"/>
        <pt x="149" y="206" on="1"/>
        <pt x="365" y="206" on="1"/>
        <pt x="340" y="279" on="0"/>
        <pt x="288" y="427" on="0"/>
        <pt x="262" y="500" on="1"/>
      </contour>
    </TTGlyph>
    <TTGlyph name="Adieresis" xMin="54" yMin="-1" xMax="528" yMax="836">
      <contour>
        <pt x="406" y="707" on="1"/>
        <pt x="380" y="707" on="1"/>
        <pt x="379" y="836" on="1"/>
        <pt x="407" y="836" on="1"/>
      </contour>
      <contour>
        <pt x="205" y="707" on="1"/>
        <pt x="179" y="707" on="1"/>
        <pt x="178" y="836" on="1"/>
        <pt x="206" y="836" on="1"/>
      </contour>
      <contour>
        <pt x="502" y="-1" on="1"/>
        <pt x="483" y="55" on="0"/>
        <pt x="446" y="167" on="0"/>
        <pt x="427" y="222" on="1"/>
        <pt x="154" y="222" on="1"/>
        <pt x="135" y="167" on="0"/>
        <pt x="98" y="56" on="0"/>
        <pt x="79" y="0" on="1"/>
        <pt x="54" y="0" on="1"/>
        <pt x="105" y="154" on="0"/>
        <pt x="213" y="467" on="0"/>
        <pt x="270" y="624" on="1"/>
        <pt x="312" y="624" on="1"/>
        <pt x="369" y="467" on="0"/>
        <pt x="477" y="155" on="0"/>
        <pt x="528" y="1" on="1"/>
      </contour>
      <contour>
        <pt x="286" y="600" on="1"/>
        <pt x="254" y="511" on="0"/>
        <pt x="192" y="333" on="0"/>
        <pt x="161" y="244" on="1"/>
        <pt x="419" y="244" on="1"/>
        <pt x="388" y="333" on="0"/>
        <pt x="326" y="511" on="0"/>
        <pt x="294" y="600" on="1"/>
      </contour>
    </TTGlyph>
    <TTGlyph name="Adieresis.sc" xMin="53" yMin="-1" xMax="461" yMax="737">
      <contour>
        <pt x="372" y="608" on="1"/>
        <pt x="346" y="608" on="1"/>
        <pt x="345" y="737" on="1"/>
        <pt x="373" y="737" on="1"/>
      </contour>
      <contour>
        <pt x="171" y="608" on="1"/>
        <pt x="145" y="608" on="1"/>
        <pt x="144" y="737" on="1"/>
        <pt x="172" y="737" on="1"/>
      </contour>
      <contour>
        <pt x="435" y="-1" on="1"/>
        <pt x="420" y="45" on="0"/>
        <pt x="388" y="138" on="0"/>
        <pt x="372" y="184" on="1"/>
        <pt x="141" y="184" on="1"/>
        <pt x="125" y="138" on="0"/>
        <pt x="94" y="46" on="0"/>
        <pt x="78" y="0" on="1"/>
        <pt x="53" y="0" on="1"/>
        <pt x="96" y="130" on="0"/>
        <pt x="191" y="394" on="0"/>
        <pt x="240" y="524" on="1"/>
        <pt x="280" y="524" on="1"/>
        <pt x="327" y="393" on="0"/>
        <pt x="418" y="131" on="0"/>
        <pt x="461" y="1" on="1"/>
      </contour>
      <contour>
        <pt x="256" y="500" on="1"/>
        <pt x="229" y="427" on="0"/>
        <pt x="175" y="279" on="0"/>
        <pt x="149" y="206" on="1"/>
        <pt x="365" y="206" on="1"/>
        <pt x="340" y="279" on="0"/>
        <pt x="288" y="427" on="0"/>
        <pt x="262" y="500" on="1"/>
      </contour>
    </TTGlyph>
    <TTGlyph name="Agrave" xMin="54" yMin="-1" xMax="528" yMax="882">
      <contour>
        <pt x="365" y="702" on="1"/>
        <pt x="354" y="690" on="1"/>
        <pt x="311" y="724" on="0"/>
        <pt x="209" y="819" on="0"/>
        <pt x="176" y="858" on="1"/>
        <pt x="206" y="882" on="1"/>
        <pt x="220" y="862" on="0"/>
        <pt x="258" y="813" on="0"/>
        <pt x="300" y="765" on="0"/>
        <pt x="345" y="719" on="0"/>
      </contour>
      <contour>
        <pt x="502" y="-1" on="1"/>
        <pt x="483" y="55" on="0"/>
        <pt x="446" y="167" on="0"/>
        <pt x="427" y="222" on="1"/>
        <pt x="154" y="222" on="1"/>
        <pt x="135" y="167" on="0"/>
        <pt x="98" y="56" on="0"/>
        <pt x="79" y="0" on="1"/>
        <pt x="54" y="0" on="1"/>
        <pt x="105" y="154" on="0"/>
        <pt x="213" y="467" on="0"/>
        <pt x="270" y="624" on="1"/>
        <pt x="312" y="624" on="1"/>
        <pt x="369" y="467" on="0"/>
        <pt x="477" y="155" on="0"/>
        <pt x="528" y="1" on="1"/>
      </contour>
      <contour>
        <pt x="286" y="600" on="1"/>
        <pt x="254" y="511" on="0"/>
        <pt x="192" y="333" on="0"/>
        <pt x="161" y="244" on="1"/>
        <pt x="419" y="244" on="1"/>
        <pt x="388" y="333" on="0"/>
        <pt x="326" y="511" on="0"/>
        <pt x="294" y="600" on="1"/>
      </contour>
    </TTGlyph>
    <TTGlyph name="Agrave.sc" xMin="53" yMin="-1" xMax="461" yMax="783">
      <contour>
        <pt x="331" y="603" on="1"/>
        <pt x="320" y="591" on="1"/>
        <pt x="277" y="625" on="0"/>
        <pt x="175" y="720" on="0"/>
        <pt x="142" y="759" on="1"/>
        <pt x="172" y="783" on="1"/>
        <pt x="186" y="763" on="0"/>
        <pt x="224" y="714" on="0"/>
        <pt x="266" y="666" on="0"/>
        <pt x="311" y="620" on="0"/>
      </contour>
      <contour>
        <pt x="435" y="-1" on="1"/>
        <pt x="420" y="45" on="0"/>
        <pt x="388" y="138" on="0"/>
        <pt x="372" y="184" on="1"/>
        <pt x="141" y="184" on="1"/>
        <pt x="125" y="138" on="0"/>
        <pt x="94" y="46" on="0"/>
        <pt x="78" y="0" on="1"/>
        <pt x="53" y="0" on="1"/>
        <pt x="96" y="130" on="0"/>
        <pt x="191" y="394" on="0"/>
        <pt x="240" y="524" on="1"/>
        <pt x="280" y="524" on="1"/>
        <pt x="327" y="393" on="0"/>
        <pt x="418" y="131" on="0"/>
        <pt x="461" y="1" on="1"/>
      </contour>
      <contour>
        <pt x="256" y="500" on="1"/>
        <pt x="229" y="427" on="0"/>
        <pt x="175" y="279" on="0"/>
        <pt x="149" y="206" on="1"/>
        <pt x="365" y="206" on="1"/>
        <pt x="340" y="279" on="0"/>
        <pt x="288" y="427" on="0"/>
        <pt x="262" y="500" on="1"/>
      </contour>
    </TTGlyph>
    <TTGlyph name="Amacron" xMin="54" yMin="-1" xMax="528" yMax="787">
      <contour>
        <pt x="436" y="787" on="1"/>
        <pt x="436" y="765" on="1"/>
        <pt x="146" y="765" on="1"/>
        <pt x="146" y="787" on="1"/>
      </contour>
      <contour>
        <pt x="502" y="-1" on="1"/>
        <pt x="483" y="55" on="0"/>
        <pt x="446" y="167" on="0"/>
        <pt x="427" y="222" on="1"/>
        <pt x="154" y="222" on="1"/>
        <pt x="135" y="167" on="0"/>
        <pt x="98" y="56" on="0"/>
        <pt x="79" y="0" on="1"/>
        <pt x="54" y="0" on="1"/>
        <pt x="105" y="154" on="0"/>
        <pt x="213" y="467" on="0"/>
        <pt x="270" y="624" on="1"/>
        <pt x="312" y="624" on="1"/>
        <pt x="369" y="467" on="0"/>
        <pt x="477" y="155" on="0"/>
        <pt x="528" y="1" on="1"/>
      </contour>
      <contour>
        <pt x="286" y="600" on="1"/>
        <pt x="254" y="511" on="0"/>
        <pt x="192" y="333" on="0"/>
        <pt x="161" y="244" on="1"/>
        <pt x="419" y="244" on="1"/>
        <pt x="388" y="333" on="0"/>
        <pt x="326" y="511" on="0"/>
        <pt x="294" y="600" on="1"/>
      </contour>
    </TTGlyph>
    <TTGlyph name="Amacron.sc" xMin="53" yMin="-1" xMax="461" yMax="688">
      <contour>
        <pt x="402" y="688" on="1"/>
        <pt x="402" y="666" on="1"/>
        <pt x="112" y="666" on="1"/>
        <pt x="112" y="688" on="1"/>
      </contour>
      <contour>
        <pt x="435" y="-1" on="1"/>
        <pt x="420" y="45" on="0"/>
        <pt x="388" y="138" on="0"/>
        <pt x="372" y="184" on="1"/>
        <pt x="141" y="184" on="1"/>
        <pt x="125" y="138" on="0"/>
        <pt x="94" y="46" on="0"/>
        <pt x="78" y="0" on="1"/>
        <pt x="53" y="0" on="1"/>
        <pt x="96" y="130" on="0"/>
        <pt x="191" y="394" on="0"/>
        <pt x="240" y="524" on="1"/>
        <pt x="280" y="524" on="1"/>
        <pt x="327" y="393" on="0"/>
        <pt x="418" y="131" on="0"/>
        <pt x="461" y="1" on="1"/>
      </contour>
      <contour>
        <pt x="256" y="500" on="1"/>
        <pt x="229" y="427" on="0"/>
        <pt x="175" y="279" on="0"/>
        <pt x="149" y="206" on="1"/>
        <pt x="365" y="206" on="1"/>
        <pt x="340" y="279" on="0"/>
        <pt x="288" y="427" on="0"/>
        <pt x="262" y="500" on="1"/>
      </contour>
    </TTGlyph>
    <TTGlyph name="Aogonek" xMin="54" yMin="-199" xMax="528" yMax="624">
      <contour>
        <pt x="502" y="-199" on="1"/>
        <pt x="438" y="-186" on="0"/>
        <pt x="374" y="-147" on="0"/>
        <pt x="374" y="-116" on="1"/>
        <pt x="374" y="-91" on="0"/>
        <pt x="425" y="-34" on="0"/>
        <pt x="500" y="6" on="1"/>
        <pt x="482" y="60" on="0"/>
        <pt x="445" y="168" on="0"/>
        <pt x="427" y="222" on="1"/>
        <pt x="154" y="222" on="1"/>
        <pt x="135" y="167" on="0"/>
        <pt x="98" y="56" on="0"/>
        <pt x="79" y="0" on="1"/>
        <pt x="54" y="0" on="1"/>
        <pt x="105" y="154" on="0"/>
        <pt x="213" y="467" on="0"/>
        <pt x="270" y="624" on="1"/>
        <pt x="312" y="624" on="1"/>
        <pt x="369" y="467" on="0"/>
        <pt x="477" y="155" on="0"/>
        <pt x="528" y="1" on="1"/>
        <pt x="447" y="-41" on="0"/>
        <pt x="398" y="-95" on="0"/>
        <pt x="398" y="-112" on="1"/>
        <pt x="398" y="-134" on="0"/>
        <pt x="452" y="-165" on="0"/>
        <pt x="506" y="-175" on="1"/>
      </contour>
      <contour>
        <pt x="286" y="600" on="1"/>
        <pt x="254" y="511" on="0"/>
        <pt x="192" y="333" on="0"/>
        <pt x="161" y="244" on="1"/>
        <pt x="419" y="244" on="1"/>
        <pt x="388" y="333" on="0"/>
        <pt x="326" y="511" on="0"/>
        <pt x="294" y="600" on="1"/>
      </contour>
    </TTGlyph>
    <TTGlyph name="Aogonek.sc" xMin="53" yMin="-199" xMax="461" yMax="524">
      <contour>
        <pt x="435" y="-199" on="1"/>
        <pt x="371" y="-186" on="0"/>
        <pt x="307" y="-147" on="0"/>
        <pt x="307" y="-116" on="1"/>
        <pt x="307" y="-91" on="0"/>
        <pt x="358" y="-34" on="0"/>
        <pt x="433" y="6" on="1"/>
        <pt x="418" y="50" on="0"/>
        <pt x="388" y="139" on="0"/>
        <pt x="372" y="184" on="1"/>
        <pt x="141" y="184" on="1"/>
        <pt x="125" y="138" on="0"/>
        <pt x="94" y="46" on="0"/>
        <pt x="78" y="0" on="1"/>
        <pt x="53" y="0" on="1"/>
        <pt x="96" y="130" on="0"/>
        <pt x="191" y="394" on="0"/>
        <pt x="240" y="524" on="1"/>
        <pt x="280" y="524" on="1"/>
        <pt x="327" y="393" on="0"/>
        <pt x="418" y="131" on="0"/>
        <pt x="461" y="1" on="1"/>
        <pt x="380" y="-41" on="0"/>
        <pt x="331" y="-95" on="0"/>
        <pt x="331" y="-112" on="1"/>
        <pt x="331" y="-134" on="0"/>
        <pt x="385" y="-165" on="0"/>
        <pt x="439" y="-175" on="1"/>
      </contour>
      <contour>
        <pt x="256" y="500" on="1"/>
        <pt x="229" y="427" on="0"/>
        <pt x="175" y="279" on="0"/>
        <pt x="149" y="206" on="1"/>
        <pt x="365" y="206" on="1"/>
        <pt x="340" y="279" on="0"/>
        <pt x="288" y="427" on="0"/>
        <pt x="262" y="500" on="1"/>
      </contour>
    </TTGlyph>
    <TTGlyph name="Aring" xMin="54" yMin="-1" xMax="528" yMax="891">
      <contour>
        <pt x="290" y="891" on="1"/>
        <pt x="341" y="891" on="0"/>
        <pt x="410" y="831" on="0"/>
        <pt x="410" y="790" on="1"/>
        <pt x="410" y="745" on="0"/>
        <pt x="343" y="685" on="0"/>
        <pt x="290" y="685" on="1"/>
        <pt x="239" y="685" on="0"/>
        <pt x="171" y="744" on="0"/>
        <pt x="171" y="786" on="1"/>
        <pt x="171" y="831" on="0"/>
        <pt x="237" y="891" on="0"/>
      </contour>
      <contour>
        <pt x="290" y="871" on="1"/>
        <pt x="247" y="871" on="0"/>
        <pt x="193" y="823" on="0"/>
        <pt x="193" y="788" on="1"/>
        <pt x="193" y="753" on="0"/>
        <pt x="248" y="705" on="0"/>
        <pt x="290" y="705" on="1"/>
        <pt x="333" y="705" on="0"/>
        <pt x="388" y="754" on="0"/>
        <pt x="388" y="788" on="1"/>
        <pt x="388" y="823" on="0"/>
        <pt x="333" y="871" on="0"/>
      </contour>
      <contour>
        <pt x="502" y="-1" on="1"/>
        <pt x="483" y="55" on="0"/>
        <pt x="446" y="167" on="0"/>
        <pt x="427" y="222" on="1"/>
        <pt x="154" y="222" on="1"/>
        <pt x="135" y="167" on="0"/>
        <pt x="98" y="56" on="0"/>
        <pt x="79" y="0" on="1"/>
        <pt x="54" y="0" on="1"/>
        <pt x="105" y="154" on="0"/>
        <pt x="213" y="467" on="0"/>
        <pt x="270" y="624" on="1"/>
        <pt x="312" y="624" on="1"/>
        <pt x="369" y="467" on="0"/>
        <pt x="477" y="155" on="0"/>
        <pt x="528" y="1" on="1"/>
      </contour>
      <contour>
        <pt x="286" y="600" on="1"/>
        <pt x="254" y="511" on="0"/>
        <pt x="192" y="333" on="0"/>
        <pt x="161" y="244" on="1"/>
        <pt x="419" y="244" on="1"/>
        <pt x="388" y="333" on="0"/>
        <pt x="326" y="511" on="0"/>
        <pt x="294" y="600" on="1"/>
      </contour>
    </TTGlyph>
    <TTGlyph name="Aring.sc" xMin="53" yMin="-1" xMax="461" yMax="792">
      <contour>
        <pt x="256" y="792" on="1"/>
        <pt x="307" y="792" on="0"/>
        <pt x="376" y="732" on="0"/>
        <pt x="376" y="691" on="1"/>
        <pt x="376" y="646" on="0"/>
        <pt x="309" y="586" on="0"/>
        <pt x="256" y="586" on="1"/>
        <pt x="205" y="586" on="0"/>
        <pt x="137" y="645" on="0"/>
        <pt x="137" y="687" on="1"/>
        <pt x="137" y="732" on="0"/>
        <pt x="203" y="792" on="0"/>
      </contour>
      <contour>
        <pt x="256" y="772" on="1"/>
        <pt x="213" y="772" on="0"/>
        <pt x="159" y="724" on="0"/>
        <pt x="159" y="689" on="1"/>
        <pt x="159" y="654" on="0"/>
        <pt x="214" y="606" on="0"/>
        <pt x="256" y="606" on="1"/>
        <pt x="299" y="606" on="0"/>
        <pt x="354" y="655" on="0"/>
        <pt x="354" y="689" on="1"/>
        <pt x="354" y="724" on="0"/>
        <pt x="299" y="772" on="0"/>
      </contour>
      <contour>
        <pt x="435" y="-1" on="1"/>
        <pt x="420" y="45" on="0"/>
        <pt x="388" y="138" on="0"/>
        <pt x="372" y="184" on="1"/>
        <pt x="141" y="184" on="1"/>
        <pt x="125" y="138" on="0"/>
        <pt x="94" y="46" on="0"/>
        <pt x="78" y="0" on="1"/>
        <pt x="53" y="0" on="1"/>
        <pt x="96" y="130" on="0"/>
        <pt x="191" y="394" on="0"/>
        <pt x="240" y="524" on="1"/>
        <pt x="280" y="524" on="1"/>
        <pt x="327" y="393" on="0"/>
        <pt x="418" y="131" on="0"/>
        <pt x="461" y="1" on="1"/>
      </contour>
      <contour>
        <pt x="256" y="500" on="1"/>
        <pt x="229" y="427" on="0"/>
        <pt x="175" y="279" on="0"/>
        <pt x="149" y="206" on="1"/>
        <pt x="365" y="206" on="1"/>
        <pt x="340" y="279" on="0"/>
        <pt x="288" y="427" on="0"/>
        <pt x="262" y="500" on="1"/>
      </contour>
    </TTGlyph>
    <TTGlyph name="Aringacute" xMin="54" yMin="-1" xMax="528" yMax="1137">
      <contour>
        <pt x="217" y="957" on="1"/>
        <pt x="237" y="974" on="0"/>
        <pt x="282" y="1020" on="0"/>
        <pt x="324" y="1068" on="0"/>
        <pt x="362" y="1117" on="0"/>
        <pt x="376" y="1137" on="1"/>
        <pt x="406" y="1113" on="1"/>
        <pt x="373" y="1074" on="0"/>
        <pt x="271" y="979" on="0"/>
        <pt x="228" y="945" on="1"/>
      </contour>
      <contour>
        <pt x="290" y="891" on="1"/>
        <pt x="341" y="891" on="0"/>
        <pt x="410" y="831" on="0"/>
        <pt x="410" y="790" on="1"/>
        <pt x="410" y="745" on="0"/>
        <pt x="343" y="685" on="0"/>
        <pt x="290" y="685" on="1"/>
        <pt x="239" y="685" on="0"/>
        <pt x="171" y="744" on="0"/>
        <pt x="171" y="786" on="1"/>
        <pt x="171" y="831" on="0"/>
        <pt x="237" y="891" on="0"/>
      </contour>
      <contour>
        <pt x="290" y="871" on="1"/>
        <pt x="247" y="871" on="0"/>
        <pt x="193" y="823" on="0"/>
        <pt x="193" y="788" on="1"/>
        <pt x="193" y="753" on="0"/>
        <pt x="248" y="705" on="0"/>
        <pt x="290" y="705" on="1"/>
        <pt x="333" y="705" on="0"/>
        <pt x="388" y="754" on="0"/>
        <pt x="388" y="788" on="1"/>
        <pt x="388" y="823" on="0"/>
        <pt x="333" y="871" on="0"/>
      </contour>
      <contour>
        <pt x="502" y="-1" on="1"/>
        <pt x="483" y="55" on="0"/>
        <pt x="446" y="167" on="0"/>
        <pt x="427" y="222" on="1"/>
        <pt x="154" y="222" on="1"/>
        <pt x="135" y="167" on="0"/>
        <pt x="98" y="56" on="0"/>
        <pt x="79" y="0" on="1"/>
        <pt x="54" y="0" on="1"/>
        <pt x="105" y="154" on="0"/>
        <pt x="213" y="467" on="0"/>
        <pt x="270" y="624" on="1"/>
        <pt x="312" y="624" on="1"/>
        <pt x="369" y="467" on="0"/>
        <pt x="477" y="155" on="0"/>
        <pt x="528" y="1" on="1"/>
      </contour>
      <contour>
        <pt x="286" y="600" on="1"/>
        <pt x="254" y="511" on="0"/>
        <pt x="192" y="333" on="0"/>
        <pt x="161" y="244" on="1"/>
        <pt x="419" y="244" on="1"/>
        <pt x="388" y="333" on="0"/>
        <pt x="326" y="511" on="0"/>
        <pt x="294" y="600" on="1"/>
      </contour>
    </TTGlyph>
    <TTGlyph name="Aringacute.sc" xMin="53" yMin="-1" xMax="461" yMax="1038">
      <contour>
        <pt x="183" y="858" on="1"/>
        <pt x="203" y="875" on="0"/>
        <pt x="248" y="921" on="0"/>
        <pt x="290" y="969" on="0"/>
        <pt x="328" y="1018" on="0"/>
        <pt x="342" y="1038" on="1"/>
        <pt x="372" y="1014" on="1"/>
        <pt x="339" y="975" on="0"/>
        <pt x="237" y="880" on="0"/>
        <pt x="194" y="846" on="1"/>
      </contour>
      <contour>
        <pt x="256" y="792" on="1"/>
        <pt x="307" y="792" on="0"/>
        <pt x="376" y="732" on="0"/>
        <pt x="376" y="691" on="1"/>
        <pt x="376" y="646" on="0"/>
        <pt x="309" y="586" on="0"/>
        <pt x="256" y="586" on="1"/>
        <pt x="205" y="586" on="0"/>
        <pt x="137" y="645" on="0"/>
        <pt x="137" y="687" on="1"/>
        <pt x="137" y="732" on="0"/>
        <pt x="203" y="792" on="0"/>
      </contour>
      <contour>
        <pt x="256" y="772" on="1"/>
        <pt x="213" y="772" on="0"/>
        <pt x="159" y="724" on="0"/>
        <pt x="159" y="689" on="1"/>
        <pt x="159" y="654" on="0"/>
        <pt x="214" y="606" on="0"/>
        <pt x="256" y="606" on="1"/>
        <pt x="299" y="606" on="0"/>
        <pt x="354" y="655" on="0"/>
        <pt x="354" y="689" on="1"/>
        <pt x="354" y="724" on="0"/>
        <pt x="299" y="772" on="0"/>
      </contour>
      <contour>
        <pt x="435" y="-1" on="1"/>
        <pt x="420" y="45" on="0"/>
        <pt x="388" y="138" on="0"/>
        <pt x="372" y="184" on="1"/>
        <pt x="141" y="184" on="1"/>
        <pt x="125" y="138" on="0"/>
        <pt x="94" y="46" on="0"/>
        <pt x="78" y="0" on="1"/>
        <pt x="53" y="0" on="1"/>
        <pt x="96" y="130" on="0"/>
        <pt x="191" y="394" on="0"/>
        <pt x="240" y="524" on="1"/>
        <pt x="280" y="524" on="1"/>
        <pt x="327" y="393" on="0"/>
        <pt x="418" y="131" on="0"/>
        <pt x="461" y="1" on="1"/>
      </contour>
      <contour>
        <pt x="256" y="500" on="1"/>
        <pt x="229" y="427" on="0"/>
        <pt x="175" y="279" on="0"/>
        <pt x="149" y="206" on="1"/>
        <pt x="365" y="206" on="1"/>
        <pt x="340" y="279" on="0"/>
        <pt x="288" y="427" on="0"/>
        <pt x="262" y="500" on="1"/>
      </contour>
    </TTGlyph>
    <TTGlyph name="Atilde" xMin="54" yMin="-1" xMax="528" yMax="861">
      <contour>
        <pt x="369" y="709" on="1"/>
        <pt x="345" y="709" on="0"/>
        <pt x="308" y="749" on="0"/>
        <pt x="275" y="798" on="0"/>
        <pt x="243" y="838" on="0"/>
        <pt x="224" y="838" on="1"/>
        <pt x="199" y="838" on="0"/>
        <pt x="156" y="768" on="0"/>
        <pt x="137" y="718" on="1"/>
        <pt x="116" y="724" on="1"/>
        <pt x="140" y="791" on="0"/>
        <pt x="194" y="861" on="0"/>
        <pt x="225" y="861" on="1"/>
        <pt x="249" y="861" on="0"/>
        <pt x="286" y="821" on="0"/>
        <pt x="319" y="772" on="0"/>
        <pt x="351" y="732" on="0"/>
        <pt x="370" y="732" on="1"/>
        <pt x="395" y="732" on="0"/>
        <pt x="438" y="802" on="0"/>
        <pt x="457" y="852" on="1"/>
        <pt x="478" y="846" on="1"/>
        <pt x="454" y="779" on="0"/>
        <pt x="400" y="709" on="0"/>
      </contour>
      <contour>
        <pt x="502" y="-1" on="1"/>
        <pt x="483" y="55" on="0"/>
        <pt x="446" y="167" on="0"/>
        <pt x="427" y="222" on="1"/>
        <pt x="154" y="222" on="1"/>
        <pt x="135" y="167" on="0"/>
        <pt x="98" y="56" on="0"/>
        <pt x="79" y="0" on="1"/>
        <pt x="54" y="0" on="1"/>
        <pt x="105" y="154" on="0"/>
        <pt x="213" y="467" on="0"/>
        <pt x="270" y="624" on="1"/>
        <pt x="312" y="624" on="1"/>
        <pt x="369" y="467" on="0"/>
        <pt x="477" y="155" on="0"/>
        <pt x="528" y="1" on="1"/>
      </contour>
      <contour>
        <pt x="286" y="600" on="1"/>
        <pt x="254" y="511" on="0"/>
        <pt x="192" y="333" on="0"/>
        <pt x="161" y="244" on="1"/>
        <pt x="419" y="244" on="1"/>
        <pt x="388" y="333" on="0"/>
        <pt x="326" y="511" on="0"/>
        <pt x="294" y="600" on="1"/>
      </contour>
    </TTGlyph>
    <TTGlyph name="Atilde.sc" xMin="53" yMin="-1" xMax="461" yMax="762">
      <contour>
        <pt x="335" y="610" on="1"/>
        <pt x="311" y="610" on="0"/>
        <pt x="274" y="650" on="0"/>
        <pt x="241" y="699" on="0"/>
        <pt x="209" y="739" on="0"/>
        <pt x="190" y="739" on="1"/>
        <pt x="165" y="739" on="0"/>
        <pt x="122" y="669" on="0"/>
        <pt x="103" y="619" on="1"/>
        <pt x="82" y="625" on="1"/>
        <pt x="106" y="692" on="0"/>
        <pt x="160" y="762" on="0"/>
        <pt x="191" y="762" on="1"/>
        <pt x="215" y="762" on="0"/>
        <pt x="252" y="722" on="0"/>
        <pt x="285" y="673" on="0"/>
        <pt x="317" y="633" on="0"/>
        <pt x="336" y="633" on="1"/>
        <pt x="361" y="633" on="0"/>
        <pt x="404" y="703" on="0"/>
        <pt x="423" y="753" on="1"/>
        <pt x="444" y="747" on="1"/>
        <pt x="420" y="680" on="0"/>
        <pt x="366" y="610" on="0"/>
      </contour>
      <contour>
        <pt x="435" y="-1" on="1"/>
        <pt x="420" y="45" on="0"/>
        <pt x="388" y="138" on="0"/>
        <pt x="372" y="184" on="1"/>
        <pt x="141" y="184" on="1"/>
        <pt x="125" y="138" on="0"/>
        <pt x="94" y="46" on="0"/>
        <pt x="78" y="0" on="1"/>
        <pt x="53" y="0" on="1"/>
        <pt x="96" y="130" on="0"/>
        <pt x="191" y="394" on="0"/>
        <pt x="240" y="524" on="1"/>
        <pt x="280" y="524" on="1"/>
        <pt x="327" y="393" on="0"/>
        <pt x="418" y="131" on="0"/>
        <pt x="461" y="1" on="1"/>
      </contour>
      <contour>
        <pt x="256" y="500" on="1"/>
        <pt x="229" y="427" on="0"/>
        <pt x="175" y="279" on="0"/>
        <pt x="149" y="206" on="1"/>
        <pt x="365" y="206" on="1"/>
        <pt x="340" y="279" on="0"/>
        <pt x="288" y="427" on="0"/>
        <pt x="262" y="500" on="1"/>
      </contour>
    </TTGlyph>
    <TTGlyph name="B" xMin="113" yMin="-8" xMax="502" yMax="628">
      <contour>
        <pt x="234" y="-8" on="1"/>
        <pt x="206" y="-8" on="0"/>
        <pt x="145" y="-4" on="0"/>
        <pt x="113" y="0" on="1"/>
        <pt x="113" y="620" on="1"/>
        <pt x="147" y="624" on="0"/>
        <pt x="208" y="628" on="0"/>
        <pt x="236" y="628" on="1"/>
        <pt x="352" y="628" on="0"/>
        <pt x="480" y="555" on="0"/>
        <pt x="480" y="480" on="1"/>
        <pt x="480" y="442" on="0"/>
        <pt x="451" y="384" on="0"/>
        <pt x="402" y="344" on="0"/>
        <pt x="338" y="321" on="0"/>
        <pt x="303" y="317" on="1"/>
        <pt x="344" y="315" on="0"/>
        <pt x="417" y="295" on="0"/>
        <pt x="471" y="258" on="0"/>
        <pt x="502" y="202" on="0"/>
        <pt x="502" y="164" on="1"/>
        <pt x="502" y="119" on="0"/>
        <pt x="463" y="53" on="0"/>
        <pt x="392" y="12" on="0"/>
        <pt x="293" y="-8" on="0"/>
      </contour>
      <contour>
        <pt x="140" y="600" on="1"/>
        <pt x="140" y="326" on="1"/>
        <pt x="167" y="326" on="1"/>
        <pt x="318" y="326" on="0"/>
        <pt x="455" y="402" on="0"/>
        <pt x="455" y="476" on="1"/>
        <pt x="455" y="545" on="0"/>
        <pt x="336" y="606" on="0"/>
        <pt x="239" y="606" on="1"/>
        <pt x="216" y="606" on="0"/>
        <pt x="166" y="603" on="0"/>
      </contour>
      <contour>
        <pt x="248" y="15" on="1"/>
        <pt x="349" y="15" on="0"/>
        <pt x="477" y="82" on="0"/>
        <pt x="477" y="160" on="1"/>
        <pt x="477" y="243" on="0"/>
        <pt x="326" y="303" on="0"/>
        <pt x="173" y="303" on="1"/>
        <pt x="140" y="303" on="1"/>
        <pt x="140" y="22" on="1"/>
        <pt x="168" y="18" on="0"/>
        <pt x="223" y="15" on="0"/>
      </contour>
    </TTGlyph>
    <TTGlyph name="B.sc" xMin="104" yMin="-7" xMax="444" yMax="528">
      <contour>
        <pt x="208" y="-7" on="1"/>
        <pt x="184" y="-7" on="0"/>
        <pt x="132" y="-4" on="0"/>
        <pt x="104" y="0" on="1"/>
        <pt x="104" y="521" on="1"/>
        <pt x="133" y="525" on="0"/>
        <pt x="188" y="528" on="0"/>
        <pt x="212" y="528" on="1"/>
        <pt x="313" y="528" on="0"/>
        <pt x="424" y="467" on="0"/>
        <pt x="424" y="402" on="1"/>
        <pt x="424" y="370" on="0"/>
        <pt x="398" y="322" on="0"/>
        <pt x="354" y="289" on="0"/>
        <pt x="296" y="270" on="0"/>
        <pt x="264" y="267" on="1"/>
        <pt x="339" y="264" on="0"/>
        <pt x="444" y="205" on="0"/>
        <pt x="444" y="139" on="1"/>
        <pt x="444" y="63" on="0"/>
        <pt x="313" y="-7" on="0"/>
      </contour>
      <contour>
        <pt x="131" y="501" on="1"/>
        <pt x="131" y="276" on="1"/>
        <pt x="154" y="276" on="1"/>
        <pt x="283" y="276" on="0"/>
        <pt x="399" y="338" on="0"/>
        <pt x="399" y="398" on="1"/>
        <pt x="399" y="455" on="0"/>
        <pt x="297" y="506" on="0"/>
        <pt x="213" y="506" on="1"/>
        <pt x="194" y="506" on="0"/>
        <pt x="153" y="503" on="0"/>
      </contour>
      <contour>
        <pt x="225" y="16" on="1"/>
        <pt x="312" y="16" on="0"/>
        <pt x="419" y="72" on="0"/>
        <pt x="419" y="135" on="1"/>
        <pt x="419" y="204" on="0"/>
        <pt x="289" y="253" on="0"/>
        <pt x="157" y="253" on="1"/>
        <pt x="131" y="253" on="1"/>
        <pt x="131" y="22" on="1"/>
        <pt x="156" y="19" on="0"/>
        <pt x="203" y="16" on="0"/>
      </contour>
    </TTGlyph>
    <TTGlyph name="C" xMin="65" yMin="-7" xMax="472" yMax="628">
      <contour>
        <pt x="472" y="18" on="1"/>
        <pt x="470" y="-6" on="1"/>
        <pt x="457" y="-7" on="0"/>
        <pt x="431" y="-7" on="0"/>
        <pt x="419" y="-7" on="1"/>
        <pt x="318" y="-7" on="0"/>
        <pt x="181" y="39" on="0"/>
        <pt x="100" y="120" on="0"/>
        <pt x="65" y="231" on="0"/>
        <pt x="65" y="296" on="1"/>
        <pt x="65" y="360" on="0"/>
        <pt x="106" y="476" on="0"/>
        <pt x="199" y="566" on="0"/>
        <pt x="352" y="623" on="0"/>
        <pt x="464" y="628" on="1"/>
        <pt x="466" y="604" on="1"/>
        <pt x="359" y="598" on="0"/>
        <pt x="214" y="546" on="0"/>
        <pt x="128" y="465" on="0"/>
        <pt x="92" y="360" on="0"/>
        <pt x="92" y="301" on="1"/>
        <pt x="92" y="238" on="0"/>
        <pt x="124" y="133" on="0"/>
        <pt x="201" y="59" on="0"/>
        <pt x="331" y="17" on="0"/>
        <pt x="427" y="17" on="1"/>
        <pt x="437" y="17" on="0"/>
        <pt x="460" y="17" on="0"/>
      </contour>
    </TTGlyph>
    <TTGlyph name="C.sc" xMin="61" yMin="-6" xMax="412" yMax="528">
      <contour>
        <pt x="412" y="19" on="1"/>
        <pt x="410" y="-5" on="1"/>
        <pt x="399" y="-6" on="0"/>
        <pt x="377" y="-6" on="0"/>
        <pt x="367" y="-6" on="1"/>
        <pt x="279" y="-6" on="0"/>
        <pt x="161" y="33" on="0"/>
        <pt x="91" y="101" on="0"/>
        <pt x="61" y="194" on="0"/>
        <pt x="61" y="248" on="1"/>
        <pt x="61" y="302" on="0"/>
        <pt x="96" y="400" on="0"/>
        <pt x="176" y="475" on="0"/>
        <pt x="309" y="524" on="0"/>
        <pt x="405" y="528" on="1"/>
        <pt x="407" y="504" on="1"/>
        <pt x="315" y="499" on="0"/>
        <pt x="191" y="457" on="0"/>
        <pt x="118" y="390" on="0"/>
        <pt x="88" y="303" on="0"/>
        <pt x="88" y="253" on="1"/>
        <pt x="88" y="201" on="0"/>
        <pt x="116" y="114" on="0"/>
        <pt x="182" y="52" on="0"/>
        <pt x="293" y="18" on="0"/>
        <pt x="375" y="18" on="1"/>
        <pt x="384" y="18" on="0"/>
        <pt x="402" y="18" on="0"/>
      </contour>
    </TTGlyph>
    <TTGlyph name="Cacute" xMin="65" yMin="-7" xMax="472" yMax="892">
      <contour>
        <pt x="240" y="712" on="1"/>
        <pt x="260" y="729" on="0"/>
        <pt x="305" y="775" on="0"/>
        <pt x="347" y="823" on="0"/>
        <pt x="385" y="872" on="0"/>
        <pt x="399" y="892" on="1"/>
        <pt x="429" y="868" on="1"/>
        <pt x="396" y="829" on="0"/>
        <pt x="294" y="734" on="0"/>
        <pt x="251" y="700" on="1"/>
      </contour>
      <contour>
        <pt x="472" y="18" on="1"/>
        <pt x="470" y="-6" on="1"/>
        <pt x="457" y="-7" on="0"/>
        <pt x="431" y="-7" on="0"/>
        <pt x="419" y="-7" on="1"/>
        <pt x="318" y="-7" on="0"/>
        <pt x="181" y="39" on="0"/>
        <pt x="100" y="120" on="0"/>
        <pt x="65" y="231" on="0"/>
        <pt x="65" y="296" on="1"/>
        <pt x="65" y="360" on="0"/>
        <pt x="106" y="476" on="0"/>
        <pt x="199" y="566" on="0"/>
        <pt x="352" y="623" on="0"/>
        <pt x="464" y="628" on="1"/>
        <pt x="466" y="604" on="1"/>
        <pt x="359" y="598" on="0"/>
        <pt x="214" y="546" on="0"/>
        <pt x="128" y="465" on="0"/>
        <pt x="92" y="360" on="0"/>
        <pt x="92" y="301" on="1"/>
        <pt x="92" y="238" on="0"/>
        <pt x="124" y="133" on="0"/>
        <pt x="201" y="59" on="0"/>
        <pt x="331" y="17" on="0"/>
        <pt x="427" y="17" on="1"/>
        <pt x="437" y="17" on="0"/>
        <pt x="460" y="17" on="0"/>
      </contour>
    </TTGlyph>
    <TTGlyph name="Cacute.sc" xMin="61" yMin="-6" xMax="412" yMax="793">
      <contour>
        <pt x="202" y="613" on="1"/>
        <pt x="222" y="630" on="0"/>
        <pt x="267" y="676" on="0"/>
        <pt x="309" y="724" on="0"/>
        <pt x="347" y="773" on="0"/>
        <pt x="361" y="793" on="1"/>
        <pt x="391" y="769" on="1"/>
        <pt x="358" y="730" on="0"/>
        <pt x="256" y="635" on="0"/>
        <pt x="213" y="601" on="1"/>
      </contour>
      <contour>
        <pt x="412" y="19" on="1"/>
        <pt x="410" y="-5" on="1"/>
        <pt x="399" y="-6" on="0"/>
        <pt x="377" y="-6" on="0"/>
        <pt x="367" y="-6" on="1"/>
        <pt x="279" y="-6" on="0"/>
        <pt x="161" y="33" on="0"/>
        <pt x="91" y="101" on="0"/>
        <pt x="61" y="194" on="0"/>
        <pt x="61" y="248" on="1"/>
        <pt x="61" y="302" on="0"/>
        <pt x="96" y="400" on="0"/>
        <pt x="176" y="475" on="0"/>
        <pt x="309" y="524" on="0"/>
        <pt x="405" y="528" on="1"/>
        <pt x="407" y="504" on="1"/>
        <pt x="315" y="499" on="0"/>
        <pt x="191" y="457" on="0"/>
        <pt x="118" y="390" on="0"/>
        <pt x="88" y="303" on="0"/>
        <pt x="88" y="253" on="1"/>
        <pt x="88" y="201" on="0"/>
        <pt x="116" y="114" on="0"/>
        <pt x="182" y="52" on="0"/>
        <pt x="293" y="18" on="0"/>
        <pt x="375" y="18" on="1"/>
        <pt x="384" y="18" on="0"/>
        <pt x="402" y="18" on="0"/>
      </contour>
    </TTGlyph>
    <TTGlyph name="Ccaron" xMin="65" yMin="-7" xMax="472" yMax="866">
      <contour>
        <pt x="318" y="700" on="1"/>
        <pt x="317" y="700" on="1"/>
        <pt x="168" y="850" on="1"/>
        <pt x="186" y="866" on="1"/>
        <pt x="318" y="732" on="1"/>
        <pt x="455" y="866" on="1"/>
        <pt x="472" y="851" on="1"/>
      </contour>
      <contour>
        <pt x="472" y="18" on="1"/>
        <pt x="470" y="-6" on="1"/>
        <pt x="457" y="-7" on="0"/>
        <pt x="431" y="-7" on="0"/>
        <pt x="419" y="-7" on="1"/>
        <pt x="318" y="-7" on="0"/>
        <pt x="181" y="39" on="0"/>
        <pt x="100" y="120" on="0"/>
        <pt x="65" y="231" on="0"/>
        <pt x="65" y="296" on="1"/>
        <pt x="65" y="360" on="0"/>
        <pt x="106" y="476" on="0"/>
        <pt x="199" y="566" on="0"/>
        <pt x="352" y="623" on="0"/>
        <pt x="464" y="628" on="1"/>
        <pt x="466" y="604" on="1"/>
        <pt x="359" y="598" on="0"/>
        <pt x="214" y="546" on="0"/>
        <pt x="128" y="465" on="0"/>
        <pt x="92" y="360" on="0"/>
        <pt x="92" y="301" on="1"/>
        <pt x="92" y="238" on="0"/>
        <pt x="124" y="133" on="0"/>
        <pt x="201" y="59" on="0"/>
        <pt x="331" y="17" on="0"/>
        <pt x="427" y="17" on="1"/>
        <pt x="437" y="17" on="0"/>
        <pt x="460" y="17" on="0"/>
      </contour>
    </TTGlyph>
    <TTGlyph name="Ccaron.sc" xMin="61" yMin="-6" xMax="434" yMax="767">
      <contour>
        <pt x="280" y="601" on="1"/>
        <pt x="279" y="601" on="1"/>
        <pt x="130" y="751" on="1"/>
        <pt x="148" y="767" on="1"/>
        <pt x="280" y="633" on="1"/>
        <pt x="417" y="767" on="1"/>
        <pt x="434" y="752" on="1"/>
      </contour>
      <contour>
        <pt x="412" y="19" on="1"/>
        <pt x="410" y="-5" on="1"/>
        <pt x="399" y="-6" on="0"/>
        <pt x="377" y="-6" on="0"/>
        <pt x="367" y="-6" on="1"/>
        <pt x="279" y="-6" on="0"/>
        <pt x="161" y="33" on="0"/>
        <pt x="91" y="101" on="0"/>
        <pt x="61" y="194" on="0"/>
        <pt x="61" y="248" on="1"/>
        <pt x="61" y="302" on="0"/>
        <pt x="96" y="400" on="0"/>
        <pt x="176" y="475" on="0"/>
        <pt x="309" y="524" on="0"/>
        <pt x="405" y="528" on="1"/>
        <pt x="407" y="504" on="1"/>
        <pt x="315" y="499" on="0"/>
        <pt x="191" y="457" on="0"/>
        <pt x="118" y="390" on="0"/>
        <pt x="88" y="303" on="0"/>
        <pt x="88" y="253" on="1"/>
        <pt x="88" y="201" on="0"/>
        <pt x="116" y="114" on="0"/>
        <pt x="182" y="52" on="0"/>
        <pt x="293" y="18" on="0"/>
        <pt x="375" y="18" on="1"/>
        <pt x="384" y="18" on="0"/>
        <pt x="402" y="18" on="0"/>
      </contour>
    </TTGlyph>
    <TTGlyph name="Ccedilla" xMin="65" yMin="-197" xMax="472" yMax="628">
      <contour>
        <pt x="472" y="18" on="1"/>
        <pt x="470" y="-6" on="1"/>
        <pt x="457" y="-7" on="0"/>
        <pt x="431" y="-7" on="0"/>
        <pt x="419" y="-7" on="1"/>
        <pt x="318" y="-7" on="0"/>
        <pt x="181" y="39" on="0"/>
        <pt x="100" y="120" on="0"/>
        <pt x="65" y="231" on="0"/>
        <pt x="65" y="296" on="1"/>
        <pt x="65" y="360" on="0"/>
        <pt x="106" y="476" on="0"/>
        <pt x="199" y="566" on="0"/>
        <pt x="352" y="623" on="0"/>
        <pt x="464" y="628" on="1"/>
        <pt x="466" y="604" on="1"/>
        <pt x="359" y="598" on="0"/>
        <pt x="214" y="546" on="0"/>
        <pt x="128" y="465" on="0"/>
        <pt x="92" y="360" on="0"/>
        <pt x="92" y="301" on="1"/>
        <pt x="92" y="238" on="0"/>
        <pt x="124" y="133" on="0"/>
        <pt x="201" y="59" on="0"/>
        <pt x="331" y="17" on="0"/>
        <pt x="427" y="17" on="1"/>
        <pt x="437" y="17" on="0"/>
        <pt x="460" y="17" on="0"/>
      </contour>
      <contour>
        <pt x="221" y="-47" on="1"/>
        <pt x="227" y="-29" on="1"/>
        <pt x="294" y="-49" on="0"/>
        <pt x="364" y="-98" on="0"/>
        <pt x="364" y="-126" on="1"/>
        <pt x="364" y="-157" on="0"/>
        <pt x="284" y="-197" on="0"/>
        <pt x="192" y="-197" on="1"/>
        <pt x="190" y="-173" on="1"/>
        <pt x="197" y="-173" on="1"/>
        <pt x="273" y="-173" on="0"/>
        <pt x="340" y="-144" on="0"/>
        <pt x="340" y="-123" on="1"/>
        <pt x="340" y="-103" on="0"/>
        <pt x="277" y="-65" on="0"/>
      </contour>
    </TTGlyph>
    <TTGlyph name="Ccedilla.sc" xMin="61" yMin="-196" xMax="412" yMax="528">
      <contour>
        <pt x="412" y="19" on="1"/>
        <pt x="410" y="-5" on="1"/>
        <pt x="399" y="-6" on="0"/>
        <pt x="377" y="-6" on="0"/>
        <pt x="367" y="-6" on="1"/>
        <pt x="279" y="-6" on="0"/>
        <pt x="161" y="33" on="0"/>
        <pt x="91" y="101" on="0"/>
        <pt x="61" y="194" on="0"/>
        <pt x="61" y="248" on="1"/>
        <pt x="61" y="302" on="0"/>
        <pt x="96" y="400" on="0"/>
        <pt x="176" y="475" on="0"/>
        <pt x="309" y="524" on="0"/>
        <pt x="405" y="528" on="1"/>
        <pt x="407" y="504" on="1"/>
        <pt x="315" y="499" on="0"/>
        <pt x="191" y="457" on="0"/>
        <pt x="118" y="390" on="0"/>
        <pt x="88" y="303" on="0"/>
        <pt x="88" y="253" on="1"/>
        <pt x="88" y="201" on="0"/>
        <pt x="116" y="114" on="0"/>
        <pt x="182" y="52" on="0"/>
        <pt x="293" y="18" on="0"/>
        <pt x="375" y="18" on="1"/>
        <pt x="384" y="18" on="0"/>
        <pt x="402" y="18" on="0"/>
      </contour>
      <contour>
        <pt x="183" y="-46" on="1"/>
        <pt x="189" y="-28" on="1"/>
        <pt x="256" y="-48" on="0"/>
        <pt x="326" y="-97" on="0"/>
        <pt x="326" y="-125" on="1"/>
        <pt x="326" y="-156" on="0"/>
        <pt x="246" y="-196" on="0"/>
        <pt x="154" y="-196" on="1"/>
        <pt x="152" y="-172" on="1"/>
        <pt x="159" y="-172" on="1"/>
        <pt x="235" y="-172" on="0"/>
        <pt x="302" y="-143" on="0"/>
        <pt x="302" y="-122" on="1"/>
        <pt x="302" y="-102" on="0"/>
        <pt x="239" y="-64" on="0"/>
      </contour>
    </TTGlyph>
    <TTGlyph name="Cdotaccent" xMin="65" yMin="-7" xMax="472" yMax="836">
      <contour>
        <pt x="324" y="707" on="1"/>
        <pt x="298" y="707" on="1"/>
        <pt x="301" y="836" on="1"/>
        <pt x="329" y="836" on="1"/>
      </contour>
      <contour>
        <pt x="472" y="18" on="1"/>
        <pt x="470" y="-6" on="1"/>
        <pt x="457" y="-7" on="0"/>
        <pt x="431" y="-7" on="0"/>
        <pt x="419" y="-7" on="1"/>
        <pt x="318" y="-7" on="0"/>
        <pt x="181" y="39" on="0"/>
        <pt x="100" y="120" on="0"/>
        <pt x="65" y="231" on="0"/>
        <pt x="65" y="296" on="1"/>
        <pt x="65" y="360" on="0"/>
        <pt x="106" y="476" on="0"/>
        <pt x="199" y="566" on="0"/>
        <pt x="352" y="623" on="0"/>
        <pt x="464" y="628" on="1"/>
        <pt x="466" y="604" on="1"/>
        <pt x="359" y="598" on="0"/>
        <pt x="214" y="546" on="0"/>
        <pt x="128" y="465" on="0"/>
        <pt x="92" y="360" on="0"/>
        <pt x="92" y="301" on="1"/>
        <pt x="92" y="238" on="0"/>
        <pt x="124" y="133" on="0"/>
        <pt x="201" y="59" on="0"/>
        <pt x="331" y="17" on="0"/>
        <pt x="427" y="17" on="1"/>
        <pt x="437" y="17" on="0"/>
        <pt x="460" y="17" on="0"/>
      </contour>
    </TTGlyph>
    <TTGlyph name="Cdotaccent.sc" xMin="61" yMin="-6" xMax="412" yMax="737">
      <contour>
        <pt x="286" y="608" on="1"/>
        <pt x="260" y="608" on="1"/>
        <pt x="263" y="737" on="1"/>
        <pt x="291" y="737" on="1"/>
      </contour>
      <contour>
        <pt x="412" y="19" on="1"/>
        <pt x="410" y="-5" on="1"/>
        <pt x="399" y="-6" on="0"/>
        <pt x="377" y="-6" on="0"/>
        <pt x="367" y="-6" on="1"/>
        <pt x="279" y="-6" on="0"/>
        <pt x="161" y="33" on="0"/>
        <pt x="91" y="101" on="0"/>
        <pt x="61" y="194" on="0"/>
        <pt x="61" y="248" on="1"/>
        <pt x="61" y="302" on="0"/>
        <pt x="96" y="400" on="0"/>
        <pt x="176" y="475" on="0"/>
        <pt x="309" y="524" on="0"/>
        <pt x="405" y="528" on="1"/>
        <pt x="407" y="504" on="1"/>
        <pt x="315" y="499" on="0"/>
        <pt x="191" y="457" on="0"/>
        <pt x="118" y="390" on="0"/>
        <pt x="88" y="303" on="0"/>
        <pt x="88" y="253" on="1"/>
        <pt x="88" y="201" on="0"/>
        <pt x="116" y="114" on="0"/>
        <pt x="182" y="52" on="0"/>
        <pt x="293" y="18" on="0"/>
        <pt x="375" y="18" on="1"/>
        <pt x="384" y="18" on="0"/>
        <pt x="402" y="18" on="0"/>
      </contour>
    </TTGlyph>
    <TTGlyph name="D" xMin="113" yMin="-9" xMax="560" yMax="630">
      <contour>
        <pt x="560" y="324" on="1"/>
        <pt x="560" y="169" on="0"/>
        <pt x="380" y="-9" on="0"/>
        <pt x="216" y="-9" on="1"/>
        <pt x="192" y="-9" on="0"/>
        <pt x="140" y="-5" on="0"/>
        <pt x="113" y="-1" on="1"/>
        <pt x="113" y="621" on="1"/>
        <pt x="147" y="625" on="0"/>
        <pt x="209" y="630" on="0"/>
        <pt x="237" y="630" on="1"/>
        <pt x="404" y="630" on="0"/>
        <pt x="560" y="473" on="0"/>
      </contour>
      <contour>
        <pt x="533" y="316" on="1"/>
        <pt x="533" y="464" on="0"/>
        <pt x="389" y="606" on="0"/>
        <pt x="241" y="606" on="1"/>
        <pt x="218" y="606" on="0"/>
        <pt x="167" y="602" on="0"/>
        <pt x="140" y="599" on="1"/>
        <pt x="140" y="22" on="1"/>
        <pt x="163" y="18" on="0"/>
        <pt x="208" y="15" on="0"/>
        <pt x="229" y="15" on="1"/>
        <pt x="373" y="15" on="0"/>
        <pt x="533" y="176" on="0"/>
      </contour>
    </TTGlyph>
    <TTGlyph name="D.sc" xMin="104" yMin="-8" xMax="490" yMax="530">
      <contour>
        <pt x="490" y="272" on="1"/>
        <pt x="490" y="141" on="0"/>
        <pt x="335" y="-8" on="0"/>
        <pt x="193" y="-8" on="1"/>
        <pt x="172" y="-8" on="0"/>
        <pt x="127" y="-5" on="0"/>
        <pt x="104" y="-1" on="1"/>
        <pt x="104" y="522" on="1"/>
        <pt x="133" y="526" on="0"/>
        <pt x="186" y="530" on="0"/>
        <pt x="210" y="530" on="1"/>
        <pt x="355" y="530" on="0"/>
        <pt x="490" y="398" on="0"/>
      </contour>
      <contour>
        <pt x="463" y="265" on="1"/>
        <pt x="463" y="387" on="0"/>
        <pt x="341" y="505" on="0"/>
        <pt x="215" y="505" on="1"/>
        <pt x="196" y="505" on="0"/>
        <pt x="153" y="503" on="0"/>
        <pt x="131" y="500" on="1"/>
        <pt x="131" y="22" on="1"/>
        <pt x="151" y="19" on="0"/>
        <pt x="189" y="16" on="0"/>
        <pt x="207" y="16" on="1"/>
        <pt x="329" y="16" on="0"/>
        <pt x="463" y="149" on="0"/>
      </contour>
    </TTGlyph>
    <TTGlyph name="Dcaron" xMin="113" yMin="-9" xMax="560" yMax="871">
      <contour>
        <pt x="314" y="705" on="1"/>
        <pt x="313" y="705" on="1"/>
        <pt x="164" y="855" on="1"/>
        <pt x="182" y="871" on="1"/>
        <pt x="314" y="737" on="1"/>
        <pt x="451" y="871" on="1"/>
        <pt x="468" y="856" on="1"/>
      </contour>
      <contour>
        <pt x="560" y="324" on="1"/>
        <pt x="560" y="169" on="0"/>
        <pt x="380" y="-9" on="0"/>
        <pt x="216" y="-9" on="1"/>
        <pt x="192" y="-9" on="0"/>
        <pt x="140" y="-5" on="0"/>
        <pt x="113" y="-1" on="1"/>
        <pt x="113" y="621" on="1"/>
        <pt x="147" y="625" on="0"/>
        <pt x="209" y="630" on="0"/>
        <pt x="237" y="630" on="1"/>
        <pt x="404" y="630" on="0"/>
        <pt x="560" y="473" on="0"/>
      </contour>
      <contour>
        <pt x="533" y="316" on="1"/>
        <pt x="533" y="464" on="0"/>
        <pt x="389" y="606" on="0"/>
        <pt x="241" y="606" on="1"/>
        <pt x="218" y="606" on="0"/>
        <pt x="167" y="602" on="0"/>
        <pt x="140" y="599" on="1"/>
        <pt x="140" y="22" on="1"/>
        <pt x="163" y="18" on="0"/>
        <pt x="208" y="15" on="0"/>
        <pt x="229" y="15" on="1"/>
        <pt x="373" y="15" on="0"/>
        <pt x="533" y="176" on="0"/>
      </contour>
    </TTGlyph>
    <TTGlyph name="Dcaron.sc" xMin="104" yMin="-8" xMax="490" yMax="772">
      <contour>
        <pt x="282" y="606" on="1"/>
        <pt x="281" y="606" on="1"/>
        <pt x="132" y="756" on="1"/>
        <pt x="150" y="772" on="1"/>
        <pt x="282" y="638" on="1"/>
        <pt x="419" y="772" on="1"/>
        <pt x="436" y="757" on="1"/>
      </contour>
      <contour>
        <pt x="490" y="272" on="1"/>
        <pt x="490" y="141" on="0"/>
        <pt x="335" y="-8" on="0"/>
        <pt x="193" y="-8" on="1"/>
        <pt x="172" y="-8" on="0"/>
        <pt x="127" y="-5" on="0"/>
        <pt x="104" y="-1" on="1"/>
        <pt x="104" y="522" on="1"/>
        <pt x="133" y="526" on="0"/>
        <pt x="186" y="530" on="0"/>
        <pt x="210" y="530" on="1"/>
        <pt x="355" y="530" on="0"/>
        <pt x="490" y="398" on="0"/>
      </contour>
      <contour>
        <pt x="463" y="265" on="1"/>
        <pt x="463" y="387" on="0"/>
        <pt x="341" y="505" on="0"/>
        <pt x="215" y="505" on="1"/>
        <pt x="196" y="505" on="0"/>
        <pt x="153" y="503" on="0"/>
        <pt x="131" y="500" on="1"/>
        <pt x="131" y="22" on="1"/>
        <pt x="151" y="19" on="0"/>
        <pt x="189" y="16" on="0"/>
        <pt x="207" y="16" on="1"/>
        <pt x="329" y="16" on="0"/>
        <pt x="463" y="149" on="0"/>
      </contour>
    </TTGlyph>
    <TTGlyph name="Dcroat" xMin="30" yMin="-9" xMax="560" yMax="630">
      <contour>
        <pt x="216" y="-9" on="1"/>
        <pt x="192" y="-9" on="0"/>
        <pt x="140" y="-5" on="0"/>
        <pt x="113" y="-1" on="1"/>
        <pt x="113" y="306" on="1"/>
        <pt x="30" y="306" on="1"/>
        <pt x="30" y="327" on="1"/>
        <pt x="113" y="327" on="1"/>
        <pt x="113" y="621" on="1"/>
        <pt x="147" y="625" on="0"/>
        <pt x="209" y="630" on="0"/>
        <pt x="237" y="630" on="1"/>
        <pt x="404" y="630" on="0"/>
        <pt x="560" y="473" on="0"/>
        <pt x="560" y="324" on="1"/>
        <pt x="560" y="169" on="0"/>
        <pt x="380" y="-9" on="0"/>
      </contour>
      <contour>
        <pt x="229" y="15" on="1"/>
        <pt x="373" y="15" on="0"/>
        <pt x="533" y="176" on="0"/>
        <pt x="533" y="316" on="1"/>
        <pt x="533" y="464" on="0"/>
        <pt x="389" y="606" on="0"/>
        <pt x="241" y="606" on="1"/>
        <pt x="218" y="606" on="0"/>
        <pt x="167" y="602" on="0"/>
        <pt x="140" y="599" on="1"/>
        <pt x="140" y="327" on="1"/>
        <pt x="316" y="327" on="1"/>
        <pt x="315" y="306" on="1"/>
        <pt x="140" y="306" on="1"/>
        <pt x="140" y="22" on="1"/>
        <pt x="163" y="18" on="0"/>
        <pt x="208" y="15" on="0"/>
      </contour>
    </TTGlyph>
    <TTGlyph name="Dcroat.sc" xMin="31" yMin="-8" xMax="490" yMax="530">
      <contour>
        <pt x="193" y="-8" on="1"/>
        <pt x="172" y="-8" on="0"/>
        <pt x="127" y="-5" on="0"/>
        <pt x="104" y="-1" on="1"/>
        <pt x="104" y="257" on="1"/>
        <pt x="31" y="257" on="1"/>
        <pt x="31" y="278" on="1"/>
        <pt x="104" y="278" on="1"/>
        <pt x="104" y="522" on="1"/>
        <pt x="133" y="526" on="0"/>
        <pt x="186" y="530" on="0"/>
        <pt x="210" y="530" on="1"/>
        <pt x="355" y="530" on="0"/>
        <pt x="490" y="398" on="0"/>
        <pt x="490" y="272" on="1"/>
        <pt x="490" y="141" on="0"/>
        <pt x="335" y="-8" on="0"/>
      </contour>
      <contour>
        <pt x="207" y="16" on="1"/>
        <pt x="329" y="16" on="0"/>
        <pt x="463" y="149" on="0"/>
        <pt x="463" y="265" on="1"/>
        <pt x="463" y="387" on="0"/>
        <pt x="341" y="505" on="0"/>
        <pt x="215" y="505" on="1"/>
        <pt x="196" y="505" on="0"/>
        <pt x="153" y="503" on="0"/>
        <pt x="131" y="500" on="1"/>
        <pt x="131" y="278" on="1"/>
        <pt x="287" y="278" on="1"/>
        <pt x="286" y="257" on="1"/>
        <pt x="131" y="257" on="1"/>
        <pt x="131" y="22" on="1"/>
        <pt x="151" y="19" on="0"/>
        <pt x="189" y="16" on="0"/>
      </contour>
    </TTGlyph>
    <TTGlyph name="E" xMin="113" yMin="0" xMax="470" yMax="620">
      <contour>
        <pt x="470" y="24" on="1"/>
        <pt x="467" y="0" on="1"/>
        <pt x="113" y="0" on="1"/>
        <pt x="113" y="620" on="1"/>
        <pt x="468" y="620" on="1"/>
        <pt x="468" y="596" on="1"/>
        <pt x="140" y="596" on="1"/>
        <pt x="140" y="327" on="1"/>
        <pt x="427" y="327" on="1"/>
        <pt x="427" y="305" on="1"/>
        <pt x="140" y="305" on="1"/>
        <pt x="140" y="24" on="1"/>
      </contour>
    </TTGlyph>
    <TTGlyph name="E.sc" xMin="104" yMin="0" xMax="412" yMax="521">
      <contour>
        <pt x="412" y="24" on="1"/>
        <pt x="409" y="0" on="1"/>
        <pt x="104" y="0" on="1"/>
        <pt x="104" y="521" on="1"/>
        <pt x="410" y="521" on="1"/>
        <pt x="410" y="497" on="1"/>
        <pt x="131" y="497" on="1"/>
        <pt x="131" y="276" on="1"/>
        <pt x="375" y="276" on="1"/>
        <pt x="375" y="254" on="1"/>
        <pt x="131" y="254" on="1"/>
        <pt x="131" y="24" on="1"/>
      </contour>
    </TTGlyph>
    <TTGlyph name="Eacute" xMin="113" yMin="0" xMax="470" yMax="892">
      <contour>
        <pt x="223" y="712" on="1"/>
        <pt x="243" y="729" on="0"/>
        <pt x="288" y="775" on="0"/>
        <pt x="330" y="823" on="0"/>
        <pt x="368" y="872" on="0"/>
        <pt x="382" y="892" on="1"/>
        <pt x="412" y="868" on="1"/>
        <pt x="379" y="829" on="0"/>
        <pt x="277" y="734" on="0"/>
        <pt x="234" y="700" on="1"/>
      </contour>
      <contour>
        <pt x="470" y="24" on="1"/>
        <pt x="467" y="0" on="1"/>
        <pt x="113" y="0" on="1"/>
        <pt x="113" y="620" on="1"/>
        <pt x="468" y="620" on="1"/>
        <pt x="468" y="596" on="1"/>
        <pt x="140" y="596" on="1"/>
        <pt x="140" y="327" on="1"/>
        <pt x="427" y="327" on="1"/>
        <pt x="427" y="305" on="1"/>
        <pt x="140" y="305" on="1"/>
        <pt x="140" y="24" on="1"/>
      </contour>
    </TTGlyph>
    <TTGlyph name="Eacute.sc" xMin="104" yMin="0" xMax="412" yMax="793">
      <contour>
        <pt x="186" y="613" on="1"/>
        <pt x="206" y="630" on="0"/>
        <pt x="251" y="676" on="0"/>
        <pt x="293" y="724" on="0"/>
        <pt x="331" y="773" on="0"/>
        <pt x="345" y="793" on="1"/>
        <pt x="375" y="769" on="1"/>
        <pt x="342" y="730" on="0"/>
        <pt x="240" y="635" on="0"/>
        <pt x="197" y="601" on="1"/>
      </contour>
      <contour>
        <pt x="412" y="24" on="1"/>
        <pt x="409" y="0" on="1"/>
        <pt x="104" y="0" on="1"/>
        <pt x="104" y="521" on="1"/>
        <pt x="410" y="521" on="1"/>
        <pt x="410" y="497" on="1"/>
        <pt x="131" y="497" on="1"/>
        <pt x="131" y="276" on="1"/>
        <pt x="375" y="276" on="1"/>
        <pt x="375" y="254" on="1"/>
        <pt x="131" y="254" on="1"/>
        <pt x="131" y="24" on="1"/>
      </contour>
    </TTGlyph>
    <TTGlyph name="Ebreve" xMin="113" yMin="0" xMax="470" yMax="864">
      <contour>
        <pt x="292" y="710" on="1"/>
        <pt x="249" y="710" on="0"/>
        <pt x="174" y="781" on="0"/>
        <pt x="135" y="852" on="1"/>
        <pt x="155" y="864" on="1"/>
        <pt x="194" y="793" on="0"/>
        <pt x="256" y="733" on="0"/>
        <pt x="293" y="733" on="1"/>
        <pt x="334" y="733" on="0"/>
        <pt x="401" y="799" on="0"/>
        <pt x="440" y="860" on="1"/>
        <pt x="459" y="851" on="1"/>
        <pt x="421" y="785" on="0"/>
        <pt x="338" y="710" on="0"/>
      </contour>
      <contour>
        <pt x="470" y="24" on="1"/>
        <pt x="467" y="0" on="1"/>
        <pt x="113" y="0" on="1"/>
        <pt x="113" y="620" on="1"/>
        <pt x="468" y="620" on="1"/>
        <pt x="468" y="596" on="1"/>
        <pt x="140" y="596" on="1"/>
        <pt x="140" y="327" on="1"/>
        <pt x="427" y="327" on="1"/>
        <pt x="427" y="305" on="1"/>
        <pt x="140" y="305" on="1"/>
        <pt x="140" y="24" on="1"/>
      </contour>
    </TTGlyph>
    <TTGlyph name="Ebreve.sc" xMin="98" yMin="0" xMax="422" yMax="765">
      <contour>
        <pt x="255" y="611" on="1"/>
        <pt x="212" y="611" on="0"/>
        <pt x="137" y="682" on="0"/>
        <pt x="98" y="753" on="1"/>
        <pt x="118" y="765" on="1"/>
        <pt x="157" y="694" on="0"/>
        <pt x="219" y="634" on="0"/>
        <pt x="256" y="634" on="1"/>
        <pt x="297" y="634" on="0"/>
        <pt x="364" y="700" on="0"/>
        <pt x="403" y="761" on="1"/>
        <pt x="422" y="752" on="1"/>
        <pt x="384" y="686" on="0"/>
        <pt x="301" y="611" on="0"/>
      </contour>
      <contour>
        <pt x="412" y="24" on="1"/>
        <pt x="409" y="0" on="1"/>
        <pt x="104" y="0" on="1"/>
        <pt x="104" y="521" on="1"/>
        <pt x="410" y="521" on="1"/>
        <pt x="410" y="497" on="1"/>
        <pt x="131" y="497" on="1"/>
        <pt x="131" y="276" on="1"/>
        <pt x="375" y="276" on="1"/>
        <pt x="375" y="254" on="1"/>
        <pt x="131" y="254" on="1"/>
        <pt x="131" y="24" on="1"/>
      </contour>
    </TTGlyph>
    <TTGlyph name="Ecaron" xMin="113" yMin="0" xMax="470" yMax="866">
      <contour>
        <pt x="301" y="700" on="1"/>
        <pt x="300" y="700" on="1"/>
        <pt x="151" y="850" on="1"/>
        <pt x="169" y="866" on="1"/>
        <pt x="301" y="732" on="1"/>
        <pt x="438" y="866" on="1"/>
        <pt x="455" y="851" on="1"/>
      </contour>
      <contour>
        <pt x="470" y="24" on="1"/>
        <pt x="467" y="0" on="1"/>
        <pt x="113" y="0" on="1"/>
        <pt x="113" y="620" on="1"/>
        <pt x="468" y="620" on="1"/>
        <pt x="468" y="596" on="1"/>
        <pt x="140" y="596" on="1"/>
        <pt x="140" y="327" on="1"/>
        <pt x="427" y="327" on="1"/>
        <pt x="427" y="305" on="1"/>
        <pt x="140" y="305" on="1"/>
        <pt x="140" y="24" on="1"/>
      </contour>
    </TTGlyph>
    <TTGlyph name="Ecaron.sc" xMin="104" yMin="0" xMax="418" yMax="767">
      <contour>
        <pt x="264" y="601" on="1"/>
        <pt x="263" y="601" on="1"/>
        <pt x="114" y="751" on="1"/>
        <pt x="132" y="767" on="1"/>
        <pt x="264" y="633" on="1"/>
        <pt x="401" y="767" on="1"/>
        <pt x="418" y="752" on="1"/>
      </contour>
      <contour>
        <pt x="412" y="24" on="1"/>
        <pt x="409" y="0" on="1"/>
        <pt x="104" y="0" on="1"/>
        <pt x="104" y="521" on="1"/>
        <pt x="410" y="521" on="1"/>
        <pt x="410" y="497" on="1"/>
        <pt x="131" y="497" on="1"/>
        <pt x="131" y="276" on="1"/>
        <pt x="375" y="276" on="1"/>
        <pt x="375" y="254" on="1"/>
        <pt x="131" y="254" on="1"/>
        <pt x="131" y="24" on="1"/>
      </contour>
    </TTGlyph>
    <TTGlyph name="Ecircumflex" xMin="113" yMin="0" xMax="470" yMax="871">
      <contour>
        <pt x="431" y="705" on="1"/>
        <pt x="299" y="839" on="1"/>
        <pt x="162" y="705" on="1"/>
        <pt x="145" y="720" on="1"/>
        <pt x="299" y="871" on="1"/>
        <pt x="300" y="871" on="1"/>
        <pt x="449" y="721" on="1"/>
      </contour>
      <contour>
        <pt x="470" y="24" on="1"/>
        <pt x="467" y="0" on="1"/>
        <pt x="113" y="0" on="1"/>
        <pt x="113" y="620" on="1"/>
        <pt x="468" y="620" on="1"/>
        <pt x="468" y="596" on="1"/>
        <pt x="140" y="596" on="1"/>
        <pt x="140" y="327" on="1"/>
        <pt x="427" y="327" on="1"/>
        <pt x="427" y="305" on="1"/>
        <pt x="140" y="305" on="1"/>
        <pt x="140" y="24" on="1"/>
      </contour>
    </TTGlyph>
    <TTGlyph name="Ecircumflex.sc" xMin="104" yMin="0" xMax="412" yMax="772">
      <contour>
        <pt x="394" y="606" on="1"/>
        <pt x="262" y="740" on="1"/>
        <pt x="125" y="606" on="1"/>
        <pt x="108" y="621" on="1"/>
        <pt x="262" y="772" on="1"/>
        <pt x="263" y="772" on="1"/>
        <pt x="412" y="622" on="1"/>
      </contour>
      <contour>
        <pt x="412" y="24" on="1"/>
        <pt x="409" y="0" on="1"/>
        <pt x="104" y="0" on="1"/>
        <pt x="104" y="521" on="1"/>
        <pt x="410" y="521" on="1"/>
        <pt x="410" y="497" on="1"/>
        <pt x="131" y="497" on="1"/>
        <pt x="131" y="276" on="1"/>
        <pt x="375" y="276" on="1"/>
        <pt x="375" y="254" on="1"/>
        <pt x="131" y="254" on="1"/>
        <pt x="131" y="24" on="1"/>
      </contour>
    </TTGlyph>
    <TTGlyph name="Edieresis" xMin="113" yMin="0" xMax="470" yMax="836">
      <contour>
        <pt x="412" y="707" on="1"/>
        <pt x="386" y="707" on="1"/>
        <pt x="385" y="836" on="1"/>
        <pt x="413" y="836" on="1"/>
      </contour>
      <contour>
        <pt x="211" y="707" on="1"/>
        <pt x="185" y="707" on="1"/>
        <pt x="184" y="836" on="1"/>
        <pt x="212" y="836" on="1"/>
      </contour>
      <contour>
        <pt x="470" y="24" on="1"/>
        <pt x="467" y="0" on="1"/>
        <pt x="113" y="0" on="1"/>
        <pt x="113" y="620" on="1"/>
        <pt x="468" y="620" on="1"/>
        <pt x="468" y="596" on="1"/>
        <pt x="140" y="596" on="1"/>
        <pt x="140" y="327" on="1"/>
        <pt x="427" y="327" on="1"/>
        <pt x="427" y="305" on="1"/>
        <pt x="140" y="305" on="1"/>
        <pt x="140" y="24" on="1"/>
      </contour>
    </TTGlyph>
    <TTGlyph name="Edieresis.sc" xMin="104" yMin="0" xMax="412" yMax="737">
      <contour>
        <pt x="375" y="608" on="1"/>
        <pt x="349" y="608" on="1"/>
        <pt x="348" y="737" on="1"/>
        <pt x="376" y="737" on="1"/>
      </contour>
      <contour>
        <pt x="174" y="608" on="1"/>
        <pt x="148" y="608" on="1"/>
        <pt x="147" y="737" on="1"/>
        <pt x="175" y="737" on="1"/>
      </contour>
      <contour>
        <pt x="412" y="24" on="1"/>
        <pt x="409" y="0" on="1"/>
        <pt x="104" y="0" on="1"/>
        <pt x="104" y="521" on="1"/>
        <pt x="410" y="521" on="1"/>
        <pt x="410" y="497" on="1"/>
        <pt x="131" y="497" on="1"/>
        <pt x="131" y="276" on="1"/>
        <pt x="375" y="276" on="1"/>
        <pt x="375" y="254" on="1"/>
        <pt x="131" y="254" on="1"/>
        <pt x="131" y="24" on="1"/>
      </contour>
    </TTGlyph>
    <TTGlyph name="Edotaccent" xMin="113" yMin="0" xMax="470" yMax="836">
      <contour>
        <pt x="307" y="707" on="1"/>
        <pt x="281" y="707" on="1"/>
        <pt x="284" y="836" on="1"/>
        <pt x="312" y="836" on="1"/>
      </contour>
      <contour>
        <pt x="470" y="24" on="1"/>
        <pt x="467" y="0" on="1"/>
        <pt x="113" y="0" on="1"/>
        <pt x="113" y="620" on="1"/>
        <pt x="468" y="620" on="1"/>
        <pt x="468" y="596" on="1"/>
        <pt x="140" y="596" on="1"/>
        <pt x="140" y="327" on="1"/>
        <pt x="427" y="327" on="1"/>
        <pt x="427" y="305" on="1"/>
        <pt x="140" y="305" on="1"/>
        <pt x="140" y="24" on="1"/>
      </contour>
    </TTGlyph>
    <TTGlyph name="Edotaccent.sc" xMin="104" yMin="0" xMax="412" yMax="737">
      <contour>
        <pt x="270" y="608" on="1"/>
        <pt x="244" y="608" on="1"/>
        <pt x="247" y="737" on="1"/>
        <pt x="275" y="737" on="1"/>
      </contour>
      <contour>
        <pt x="412" y="24" on="1"/>
        <pt x="409" y="0" on="1"/>
        <pt x="104" y="0" on="1"/>
        <pt x="104" y="521" on="1"/>
        <pt x="410" y="521" on="1"/>
        <pt x="410" y="497" on="1"/>
        <pt x="131" y="497" on="1"/>
        <pt x="131" y="276" on="1"/>
        <pt x="375" y="276" on="1"/>
        <pt x="375" y="254" on="1"/>
        <pt x="131" y="254" on="1"/>
        <pt x="131" y="24" on="1"/>
      </contour>
    </TTGlyph>
    <TTGlyph name="Egrave" xMin="113" yMin="0" xMax="470" yMax="882">
      <contour>
        <pt x="371" y="702" on="1"/>
        <pt x="360" y="690" on="1"/>
        <pt x="317" y="724" on="0"/>
        <pt x="215" y="819" on="0"/>
        <pt x="182" y="858" on="1"/>
        <pt x="212" y="882" on="1"/>
        <pt x="226" y="862" on="0"/>
        <pt x="264" y="813" on="0"/>
        <pt x="306" y="765" on="0"/>
        <pt x="351" y="719" on="0"/>
      </contour>
      <contour>
        <pt x="470" y="24" on="1"/>
        <pt x="467" y="0" on="1"/>
        <pt x="113" y="0" on="1"/>
        <pt x="113" y="620" on="1"/>
        <pt x="468" y="620" on="1"/>
        <pt x="468" y="596" on="1"/>
        <pt x="140" y="596" on="1"/>
        <pt x="140" y="327" on="1"/>
        <pt x="427" y="327" on="1"/>
        <pt x="427" y="305" on="1"/>
        <pt x="140" y="305" on="1"/>
        <pt x="140" y="24" on="1"/>
      </contour>
    </TTGlyph>
    <TTGlyph name="Egrave.sc" xMin="104" yMin="0" xMax="412" yMax="783">
      <contour>
        <pt x="334" y="603" on="1"/>
        <pt x="323" y="591" on="1"/>
        <pt x="280" y="625" on="0"/>
        <pt x="178" y="720" on="0"/>
        <pt x="145" y="759" on="1"/>
        <pt x="175" y="783" on="1"/>
        <pt x="189" y="763" on="0"/>
        <pt x="227" y="714" on="0"/>
        <pt x="269" y="666" on="0"/>
        <pt x="314" y="620" on="0"/>
      </contour>
      <contour>
        <pt x="412" y="24" on="1"/>
        <pt x="409" y="0" on="1"/>
        <pt x="104" y="0" on="1"/>
        <pt x="104" y="521" on="1"/>
        <pt x="410" y="521" on="1"/>
        <pt x="410" y="497" on="1"/>
        <pt x="131" y="497" on="1"/>
        <pt x="131" y="276" on="1"/>
        <pt x="375" y="276" on="1"/>
        <pt x="375" y="254" on="1"/>
        <pt x="131" y="254" on="1"/>
        <pt x="131" y="24" on="1"/>
      </contour>
    </TTGlyph>
    <TTGlyph name="Emacron" xMin="113" yMin="0" xMax="470" yMax="787">
      <contour>
        <pt x="442" y="787" on="1"/>
        <pt x="442" y="765" on="1"/>
        <pt x="152" y="765" on="1"/>
        <pt x="152" y="787" on="1"/>
      </contour>
      <contour>
        <pt x="470" y="24" on="1"/>
        <pt x="467" y="0" on="1"/>
        <pt x="113" y="0" on="1"/>
        <pt x="113" y="620" on="1"/>
        <pt x="468" y="620" on="1"/>
        <pt x="468" y="596" on="1"/>
        <pt x="140" y="596" on="1"/>
        <pt x="140" y="327" on="1"/>
        <pt x="427" y="327" on="1"/>
        <pt x="427" y="305" on="1"/>
        <pt x="140" y="305" on="1"/>
        <pt x="140" y="24" on="1"/>
      </contour>
    </TTGlyph>
    <TTGlyph name="Emacron.sc" xMin="104" yMin="0" xMax="412" yMax="688">
      <contour>
        <pt x="405" y="688" on="1"/>
        <pt x="405" y="666" on="1"/>
        <pt x="115" y="666" on="1"/>
        <pt x="115" y="688" on="1"/>
      </contour>
      <contour>
        <pt x="412" y="24" on="1"/>
        <pt x="409" y="0" on="1"/>
        <pt x="104" y="0" on="1"/>
        <pt x="104" y="521" on="1"/>
        <pt x="410" y="521" on="1"/>
        <pt x="410" y="497" on="1"/>
        <pt x="131" y="497" on="1"/>
        <pt x="131" y="276" on="1"/>
        <pt x="375" y="276" on="1"/>
        <pt x="375" y="254" on="1"/>
        <pt x="131" y="254" on="1"/>
        <pt x="131" y="24" on="1"/>
      </contour>
    </TTGlyph>
    <TTGlyph name="Eogonek" xMin="113" yMin="-200" xMax="470" yMax="620">
      <contour>
        <pt x="445" y="-176" on="1"/>
        <pt x="441" y="-200" on="1"/>
        <pt x="377" y="-187" on="0"/>
        <pt x="313" y="-148" on="0"/>
        <pt x="313" y="-117" on="1"/>
        <pt x="313" y="-93" on="0"/>
        <pt x="361" y="-37" on="0"/>
        <pt x="430" y="0" on="1"/>
        <pt x="113" y="0" on="1"/>
        <pt x="113" y="620" on="1"/>
        <pt x="468" y="620" on="1"/>
        <pt x="468" y="596" on="1"/>
        <pt x="140" y="596" on="1"/>
        <pt x="140" y="327" on="1"/>
        <pt x="427" y="327" on="1"/>
        <pt x="427" y="305" on="1"/>
        <pt x="140" y="305" on="1"/>
        <pt x="140" y="24" on="1"/>
        <pt x="470" y="24" on="1"/>
        <pt x="467" y="0" on="1"/>
        <pt x="386" y="-42" on="0"/>
        <pt x="337" y="-96" on="0"/>
        <pt x="337" y="-113" on="1"/>
        <pt x="337" y="-135" on="0"/>
        <pt x="391" y="-166" on="0"/>
      </contour>
    </TTGlyph>
    <TTGlyph name="Eogonek.sc" xMin="104" yMin="-200" xMax="412" yMax="521">
      <contour>
        <pt x="387" y="-176" on="1"/>
        <pt x="383" y="-200" on="1"/>
        <pt x="319" y="-187" on="0"/>
        <pt x="255" y="-148" on="0"/>
        <pt x="255" y="-117" on="1"/>
        <pt x="255" y="-93" on="0"/>
        <pt x="303" y="-37" on="0"/>
        <pt x="372" y="0" on="1"/>
        <pt x="104" y="0" on="1"/>
        <pt x="104" y="521" on="1"/>
        <pt x="410" y="521" on="1"/>
        <pt x="410" y="497" on="1"/>
        <pt x="131" y="497" on="1"/>
        <pt x="131" y="276" on="1"/>
        <pt x="375" y="276" on="1"/>
        <pt x="375" y="254" on="1"/>
        <pt x="131" y="254" on="1"/>
        <pt x="131" y="24" on="1"/>
        <pt x="412" y="24" on="1"/>
        <pt x="409" y="0" on="1"/>
        <pt x="328" y="-42" on="0"/>
        <pt x="279" y="-96" on="0"/>
        <pt x="279" y="-113" on="1"/>
        <pt x="279" y="-135" on="0"/>
        <pt x="333" y="-166" on="0"/>
      </contour>
    </TTGlyph>
    <TTGlyph name="Eth" xMin="30" yMin="-9" xMax="560" yMax="630">
      <contour>
        <pt x="216" y="-9" on="1"/>
        <pt x="192" y="-9" on="0"/>
        <pt x="140" y="-5" on="0"/>
        <pt x="113" y="-1" on="1"/>
        <pt x="113" y="306" on="1"/>
        <pt x="30" y="306" on="1"/>
        <pt x="30" y="327" on="1"/>
        <pt x="113" y="327" on="1"/>
        <pt x="113" y="621" on="1"/>
        <pt x="147" y="625" on="0"/>
        <pt x="209" y="630" on="0"/>
        <pt x="237" y="630" on="1"/>
        <pt x="404" y="630" on="0"/>
        <pt x="560" y="473" on="0"/>
        <pt x="560" y="324" on="1"/>
        <pt x="560" y="169" on="0"/>
        <pt x="380" y="-9" on="0"/>
      </contour>
      <contour>
        <pt x="229" y="15" on="1"/>
        <pt x="373" y="15" on="0"/>
        <pt x="533" y="176" on="0"/>
        <pt x="533" y="316" on="1"/>
        <pt x="533" y="464" on="0"/>
        <pt x="389" y="606" on="0"/>
        <pt x="241" y="606" on="1"/>
        <pt x="218" y="606" on="0"/>
        <pt x="167" y="602" on="0"/>
        <pt x="140" y="599" on="1"/>
        <pt x="140" y="327" on="1"/>
        <pt x="316" y="327" on="1"/>
        <pt x="315" y="306" on="1"/>
        <pt x="140" y="306" on="1"/>
        <pt x="140" y="22" on="1"/>
        <pt x="163" y="18" on="0"/>
        <pt x="208" y="15" on="0"/>
      </contour>
    </TTGlyph>
    <TTGlyph name="Eth.sc" xMin="31" yMin="-8" xMax="490" yMax="530">
      <contour>
        <pt x="193" y="-8" on="1"/>
        <pt x="172" y="-8" on="0"/>
        <pt x="127" y="-5" on="0"/>
        <pt x="104" y="-1" on="1"/>
        <pt x="104" y="257" on="1"/>
        <pt x="31" y="257" on="1"/>
        <pt x="31" y="278" on="1"/>
        <pt x="104" y="278" on="1"/>
        <pt x="104" y="522" on="1"/>
        <pt x="133" y="526" on="0"/>
        <pt x="186" y="530" on="0"/>
        <pt x="210" y="530" on="1"/>
        <pt x="355" y="530" on="0"/>
        <pt x="490" y="398" on="0"/>
        <pt x="490" y="272" on="1"/>
        <pt x="490" y="141" on="0"/>
        <pt x="335" y="-8" on="0"/>
      </contour>
      <contour>
        <pt x="207" y="16" on="1"/>
        <pt x="329" y="16" on="0"/>
        <pt x="463" y="149" on="0"/>
        <pt x="463" y="265" on="1"/>
        <pt x="463" y="387" on="0"/>
        <pt x="341" y="505" on="0"/>
        <pt x="215" y="505" on="1"/>
        <pt x="196" y="505" on="0"/>
        <pt x="153" y="503" on="0"/>
        <pt x="131" y="500" on="1"/>
        <pt x="131" y="278" on="1"/>
        <pt x="287" y="278" on="1"/>
        <pt x="286" y="257" on="1"/>
        <pt x="131" y="257" on="1"/>
        <pt x="131" y="22" on="1"/>
        <pt x="151" y="19" on="0"/>
        <pt x="189" y="16" on="0"/>
      </contour>
    </TTGlyph>
    <TTGlyph name="Euro" xMin="67" yMin="-19" xMax="490" yMax="639">
      <contour>
        <pt x="490" y="4" on="1"/>
        <pt x="485" y="-19" on="1"/>
        <pt x="333" y="3" on="0"/>
        <pt x="169" y="125" on="0"/>
        <pt x="146" y="219" on="1"/>
        <pt x="67" y="219" on="1"/>
        <pt x="67" y="241" on="1"/>
        <pt x="142" y="241" on="1"/>
        <pt x="140" y="256" on="0"/>
        <pt x="137" y="289" on="0"/>
        <pt x="137" y="305" on="1"/>
        <pt x="137" y="324" on="0"/>
        <pt x="140" y="360" on="0"/>
        <pt x="142" y="376" on="1"/>
        <pt x="67" y="376" on="1"/>
        <pt x="67" y="398" on="1"/>
        <pt x="146" y="398" on="1"/>
        <pt x="167" y="490" on="0"/>
        <pt x="320" y="609" on="0"/>
        <pt x="478" y="639" on="1"/>
        <pt x="484" y="615" on="1"/>
        <pt x="331" y="590" on="0"/>
        <pt x="189" y="482" on="0"/>
        <pt x="171" y="398" on="1"/>
        <pt x="423" y="398" on="1"/>
        <pt x="421" y="376" on="1"/>
        <pt x="167" y="376" on="1"/>
        <pt x="164" y="360" on="0"/>
        <pt x="162" y="327" on="0"/>
        <pt x="162" y="309" on="1"/>
        <pt x="162" y="291" on="0"/>
        <pt x="165" y="257" on="0"/>
        <pt x="168" y="241" on="1"/>
        <pt x="423" y="241" on="1"/>
        <pt x="421" y="219" on="1"/>
        <pt x="173" y="219" on="1"/>
        <pt x="195" y="135" on="0"/>
        <pt x="345" y="26" on="0"/>
      </contour>
    </TTGlyph>
    <TTGlyph name="F" xMin="113" yMin="0" xMax="468" yMax="620">
      <contour>
        <pt x="427" y="295" on="1"/>
        <pt x="140" y="295" on="1"/>
        <pt x="140" y="0" on="1"/>
        <pt x="113" y="0" on="1"/>
        <pt x="113" y="620" on="1"/>
        <pt x="468" y="620" on="1"/>
        <pt x="468" y="596" on="1"/>
        <pt x="140" y="596" on="1"/>
        <pt x="140" y="317" on="1"/>
        <pt x="427" y="317" on="1"/>
      </contour>
    </TTGlyph>
    <TTGlyph name="F.sc" xMin="104" yMin="0" xMax="410" yMax="521">
      <contour>
        <pt x="375" y="246" on="1"/>
        <pt x="131" y="246" on="1"/>
        <pt x="131" y="0" on="1"/>
        <pt x="104" y="0" on="1"/>
        <pt x="104" y="521" on="1"/>
        <pt x="410" y="521" on="1"/>
        <pt x="410" y="497" on="1"/>
        <pt x="131" y="497" on="1"/>
        <pt x="131" y="268" on="1"/>
        <pt x="375" y="268" on="1"/>
      </contour>
    </TTGlyph>
    <TTGlyph name="G" xMin="65" yMin="-12" xMax="508" yMax="628">
      <contour>
        <pt x="372" y="-12" on="1"/>
        <pt x="284" y="-12" on="0"/>
        <pt x="166" y="36" on="0"/>
        <pt x="95" y="119" on="0"/>
        <pt x="65" y="231" on="0"/>
        <pt x="65" y="294" on="1"/>
        <pt x="65" y="359" on="0"/>
        <pt x="106" y="476" on="0"/>
        <pt x="203" y="565" on="0"/>
        <pt x="368" y="623" on="0"/>
        <pt x="490" y="628" on="1"/>
        <pt x="492" y="604" on="1"/>
        <pt x="374" y="598" on="0"/>
        <pt x="218" y="546" on="0"/>
        <pt x="128" y="466" on="0"/>
        <pt x="92" y="360" on="0"/>
        <pt x="92" y="300" on="1"/>
        <pt x="92" y="238" on="0"/>
        <pt x="120" y="131" on="0"/>
        <pt x="186" y="55" on="0"/>
        <pt x="298" y="11" on="0"/>
        <pt x="382" y="11" on="1"/>
        <pt x="404" y="11" on="0"/>
        <pt x="453" y="14" on="0"/>
        <pt x="480" y="18" on="1"/>
        <pt x="480" y="77" on="0"/>
        <pt x="479" y="219" on="0"/>
        <pt x="479" y="310" on="1"/>
        <pt x="506" y="310" on="1"/>
        <pt x="506" y="138" on="1"/>
        <pt x="506" y="100" on="0"/>
        <pt x="507" y="32" on="0"/>
        <pt x="508" y="1" on="1"/>
        <pt x="470" y="-6" on="0"/>
        <pt x="402" y="-12" on="0"/>
      </contour>
    </TTGlyph>
    <TTGlyph name="G.sc" xMin="61" yMin="-10" xMax="444" yMax="528">
      <contour>
        <pt x="328" y="-10" on="1"/>
        <pt x="253" y="-10" on="0"/>
        <pt x="150" y="31" on="0"/>
        <pt x="88" y="100" on="0"/>
        <pt x="61" y="194" on="0"/>
        <pt x="61" y="245" on="1"/>
        <pt x="61" y="301" on="0"/>
        <pt x="96" y="400" on="0"/>
        <pt x="180" y="476" on="0"/>
        <pt x="322" y="524" on="0"/>
        <pt x="428" y="528" on="1"/>
        <pt x="430" y="504" on="1"/>
        <pt x="329" y="499" on="0"/>
        <pt x="195" y="457" on="0"/>
        <pt x="119" y="391" on="0"/>
        <pt x="88" y="302" on="0"/>
        <pt x="88" y="252" on="1"/>
        <pt x="88" y="201" on="0"/>
        <pt x="112" y="113" on="0"/>
        <pt x="170" y="49" on="0"/>
        <pt x="266" y="13" on="0"/>
        <pt x="337" y="13" on="1"/>
        <pt x="355" y="13" on="0"/>
        <pt x="395" y="15" on="0"/>
        <pt x="417" y="18" on="1"/>
        <pt x="417" y="67" on="0"/>
        <pt x="416" y="185" on="0"/>
        <pt x="416" y="260" on="1"/>
        <pt x="443" y="260" on="1"/>
        <pt x="443" y="214" on="0"/>
        <pt x="442" y="133" on="0"/>
        <pt x="442" y="97" on="1"/>
        <pt x="442" y="71" on="0"/>
        <pt x="443" y="23" on="0"/>
        <pt x="444" y="1" on="1"/>
        <pt x="412" y="-4" on="0"/>
        <pt x="353" y="-10" on="0"/>
      </contour>
    </TTGlyph>
    <TTGlyph name="Gbreve" xMin="65" yMin="-12" xMax="508" yMax="864">
      <contour>
        <pt x="311" y="710" on="1"/>
        <pt x="268" y="710" on="0"/>
        <pt x="193" y="781" on="0"/>
        <pt x="154" y="852" on="1"/>
        <pt x="174" y="864" on="1"/>
        <pt x="213" y="793" on="0"/>
        <pt x="275" y="733" on="0"/>
        <pt x="312" y="733" on="1"/>
        <pt x="353" y="733" on="0"/>
        <pt x="420" y="799" on="0"/>
        <pt x="459" y="860" on="1"/>
        <pt x="478" y="851" on="1"/>
        <pt x="440" y="785" on="0"/>
        <pt x="357" y="710" on="0"/>
      </contour>
      <contour>
        <pt x="372" y="-12" on="1"/>
        <pt x="284" y="-12" on="0"/>
        <pt x="166" y="36" on="0"/>
        <pt x="95" y="119" on="0"/>
        <pt x="65" y="231" on="0"/>
        <pt x="65" y="294" on="1"/>
        <pt x="65" y="359" on="0"/>
        <pt x="106" y="476" on="0"/>
        <pt x="203" y="565" on="0"/>
        <pt x="368" y="623" on="0"/>
        <pt x="490" y="628" on="1"/>
        <pt x="492" y="604" on="1"/>
        <pt x="374" y="598" on="0"/>
        <pt x="218" y="546" on="0"/>
        <pt x="128" y="466" on="0"/>
        <pt x="92" y="360" on="0"/>
        <pt x="92" y="300" on="1"/>
        <pt x="92" y="238" on="0"/>
        <pt x="120" y="131" on="0"/>
        <pt x="186" y="55" on="0"/>
        <pt x="298" y="11" on="0"/>
        <pt x="382" y="11" on="1"/>
        <pt x="404" y="11" on="0"/>
        <pt x="453" y="14" on="0"/>
        <pt x="480" y="18" on="1"/>
        <pt x="480" y="77" on="0"/>
        <pt x="479" y="219" on="0"/>
        <pt x="479" y="310" on="1"/>
        <pt x="506" y="310" on="1"/>
        <pt x="506" y="138" on="1"/>
        <pt x="506" y="100" on="0"/>
        <pt x="507" y="32" on="0"/>
        <pt x="508" y="1" on="1"/>
        <pt x="470" y="-6" on="0"/>
        <pt x="402" y="-12" on="0"/>
      </contour>
    </TTGlyph>
    <TTGlyph name="Gbreve.sc" xMin="61" yMin="-10" xMax="450" yMax="765">
      <contour>
        <pt x="283" y="611" on="1"/>
        <pt x="240" y="611" on="0"/>
        <pt x="165" y="682" on="0"/>
        <pt x="126" y="753" on="1"/>
        <pt x="146" y="765" on="1"/>
        <pt x="185" y="694" on="0"/>
        <pt x="247" y="634" on="0"/>
        <pt x="284" y="634" on="1"/>
        <pt x="325" y="634" on="0"/>
        <pt x="392" y="700" on="0"/>
        <pt x="431" y="761" on="1"/>
        <pt x="450" y="752" on="1"/>
        <pt x="412" y="686" on="0"/>
        <pt x="329" y="611" on="0"/>
      </contour>
      <contour>
        <pt x="328" y="-10" on="1"/>
        <pt x="253" y="-10" on="0"/>
        <pt x="150" y="31" on="0"/>
        <pt x="88" y="100" on="0"/>
        <pt x="61" y="194" on="0"/>
        <pt x="61" y="245" on="1"/>
        <pt x="61" y="301" on="0"/>
        <pt x="96" y="400" on="0"/>
        <pt x="180" y="476" on="0"/>
        <pt x="322" y="524" on="0"/>
        <pt x="428" y="528" on="1"/>
        <pt x="430" y="504" on="1"/>
        <pt x="329" y="499" on="0"/>
        <pt x="195" y="457" on="0"/>
        <pt x="119" y="391" on="0"/>
        <pt x="88" y="302" on="0"/>
        <pt x="88" y="252" on="1"/>
        <pt x="88" y="201" on="0"/>
        <pt x="112" y="113" on="0"/>
        <pt x="170" y="49" on="0"/>
        <pt x="266" y="13" on="0"/>
        <pt x="337" y="13" on="1"/>
        <pt x="355" y="13" on="0"/>
        <pt x="395" y="15" on="0"/>
        <pt x="417" y="18" on="1"/>
        <pt x="417" y="67" on="0"/>
        <pt x="416" y="185" on="0"/>
        <pt x="416" y="260" on="1"/>
        <pt x="443" y="260" on="1"/>
        <pt x="443" y="214" on="0"/>
        <pt x="442" y="133" on="0"/>
        <pt x="442" y="97" on="1"/>
        <pt x="442" y="71" on="0"/>
        <pt x="443" y="23" on="0"/>
        <pt x="444" y="1" on="1"/>
        <pt x="412" y="-4" on="0"/>
        <pt x="353" y="-10" on="0"/>
      </contour>
    </TTGlyph>
    <TTGlyph name="Gcommaaccent" xMin="65" yMin="-277" xMax="508" yMax="628">
      <contour>
        <pt x="372" y="-12" on="1"/>
        <pt x="284" y="-12" on="0"/>
        <pt x="166" y="36" on="0"/>
        <pt x="95" y="119" on="0"/>
        <pt x="65" y="231" on="0"/>
        <pt x="65" y="294" on="1"/>
        <pt x="65" y="359" on="0"/>
        <pt x="106" y="476" on="0"/>
        <pt x="203" y="565" on="0"/>
        <pt x="368" y="623" on="0"/>
        <pt x="490" y="628" on="1"/>
        <pt x="492" y="604" on="1"/>
        <pt x="374" y="598" on="0"/>
        <pt x="218" y="546" on="0"/>
        <pt x="128" y="466" on="0"/>
        <pt x="92" y="360" on="0"/>
        <pt x="92" y="300" on="1"/>
        <pt x="92" y="238" on="0"/>
        <pt x="120" y="131" on="0"/>
        <pt x="186" y="55" on="0"/>
        <pt x="298" y="11" on="0"/>
        <pt x="382" y="11" on="1"/>
        <pt x="404" y="11" on="0"/>
        <pt x="453" y="14" on="0"/>
        <pt x="480" y="18" on="1"/>
        <pt x="480" y="77" on="0"/>
        <pt x="479" y="219" on="0"/>
        <pt x="479" y="310" on="1"/>
        <pt x="506" y="310" on="1"/>
        <pt x="506" y="138" on="1"/>
        <pt x="506" y="100" on="0"/>
        <pt x="507" y="32" on="0"/>
        <pt x="508" y="1" on="1"/>
        <pt x="470" y="-6" on="0"/>
        <pt x="402" y="-12" on="0"/>
      </contour>
      <contour>
        <pt x="282" y="-272" on="1"/>
        <pt x="298" y="-243" on="0"/>
        <pt x="311" y="-193" on="0"/>
        <pt x="311" y="-171" on="1"/>
        <pt x="311" y="-149" on="0"/>
        <pt x="300" y="-106" on="0"/>
        <pt x="291" y="-85" on="1"/>
        <pt x="297" y="-84" on="0"/>
        <pt x="323" y="-83" on="0"/>
        <pt x="330" y="-82" on="1"/>
        <pt x="334" y="-95" on="0"/>
        <pt x="339" y="-124" on="0"/>
        <pt x="339" y="-140" on="1"/>
        <pt x="339" y="-170" on="0"/>
        <pt x="318" y="-239" on="0"/>
        <pt x="294" y="-277" on="1"/>
      </contour>
    </TTGlyph>
    <TTGlyph name="Gcommaaccent.sc" xMin="61" yMin="-275" xMax="444" yMax="528">
      <contour>
        <pt x="328" y="-10" on="1"/>
        <pt x="253" y="-10" on="0"/>
        <pt x="150" y="31" on="0"/>
        <pt x="88" y="100" on="0"/>
        <pt x="61" y="194" on="0"/>
        <pt x="61" y="245" on="1"/>
        <pt x="61" y="301" on="0"/>
        <pt x="96" y="400" on="0"/>
        <pt x="180" y="476" on="0"/>
        <pt x="322" y="524" on="0"/>
        <pt x="428" y="528" on="1"/>
        <pt x="430" y="504" on="1"/>
        <pt x="329" y="499" on="0"/>
        <pt x="195" y="457" on="0"/>
        <pt x="119" y="391" on="0"/>
        <pt x="88" y="302" on="0"/>
        <pt x="88" y="252" on="1"/>
        <pt x="88" y="201" on="0"/>
        <pt x="112" y="113" on="0"/>
        <pt x="170" y="49" on="0"/>
        <pt x="266" y="13" on="0"/>
        <pt x="337" y="13" on="1"/>
        <pt x="355" y="13" on="0"/>
        <pt x="395" y="15" on="0"/>
        <pt x="417" y="18" on="1"/>
        <pt x="417" y="67" on="0"/>
        <pt x="416" y="185" on="0"/>
        <pt x="416" y="260" on="1"/>
        <pt x="443" y="260" on="1"/>
        <pt x="443" y="214" on="0"/>
        <pt x="442" y="133" on="0"/>
        <pt x="442" y="97" on="1"/>
        <pt x="442" y="71" on="0"/>
        <pt x="443" y="23" on="0"/>
        <pt x="444" y="1" on="1"/>
        <pt x="412" y="-4" on="0"/>
        <pt x="353" y="-10" on="0"/>
      </contour>
      <contour>
        <pt x="254" y="-270" on="1"/>
        <pt x="270" y="-241" on="0"/>
        <pt x="283" y="-191" on="0"/>
        <pt x="283" y="-169" on="1"/>
        <pt x="283" y="-147" on="0"/>
        <pt x="272" y="-104" on="0"/>
        <pt x="263" y="-83" on="1"/>
        <pt x="269" y="-82" on="0"/>
        <pt x="295" y="-81" on="0"/>
        <pt x="302" y="-80" on="1"/>
        <pt x="306" y="-93" on="0"/>
        <pt x="311" y="-122" on="0"/>
        <pt x="311" y="-138" on="1"/>
        <pt x="311" y="-168" on="0"/>
        <pt x="290" y="-237" on="0"/>
        <pt x="266" y="-275" on="1"/>
      </contour>
    </TTGlyph>
    <TTGlyph name="Gdotaccent" xMin="65" yMin="-12" xMax="508" yMax="836">
      <contour>
        <pt x="326" y="707" on="1"/>
        <pt x="300" y="707" on="1"/>
        <pt x="303" y="836" on="1"/>
        <pt x="331" y="836" on="1"/>
      </contour>
      <contour>
        <pt x="372" y="-12" on="1"/>
        <pt x="284" y="-12" on="0"/>
        <pt x="166" y="36" on="0"/>
        <pt x="95" y="119" on="0"/>
        <pt x="65" y="231" on="0"/>
        <pt x="65" y="294" on="1"/>
        <pt x="65" y="359" on="0"/>
        <pt x="106" y="476" on="0"/>
        <pt x="203" y="565" on="0"/>
        <pt x="368" y="623" on="0"/>
        <pt x="490" y="628" on="1"/>
        <pt x="492" y="604" on="1"/>
        <pt x="374" y="598" on="0"/>
        <pt x="218" y="546" on="0"/>
        <pt x="128" y="466" on="0"/>
        <pt x="92" y="360" on="0"/>
        <pt x="92" y="300" on="1"/>
        <pt x="92" y="238" on="0"/>
        <pt x="120" y="131" on="0"/>
        <pt x="186" y="55" on="0"/>
        <pt x="298" y="11" on="0"/>
        <pt x="382" y="11" on="1"/>
        <pt x="404" y="11" on="0"/>
        <pt x="453" y="14" on="0"/>
        <pt x="480" y="18" on="1"/>
        <pt x="480" y="77" on="0"/>
        <pt x="479" y="219" on="0"/>
        <pt x="479" y="310" on="1"/>
        <pt x="506" y="310" on="1"/>
        <pt x="506" y="138" on="1"/>
        <pt x="506" y="100" on="0"/>
        <pt x="507" y="32" on="0"/>
        <pt x="508" y="1" on="1"/>
        <pt x="470" y="-6" on="0"/>
        <pt x="402" y="-12" on="0"/>
      </contour>
    </TTGlyph>
    <TTGlyph name="Gdotaccent.sc" xMin="61" yMin="-10" xMax="444" yMax="737">
      <contour>
        <pt x="298" y="608" on="1"/>
        <pt x="272" y="608" on="1"/>
        <pt x="275" y="737" on="1"/>
        <pt x="303" y="737" on="1"/>
      </contour>
      <contour>
        <pt x="328" y="-10" on="1"/>
        <pt x="253" y="-10" on="0"/>
        <pt x="150" y="31" on="0"/>
        <pt x="88" y="100" on="0"/>
        <pt x="61" y="194" on="0"/>
        <pt x="61" y="245" on="1"/>
        <pt x="61" y="301" on="0"/>
        <pt x="96" y="400" on="0"/>
        <pt x="180" y="476" on="0"/>
        <pt x="322" y="524" on="0"/>
        <pt x="428" y="528" on="1"/>
        <pt x="430" y="504" on="1"/>
        <pt x="329" y="499" on="0"/>
        <pt x="195" y="457" on="0"/>
        <pt x="119" y="391" on="0"/>
        <pt x="88" y="302" on="0"/>
        <pt x="88" y="252" on="1"/>
        <pt x="88" y="201" on="0"/>
        <pt x="112" y="113" on="0"/>
        <pt x="170" y="49" on="0"/>
        <pt x="266" y="13" on="0"/>
        <pt x="337" y="13" on="1"/>
        <pt x="355" y="13" on="0"/>
        <pt x="395" y="15" on="0"/>
        <pt x="417" y="18" on="1"/>
        <pt x="417" y="67" on="0"/>
        <pt x="416" y="185" on="0"/>
        <pt x="416" y="260" on="1"/>
        <pt x="443" y="260" on="1"/>
        <pt x="443" y="214" on="0"/>
        <pt x="442" y="133" on="0"/>
        <pt x="442" y="97" on="1"/>
        <pt x="442" y="71" on="0"/>
        <pt x="443" y="23" on="0"/>
        <pt x="444" y="1" on="1"/>
        <pt x="412" y="-4" on="0"/>
        <pt x="353" y="-10" on="0"/>
      </contour>
    </TTGlyph>
    <TTGlyph name="H" xMin="113" yMin="0" xMax="545" yMax="620">
      <contour>
        <pt x="518" y="0" on="1"/>
        <pt x="518" y="305" on="1"/>
        <pt x="140" y="305" on="1"/>
        <pt x="140" y="0" on="1"/>
        <pt x="113" y="0" on="1"/>
        <pt x="113" y="620" on="1"/>
        <pt x="140" y="620" on="1"/>
        <pt x="140" y="327" on="1"/>
        <pt x="518" y="327" on="1"/>
        <pt x="518" y="620" on="1"/>
        <pt x="545" y="620" on="1"/>
        <pt x="545" y="0" on="1"/>
      </contour>
    </TTGlyph>
    <TTGlyph name="H.sc" xMin="104" yMin="0" xMax="478" yMax="521">
      <contour>
        <pt x="451" y="0" on="1"/>
        <pt x="451" y="254" on="1"/>
        <pt x="131" y="254" on="1"/>
        <pt x="131" y="0" on="1"/>
        <pt x="104" y="0" on="1"/>
        <pt x="104" y="521" on="1"/>
        <pt x="131" y="521" on="1"/>
        <pt x="131" y="276" on="1"/>
        <pt x="451" y="276" on="1"/>
        <pt x="451" y="521" on="1"/>
        <pt x="478" y="521" on="1"/>
        <pt x="478" y="0" on="1"/>
      </contour>
    </TTGlyph>
    <TTGlyph name="Hbar" xMin="30" yMin="0" xMax="628" yMax="620">
      <contour>
        <pt x="518" y="319" on="1"/>
        <pt x="518" y="459" on="1"/>
        <pt x="140" y="459" on="1"/>
        <pt x="140" y="319" on="1"/>
      </contour>
      <contour>
        <pt x="518" y="0" on="1"/>
        <pt x="518" y="297" on="1"/>
        <pt x="140" y="297" on="1"/>
        <pt x="140" y="0" on="1"/>
        <pt x="113" y="0" on="1"/>
        <pt x="113" y="459" on="1"/>
        <pt x="30" y="459" on="1"/>
        <pt x="30" y="480" on="1"/>
        <pt x="113" y="480" on="1"/>
        <pt x="113" y="620" on="1"/>
        <pt x="140" y="620" on="1"/>
        <pt x="140" y="480" on="1"/>
        <pt x="518" y="480" on="1"/>
        <pt x="518" y="620" on="1"/>
        <pt x="545" y="620" on="1"/>
        <pt x="545" y="480" on="1"/>
        <pt x="628" y="480" on="1"/>
        <pt x="628" y="459" on="1"/>
        <pt x="545" y="459" on="1"/>
        <pt x="545" y="0" on="1"/>
      </contour>
    </TTGlyph>
    <TTGlyph name="Hbar.sc" xMin="31" yMin="0" xMax="551" yMax="521">
      <contour>
        <pt x="451" y="276" on="1"/>
        <pt x="451" y="384" on="1"/>
        <pt x="131" y="384" on="1"/>
        <pt x="131" y="276" on="1"/>
      </contour>
      <contour>
        <pt x="451" y="0" on="1"/>
        <pt x="451" y="254" on="1"/>
        <pt x="131" y="254" on="1"/>
        <pt x="131" y="0" on="1"/>
        <pt x="104" y="0" on="1"/>
        <pt x="104" y="384" on="1"/>
        <pt x="31" y="384" on="1"/>
        <pt x="31" y="406" on="1"/>
        <pt x="104" y="406" on="1"/>
        <pt x="104" y="521" on="1"/>
        <pt x="131" y="521" on="1"/>
        <pt x="131" y="405" on="1"/>
        <pt x="451" y="405" on="1"/>
        <pt x="451" y="521" on="1"/>
        <pt x="478" y="521" on="1"/>
        <pt x="478" y="406" on="1"/>
        <pt x="551" y="406" on="1"/>
        <pt x="551" y="384" on="1"/>
        <pt x="478" y="384" on="1"/>
        <pt x="478" y="0" on="1"/>
      </contour>
    </TTGlyph>
    <TTGlyph name="I" xMin="70" yMin="0" xMax="399" yMax="620">
      <contour>
        <pt x="246" y="599" on="1"/>
        <pt x="246" y="21" on="1"/>
        <pt x="399" y="21" on="1"/>
        <pt x="397" y="0" on="1"/>
        <pt x="70" y="0" on="1"/>
        <pt x="70" y="21" on="1"/>
        <pt x="219" y="21" on="1"/>
        <pt x="219" y="599" on="1"/>
        <pt x="70" y="599" on="1"/>
        <pt x="70" y="620" on="1"/>
        <pt x="396" y="620" on="1"/>
        <pt x="396" y="599" on="1"/>
      </contour>
    </TTGlyph>
    <TTGlyph name="I.sc" xMin="65" yMin="0" xMax="351" yMax="521">
      <contour>
        <pt x="220" y="500" on="1"/>
        <pt x="220" y="21" on="1"/>
        <pt x="351" y="21" on="1"/>
        <pt x="349" y="0" on="1"/>
        <pt x="65" y="0" on="1"/>
        <pt x="65" y="21" on="1"/>
        <pt x="193" y="21" on="1"/>
        <pt x="193" y="500" on="1"/>
        <pt x="65" y="500" on="1"/>
        <pt x="65" y="521" on="1"/>
        <pt x="348" y="521" on="1"/>
        <pt x="348" y="500" on="1"/>
      </contour>
    </TTGlyph>
    <TTGlyph name="Iacute" xMin="70" yMin="0" xMax="399" yMax="892">
      <contour>
        <pt x="161" y="712" on="1"/>
        <pt x="181" y="729" on="0"/>
        <pt x="226" y="775" on="0"/>
        <pt x="268" y="823" on="0"/>
        <pt x="306" y="872" on="0"/>
        <pt x="320" y="892" on="1"/>
        <pt x="350" y="868" on="1"/>
        <pt x="317" y="829" on="0"/>
        <pt x="215" y="734" on="0"/>
        <pt x="172" y="700" on="1"/>
      </contour>
      <contour>
        <pt x="246" y="599" on="1"/>
        <pt x="246" y="21" on="1"/>
        <pt x="399" y="21" on="1"/>
        <pt x="397" y="0" on="1"/>
        <pt x="70" y="0" on="1"/>
        <pt x="70" y="21" on="1"/>
        <pt x="219" y="21" on="1"/>
        <pt x="219" y="599" on="1"/>
        <pt x="70" y="599" on="1"/>
        <pt x="70" y="620" on="1"/>
        <pt x="396" y="620" on="1"/>
        <pt x="396" y="599" on="1"/>
      </contour>
    </TTGlyph>
    <TTGlyph name="Iacute.sc" xMin="65" yMin="0" xMax="351" yMax="793">
      <contour>
        <pt x="134" y="613" on="1"/>
        <pt x="154" y="630" on="0"/>
        <pt x="199" y="676" on="0"/>
        <pt x="241" y="724" on="0"/>
        <pt x="279" y="773" on="0"/>
        <pt x="293" y="793" on="1"/>
        <pt x="323" y="769" on="1"/>
        <pt x="290" y="730" on="0"/>
        <pt x="188" y="635" on="0"/>
        <pt x="145" y="601" on="1"/>
      </contour>
      <contour>
        <pt x="220" y="500" on="1"/>
        <pt x="220" y="21" on="1"/>
        <pt x="351" y="21" on="1"/>
        <pt x="349" y="0" on="1"/>
        <pt x="65" y="0" on="1"/>
        <pt x="65" y="21" on="1"/>
        <pt x="193" y="21" on="1"/>
        <pt x="193" y="500" on="1"/>
        <pt x="65" y="500" on="1"/>
        <pt x="65" y="521" on="1"/>
        <pt x="348" y="521" on="1"/>
        <pt x="348" y="500" on="1"/>
      </contour>
    </TTGlyph>
    <TTGlyph name="Ibreve" xMin="70" yMin="0" xMax="399" yMax="864">
      <contour>
        <pt x="230" y="710" on="1"/>
        <pt x="187" y="710" on="0"/>
        <pt x="112" y="781" on="0"/>
        <pt x="73" y="852" on="1"/>
        <pt x="93" y="864" on="1"/>
        <pt x="132" y="793" on="0"/>
        <pt x="194" y="733" on="0"/>
        <pt x="231" y="733" on="1"/>
        <pt x="272" y="733" on="0"/>
        <pt x="339" y="799" on="0"/>
        <pt x="378" y="860" on="1"/>
        <pt x="397" y="851" on="1"/>
        <pt x="359" y="785" on="0"/>
        <pt x="276" y="710" on="0"/>
      </contour>
      <contour>
        <pt x="246" y="599" on="1"/>
        <pt x="246" y="21" on="1"/>
        <pt x="399" y="21" on="1"/>
        <pt x="397" y="0" on="1"/>
        <pt x="70" y="0" on="1"/>
        <pt x="70" y="21" on="1"/>
        <pt x="219" y="21" on="1"/>
        <pt x="219" y="599" on="1"/>
        <pt x="70" y="599" on="1"/>
        <pt x="70" y="620" on="1"/>
        <pt x="396" y="620" on="1"/>
        <pt x="396" y="599" on="1"/>
      </contour>
    </TTGlyph>
    <TTGlyph name="Ibreve.sc" xMin="46" yMin="0" xMax="370" yMax="765">
      <contour>
        <pt x="203" y="611" on="1"/>
        <pt x="160" y="611" on="0"/>
        <pt x="85" y="682" on="0"/>
        <pt x="46" y="753" on="1"/>
        <pt x="66" y="765" on="1"/>
        <pt x="105" y="694" on="0"/>
        <pt x="167" y="634" on="0"/>
        <pt x="204" y="634" on="1"/>
        <pt x="245" y="634" on="0"/>
        <pt x="312" y="700" on="0"/>
        <pt x="351" y="761" on="1"/>
        <pt x="370" y="752" on="1"/>
        <pt x="332" y="686" on="0"/>
        <pt x="249" y="611" on="0"/>
      </contour>
      <contour>
        <pt x="220" y="500" on="1"/>
        <pt x="220" y="21" on="1"/>
        <pt x="351" y="21" on="1"/>
        <pt x="349" y="0" on="1"/>
        <pt x="65" y="0" on="1"/>
        <pt x="65" y="21" on="1"/>
        <pt x="193" y="21" on="1"/>
        <pt x="193" y="500" on="1"/>
        <pt x="65" y="500" on="1"/>
        <pt x="65" y="521" on="1"/>
        <pt x="348" y="521" on="1"/>
        <pt x="348" y="500" on="1"/>
      </contour>
    </TTGlyph>
    <TTGlyph name="Icircumflex" xMin="70" yMin="0" xMax="399" yMax="871">
      <contour>
        <pt x="369" y="705" on="1"/>
        <pt x="237" y="839" on="1"/>
        <pt x="100" y="705" on="1"/>
        <pt x="83" y="720" on="1"/>
        <pt x="237" y="871" on="1"/>
        <pt x="238" y="871" on="1"/>
        <pt x="387" y="721" on="1"/>
      </contour>
      <contour>
        <pt x="246" y="599" on="1"/>
        <pt x="246" y="21" on="1"/>
        <pt x="399" y="21" on="1"/>
        <pt x="397" y="0" on="1"/>
        <pt x="70" y="0" on="1"/>
        <pt x="70" y="21" on="1"/>
        <pt x="219" y="21" on="1"/>
        <pt x="219" y="599" on="1"/>
        <pt x="70" y="599" on="1"/>
        <pt x="70" y="620" on="1"/>
        <pt x="396" y="620" on="1"/>
        <pt x="396" y="599" on="1"/>
      </contour>
    </TTGlyph>
    <TTGlyph name="Icircumflex.sc" xMin="56" yMin="0" xMax="360" yMax="772">
      <contour>
        <pt x="342" y="606" on="1"/>
        <pt x="210" y="740" on="1"/>
        <pt x="73" y="606" on="1"/>
        <pt x="56" y="621" on="1"/>
        <pt x="210" y="772" on="1"/>
        <pt x="211" y="772" on="1"/>
        <pt x="360" y="622" on="1"/>
      </contour>
      <contour>
        <pt x="220" y="500" on="1"/>
        <pt x="220" y="21" on="1"/>
        <pt x="351" y="21" on="1"/>
        <pt x="349" y="0" on="1"/>
        <pt x="65" y="0" on="1"/>
        <pt x="65" y="21" on="1"/>
        <pt x="193" y="21" on="1"/>
        <pt x="193" y="500" on="1"/>
        <pt x="65" y="500" on="1"/>
        <pt x="65" y="521" on="1"/>
        <pt x="348" y="521" on="1"/>
        <pt x="348" y="500" on="1"/>
      </contour>
    </TTGlyph>
    <TTGlyph name="Idieresis" xMin="70" yMin="0" xMax="399" yMax="836">
      <contour>
        <pt x="350" y="707" on="1"/>
        <pt x="324" y="707" on="1"/>
        <pt x="323" y="836" on="1"/>
        <pt x="351" y="836" on="1"/>
      </contour>
      <contour>
        <pt x="149" y="707" on="1"/>
        <pt x="123" y="707" on="1"/>
        <pt x="122" y="836" on="1"/>
        <pt x="150" y="836" on="1"/>
      </contour>
      <contour>
        <pt x="246" y="599" on="1"/>
        <pt x="246" y="21" on="1"/>
        <pt x="399" y="21" on="1"/>
        <pt x="397" y="0" on="1"/>
        <pt x="70" y="0" on="1"/>
        <pt x="70" y="21" on="1"/>
        <pt x="219" y="21" on="1"/>
        <pt x="219" y="599" on="1"/>
        <pt x="70" y="599" on="1"/>
        <pt x="70" y="620" on="1"/>
        <pt x="396" y="620" on="1"/>
        <pt x="396" y="599" on="1"/>
      </contour>
    </TTGlyph>
    <TTGlyph name="Idieresis.sc" xMin="65" yMin="0" xMax="351" yMax="737">
      <contour>
        <pt x="323" y="608" on="1"/>
        <pt x="297" y="608" on="1"/>
        <pt x="296" y="737" on="1"/>
        <pt x="324" y="737" on="1"/>
      </contour>
      <contour>
        <pt x="122" y="608" on="1"/>
        <pt x="96" y="608" on="1"/>
        <pt x="95" y="737" on="1"/>
        <pt x="123" y="737" on="1"/>
      </contour>
      <contour>
        <pt x="220" y="500" on="1"/>
        <pt x="220" y="21" on="1"/>
        <pt x="351" y="21" on="1"/>
        <pt x="349" y="0" on="1"/>
        <pt x="65" y="0" on="1"/>
        <pt x="65" y="21" on="1"/>
        <pt x="193" y="21" on="1"/>
        <pt x="193" y="500" on="1"/>
        <pt x="65" y="500" on="1"/>
        <pt x="65" y="521" on="1"/>
        <pt x="348" y="521" on="1"/>
        <pt x="348" y="500" on="1"/>
      </contour>
    </TTGlyph>
    <TTGlyph name="Idotaccent" xMin="70" yMin="0" xMax="399" yMax="836">
      <contour>
        <pt x="245" y="707" on="1"/>
        <pt x="219" y="707" on="1"/>
        <pt x="222" y="836" on="1"/>
        <pt x="250" y="836" on="1"/>
      </contour>
      <contour>
        <pt x="246" y="599" on="1"/>
        <pt x="246" y="21" on="1"/>
        <pt x="399" y="21" on="1"/>
        <pt x="397" y="0" on="1"/>
        <pt x="70" y="0" on="1"/>
        <pt x="70" y="21" on="1"/>
        <pt x="219" y="21" on="1"/>
        <pt x="219" y="599" on="1"/>
        <pt x="70" y="599" on="1"/>
        <pt x="70" y="620" on="1"/>
        <pt x="396" y="620" on="1"/>
        <pt x="396" y="599" on="1"/>
      </contour>
    </TTGlyph>
    <TTGlyph name="Idotaccent.sc" xMin="65" yMin="0" xMax="351" yMax="737">
      <contour>
        <pt x="218" y="608" on="1"/>
        <pt x="192" y="608" on="1"/>
        <pt x="195" y="737" on="1"/>
        <pt x="223" y="737" on="1"/>
      </contour>
      <contour>
        <pt x="220" y="500" on="1"/>
        <pt x="220" y="21" on="1"/>
        <pt x="351" y="21" on="1"/>
        <pt x="349" y="0" on="1"/>
        <pt x="65" y="0" on="1"/>
        <pt x="65" y="21" on="1"/>
        <pt x="193" y="21" on="1"/>
        <pt x="193" y="500" on="1"/>
        <pt x="65" y="500" on="1"/>
        <pt x="65" y="521" on="1"/>
        <pt x="348" y="521" on="1"/>
        <pt x="348" y="500" on="1"/>
      </contour>
    </TTGlyph>
    <TTGlyph name="Igrave" xMin="70" yMin="0" xMax="399" yMax="882">
      <contour>
        <pt x="309" y="702" on="1"/>
        <pt x="298" y="690" on="1"/>
        <pt x="255" y="724" on="0"/>
        <pt x="153" y="819" on="0"/>
        <pt x="120" y="858" on="1"/>
        <pt x="150" y="882" on="1"/>
        <pt x="164" y="862" on="0"/>
        <pt x="202" y="813" on="0"/>
        <pt x="244" y="765" on="0"/>
        <pt x="289" y="719" on="0"/>
      </contour>
      <contour>
        <pt x="246" y="599" on="1"/>
        <pt x="246" y="21" on="1"/>
        <pt x="399" y="21" on="1"/>
        <pt x="397" y="0" on="1"/>
        <pt x="70" y="0" on="1"/>
        <pt x="70" y="21" on="1"/>
        <pt x="219" y="21" on="1"/>
        <pt x="219" y="599" on="1"/>
        <pt x="70" y="599" on="1"/>
        <pt x="70" y="620" on="1"/>
        <pt x="396" y="620" on="1"/>
        <pt x="396" y="599" on="1"/>
      </contour>
    </TTGlyph>
    <TTGlyph name="Igrave.sc" xMin="65" yMin="0" xMax="351" yMax="783">
      <contour>
        <pt x="282" y="603" on="1"/>
        <pt x="271" y="591" on="1"/>
        <pt x="228" y="625" on="0"/>
        <pt x="126" y="720" on="0"/>
        <pt x="93" y="759" on="1"/>
        <pt x="123" y="783" on="1"/>
        <pt x="137" y="763" on="0"/>
        <pt x="175" y="714" on="0"/>
        <pt x="217" y="666" on="0"/>
        <pt x="262" y="620" on="0"/>
      </contour>
      <contour>
        <pt x="220" y="500" on="1"/>
        <pt x="220" y="21" on="1"/>
        <pt x="351" y="21" on="1"/>
        <pt x="349" y="0" on="1"/>
        <pt x="65" y="0" on="1"/>
        <pt x="65" y="21" on="1"/>
        <pt x="193" y="21" on="1"/>
        <pt x="193" y="500" on="1"/>
        <pt x="65" y="500" on="1"/>
        <pt x="65" y="521" on="1"/>
        <pt x="348" y="521" on="1"/>
        <pt x="348" y="500" on="1"/>
      </contour>
    </TTGlyph>
    <TTGlyph name="Imacron" xMin="70" yMin="0" xMax="399" yMax="787">
      <contour>
        <pt x="380" y="787" on="1"/>
        <pt x="380" y="765" on="1"/>
        <pt x="90" y="765" on="1"/>
        <pt x="90" y="787" on="1"/>
      </contour>
      <contour>
        <pt x="246" y="599" on="1"/>
        <pt x="246" y="21" on="1"/>
        <pt x="399" y="21" on="1"/>
        <pt x="397" y="0" on="1"/>
        <pt x="70" y="0" on="1"/>
        <pt x="70" y="21" on="1"/>
        <pt x="219" y="21" on="1"/>
        <pt x="219" y="599" on="1"/>
        <pt x="70" y="599" on="1"/>
        <pt x="70" y="620" on="1"/>
        <pt x="396" y="620" on="1"/>
        <pt x="396" y="599" on="1"/>
      </contour>
    </TTGlyph>
    <TTGlyph name="Imacron.sc" xMin="63" yMin="0" xMax="353" yMax="688">
      <contour>
        <pt x="353" y="688" on="1"/>
        <pt x="353" y="666" on="1"/>
        <pt x="63" y="666" on="1"/>
        <pt x="63" y="688" on="1"/>
      </contour>
      <contour>
        <pt x="220" y="500" on="1"/>
        <pt x="220" y="21" on="1"/>
        <pt x="351" y="21" on="1"/>
        <pt x="349" y="0" on="1"/>
        <pt x="65" y="0" on="1"/>
        <pt x="65" y="21" on="1"/>
        <pt x="193" y="21" on="1"/>
        <pt x="193" y="500" on="1"/>
        <pt x="65" y="500" on="1"/>
        <pt x="65" y="521" on="1"/>
        <pt x="348" y="521" on="1"/>
        <pt x="348" y="500" on="1"/>
      </contour>
    </TTGlyph>
    <TTGlyph name="Iogonek" xMin="70" yMin="-200" xMax="399" yMax="620">
      <contour>
        <pt x="285" y="-176" on="1"/>
        <pt x="281" y="-200" on="1"/>
        <pt x="212" y="-184" on="0"/>
        <pt x="138" y="-141" on="0"/>
        <pt x="138" y="-107" on="1"/>
        <pt x="138" y="-84" on="0"/>
        <pt x="174" y="-33" on="0"/>
        <pt x="215" y="0" on="1"/>
        <pt x="70" y="0" on="1"/>
        <pt x="70" y="21" on="1"/>
        <pt x="219" y="21" on="1"/>
        <pt x="219" y="599" on="1"/>
        <pt x="70" y="599" on="1"/>
        <pt x="70" y="620" on="1"/>
        <pt x="396" y="620" on="1"/>
        <pt x="396" y="599" on="1"/>
        <pt x="246" y="599" on="1"/>
        <pt x="246" y="21" on="1"/>
        <pt x="399" y="21" on="1"/>
        <pt x="397" y="0" on="1"/>
        <pt x="245" y="0" on="1"/>
        <pt x="198" y="-36" on="0"/>
        <pt x="162" y="-85" on="0"/>
        <pt x="162" y="-103" on="1"/>
        <pt x="162" y="-129" on="0"/>
        <pt x="225" y="-162" on="0"/>
      </contour>
    </TTGlyph>
    <TTGlyph name="Iogonek.sc" xMin="65" yMin="-200" xMax="351" yMax="521">
      <contour>
        <pt x="261" y="-176" on="1"/>
        <pt x="257" y="-200" on="1"/>
        <pt x="188" y="-184" on="0"/>
        <pt x="114" y="-141" on="0"/>
        <pt x="114" y="-107" on="1"/>
        <pt x="114" y="-84" on="0"/>
        <pt x="150" y="-33" on="0"/>
        <pt x="191" y="0" on="1"/>
        <pt x="65" y="0" on="1"/>
        <pt x="65" y="21" on="1"/>
        <pt x="193" y="21" on="1"/>
        <pt x="193" y="500" on="1"/>
        <pt x="65" y="500" on="1"/>
        <pt x="65" y="521" on="1"/>
        <pt x="348" y="521" on="1"/>
        <pt x="348" y="500" on="1"/>
        <pt x="220" y="500" on="1"/>
        <pt x="220" y="21" on="1"/>
        <pt x="351" y="21" on="1"/>
        <pt x="349" y="0" on="1"/>
        <pt x="221" y="0" on="1"/>
        <pt x="174" y="-36" on="0"/>
        <pt x="138" y="-85" on="0"/>
        <pt x="138" y="-103" on="1"/>
        <pt x="138" y="-129" on="0"/>
        <pt x="201" y="-162" on="0"/>
      </contour>
    </TTGlyph>
    <TTGlyph name="J" xMin="65" yMin="-11" xMax="326" yMax="620">
      <contour>
        <pt x="99" y="620" on="1"/>
        <pt x="326" y="620" on="1"/>
        <pt x="326" y="183" on="1"/>
        <pt x="326" y="82" on="0"/>
        <pt x="226" y="-11" on="0"/>
        <pt x="92" y="-11" on="1"/>
        <pt x="65" y="-11" on="1"/>
        <pt x="65" y="14" on="1"/>
        <pt x="75" y="14" on="0"/>
        <pt x="92" y="13" on="0"/>
        <pt x="101" y="13" on="1"/>
        <pt x="161" y="13" on="0"/>
        <pt x="238" y="30" on="0"/>
        <pt x="282" y="70" on="0"/>
        <pt x="299" y="136" on="0"/>
        <pt x="299" y="185" on="1"/>
        <pt x="299" y="599" on="1"/>
        <pt x="99" y="599" on="1"/>
      </contour>
    </TTGlyph>
    <TTGlyph name="J.sc" xMin="61" yMin="-9" xMax="287" yMax="521">
      <contour>
        <pt x="90" y="521" on="1"/>
        <pt x="287" y="521" on="1"/>
        <pt x="287" y="155" on="1"/>
        <pt x="287" y="71" on="0"/>
        <pt x="200" y="-9" on="0"/>
        <pt x="84" y="-9" on="1"/>
        <pt x="61" y="-9" on="1"/>
        <pt x="61" y="16" on="1"/>
        <pt x="71" y="16" on="0"/>
        <pt x="89" y="15" on="0"/>
        <pt x="97" y="15" on="1"/>
        <pt x="147" y="15" on="0"/>
        <pt x="211" y="29" on="0"/>
        <pt x="247" y="62" on="0"/>
        <pt x="260" y="117" on="0"/>
        <pt x="260" y="157" on="1"/>
        <pt x="260" y="500" on="1"/>
        <pt x="90" y="500" on="1"/>
      </contour>
    </TTGlyph>
    <TTGlyph name="K" xMin="113" yMin="-2" xMax="514" yMax="620">
      <contour>
        <pt x="483" y="-2" on="1"/>
        <pt x="225" y="300" on="1"/>
        <pt x="140" y="300" on="1"/>
        <pt x="140" y="0" on="1"/>
        <pt x="113" y="0" on="1"/>
        <pt x="113" y="620" on="1"/>
        <pt x="140" y="620" on="1"/>
        <pt x="140" y="324" on="1"/>
        <pt x="226" y="324" on="1"/>
        <pt x="471" y="620" on="1"/>
        <pt x="501" y="620" on="1"/>
        <pt x="249" y="312" on="1"/>
        <pt x="514" y="1" on="1"/>
      </contour>
    </TTGlyph>
    <TTGlyph name="K.sc" xMin="104" yMin="-2" xMax="453" yMax="521">
      <contour>
        <pt x="422" y="-2" on="1"/>
        <pt x="214" y="250" on="1"/>
        <pt x="131" y="250" on="1"/>
        <pt x="131" y="0" on="1"/>
        <pt x="104" y="0" on="1"/>
        <pt x="104" y="521" on="1"/>
        <pt x="131" y="521" on="1"/>
        <pt x="131" y="274" on="1"/>
        <pt x="216" y="274" on="1"/>
        <pt x="411" y="521" on="1"/>
        <pt x="442" y="521" on="1"/>
        <pt x="237" y="263" on="1"/>
        <pt x="453" y="1" on="1"/>
      </contour>
    </TTGlyph>
    <TTGlyph name="Kcommaaccent" xMin="113" yMin="-267" xMax="514" yMax="620">
      <contour>
        <pt x="483" y="-2" on="1"/>
        <pt x="225" y="300" on="1"/>
        <pt x="140" y="300" on="1"/>
        <pt x="140" y="0" on="1"/>
        <pt x="113" y="0" on="1"/>
        <pt x="113" y="620" on="1"/>
        <pt x="140" y="620" on="1"/>
        <pt x="140" y="324" on="1"/>
        <pt x="226" y="324" on="1"/>
        <pt x="471" y="620" on="1"/>
        <pt x="501" y="620" on="1"/>
        <pt x="249" y="312" on="1"/>
        <pt x="514" y="1" on="1"/>
      </contour>
      <contour>
        <pt x="243" y="-262" on="1"/>
        <pt x="259" y="-233" on="0"/>
        <pt x="272" y="-183" on="0"/>
        <pt x="272" y="-161" on="1"/>
        <pt x="272" y="-139" on="0"/>
        <pt x="261" y="-96" on="0"/>
        <pt x="252" y="-75" on="1"/>
        <pt x="258" y="-74" on="0"/>
        <pt x="284" y="-73" on="0"/>
        <pt x="291" y="-72" on="1"/>
        <pt x="295" y="-85" on="0"/>
        <pt x="300" y="-114" on="0"/>
        <pt x="300" y="-130" on="1"/>
        <pt x="300" y="-160" on="0"/>
        <pt x="279" y="-229" on="0"/>
        <pt x="255" y="-267" on="1"/>
      </contour>
    </TTGlyph>
    <TTGlyph name="Kcommaaccent.sc" xMin="104" yMin="-267" xMax="453" yMax="521">
      <contour>
        <pt x="422" y="-2" on="1"/>
        <pt x="214" y="250" on="1"/>
        <pt x="131" y="250" on="1"/>
        <pt x="131" y="0" on="1"/>
        <pt x="104" y="0" on="1"/>
        <pt x="104" y="521" on="1"/>
        <pt x="131" y="521" on="1"/>
        <pt x="131" y="274" on="1"/>
        <pt x="216" y="274" on="1"/>
        <pt x="411" y="521" on="1"/>
        <pt x="442" y="521" on="1"/>
        <pt x="237" y="263" on="1"/>
        <pt x="453" y="1" on="1"/>
      </contour>
      <contour>
        <pt x="220" y="-262" on="1"/>
        <pt x="236" y="-233" on="0"/>
        <pt x="249" y="-183" on="0"/>
        <pt x="249" y="-161" on="1"/>
        <pt x="249" y="-139" on="0"/>
        <pt x="238" y="-96" on="0"/>
        <pt x="229" y="-75" on="1"/>
        <pt x="235" y="-74" on="0"/>
        <pt x="261" y="-73" on="0"/>
        <pt x="268" y="-72" on="1"/>
        <pt x="272" y="-85" on="0"/>
        <pt x="277" y="-114" on="0"/>
        <pt x="277" y="-130" on="1"/>
        <pt x="277" y="-160" on="0"/>
        <pt x="256" y="-229" on="0"/>
        <pt x="232" y="-267" on="1"/>
      </contour>
    </TTGlyph>
    <TTGlyph name="L" xMin="113" yMin="0" xMax="464" yMax="620">
      <contour>
        <pt x="461" y="0" on="1"/>
        <pt x="113" y="0" on="1"/>
        <pt x="113" y="620" on="1"/>
        <pt x="140" y="620" on="1"/>
        <pt x="140" y="24" on="1"/>
        <pt x="464" y="24" on="1"/>
      </contour>
    </TTGlyph>
    <TTGlyph name="L.sc" xMin="104" yMin="0" xMax="407" yMax="521">
      <contour>
        <pt x="404" y="0" on="1"/>
        <pt x="104" y="0" on="1"/>
        <pt x="104" y="521" on="1"/>
        <pt x="131" y="521" on="1"/>
        <pt x="131" y="24" on="1"/>
        <pt x="407" y="24" on="1"/>
      </contour>
    </TTGlyph>
    <TTGlyph name="Lacute" xMin="113" yMin="0" xMax="464" yMax="892">
      <contour>
        <pt x="215" y="712" on="1"/>
        <pt x="235" y="729" on="0"/>
        <pt x="280" y="775" on="0"/>
        <pt x="322" y="823" on="0"/>
        <pt x="360" y="872" on="0"/>
        <pt x="374" y="892" on="1"/>
        <pt x="404" y="868" on="1"/>
        <pt x="371" y="829" on="0"/>
        <pt x="269" y="734" on="0"/>
        <pt x="226" y="700" on="1"/>
      </contour>
      <contour>
        <pt x="461" y="0" on="1"/>
        <pt x="113" y="0" on="1"/>
        <pt x="113" y="620" on="1"/>
        <pt x="140" y="620" on="1"/>
        <pt x="140" y="24" on="1"/>
        <pt x="464" y="24" on="1"/>
      </contour>
    </TTGlyph>
    <TTGlyph name="Lacute.sc" xMin="104" yMin="0" xMax="407" yMax="793">
      <contour>
        <pt x="162" y="613" on="1"/>
        <pt x="182" y="630" on="0"/>
        <pt x="227" y="676" on="0"/>
        <pt x="269" y="724" on="0"/>
        <pt x="307" y="773" on="0"/>
        <pt x="321" y="793" on="1"/>
        <pt x="351" y="769" on="1"/>
        <pt x="318" y="730" on="0"/>
        <pt x="216" y="635" on="0"/>
        <pt x="173" y="601" on="1"/>
      </contour>
      <contour>
        <pt x="404" y="0" on="1"/>
        <pt x="104" y="0" on="1"/>
        <pt x="104" y="521" on="1"/>
        <pt x="131" y="521" on="1"/>
        <pt x="131" y="24" on="1"/>
        <pt x="407" y="24" on="1"/>
      </contour>
    </TTGlyph>
    <TTGlyph name="Lcaron" xMin="113" yMin="0" xMax="464" yMax="694">
      <contour>
        <pt x="345" y="456" on="1"/>
        <pt x="366" y="493" on="0"/>
        <pt x="383" y="559" on="0"/>
        <pt x="383" y="587" on="1"/>
        <pt x="383" y="615" on="0"/>
        <pt x="371" y="666" on="0"/>
        <pt x="361" y="691" on="1"/>
        <pt x="401" y="694" on="1"/>
        <pt x="406" y="678" on="0"/>
        <pt x="412" y="640" on="0"/>
        <pt x="412" y="621" on="1"/>
        <pt x="412" y="583" on="0"/>
        <pt x="387" y="497" on="0"/>
        <pt x="357" y="450" on="1"/>
      </contour>
      <contour>
        <pt x="461" y="0" on="1"/>
        <pt x="113" y="0" on="1"/>
        <pt x="113" y="620" on="1"/>
        <pt x="140" y="620" on="1"/>
        <pt x="140" y="24" on="1"/>
        <pt x="464" y="24" on="1"/>
      </contour>
    </TTGlyph>
    <TTGlyph name="Lcaron.sc" xMin="104" yMin="0" xMax="407" yMax="644">
      <contour>
        <pt x="292" y="406" on="1"/>
        <pt x="313" y="443" on="0"/>
        <pt x="330" y="509" on="0"/>
        <pt x="330" y="537" on="1"/>
        <pt x="330" y="565" on="0"/>
        <pt x="318" y="616" on="0"/>
        <pt x="308" y="641" on="1"/>
        <pt x="348" y="644" on="1"/>
        <pt x="353" y="628" on="0"/>
        <pt x="359" y="590" on="0"/>
        <pt x="359" y="571" on="1"/>
        <pt x="359" y="533" on="0"/>
        <pt x="334" y="447" on="0"/>
        <pt x="304" y="400" on="1"/>
      </contour>
      <contour>
        <pt x="404" y="0" on="1"/>
        <pt x="104" y="0" on="1"/>
        <pt x="104" y="521" on="1"/>
        <pt x="131" y="521" on="1"/>
        <pt x="131" y="24" on="1"/>
        <pt x="407" y="24" on="1"/>
      </contour>
    </TTGlyph>
    <TTGlyph name="Lcommaaccent" xMin="113" yMin="-265" xMax="464" yMax="620">
      <contour>
        <pt x="461" y="0" on="1"/>
        <pt x="113" y="0" on="1"/>
        <pt x="113" y="620" on="1"/>
        <pt x="140" y="620" on="1"/>
        <pt x="140" y="24" on="1"/>
        <pt x="464" y="24" on="1"/>
      </contour>
      <contour>
        <pt x="255" y="-260" on="1"/>
        <pt x="271" y="-231" on="0"/>
        <pt x="284" y="-181" on="0"/>
        <pt x="284" y="-159" on="1"/>
        <pt x="284" y="-137" on="0"/>
        <pt x="273" y="-94" on="0"/>
        <pt x="264" y="-73" on="1"/>
        <pt x="270" y="-72" on="0"/>
        <pt x="296" y="-71" on="0"/>
        <pt x="303" y="-70" on="1"/>
        <pt x="307" y="-83" on="0"/>
        <pt x="312" y="-112" on="0"/>
        <pt x="312" y="-128" on="1"/>
        <pt x="312" y="-158" on="0"/>
        <pt x="291" y="-227" on="0"/>
        <pt x="267" y="-265" on="1"/>
      </contour>
    </TTGlyph>
    <TTGlyph name="Lcommaaccent.sc" xMin="104" yMin="-265" xMax="407" yMax="521">
      <contour>
        <pt x="404" y="0" on="1"/>
        <pt x="104" y="0" on="1"/>
        <pt x="104" y="521" on="1"/>
        <pt x="131" y="521" on="1"/>
        <pt x="131" y="24" on="1"/>
        <pt x="407" y="24" on="1"/>
      </contour>
      <contour>
        <pt x="222" y="-260" on="1"/>
        <pt x="238" y="-231" on="0"/>
        <pt x="251" y="-181" on="0"/>
        <pt x="251" y="-159" on="1"/>
        <pt x="251" y="-137" on="0"/>
        <pt x="240" y="-94" on="0"/>
        <pt x="231" y="-73" on="1"/>
        <pt x="237" y="-72" on="0"/>
        <pt x="263" y="-71" on="0"/>
        <pt x="270" y="-70" on="1"/>
        <pt x="274" y="-83" on="0"/>
        <pt x="279" y="-112" on="0"/>
        <pt x="279" y="-128" on="1"/>
        <pt x="279" y="-158" on="0"/>
        <pt x="258" y="-227" on="0"/>
        <pt x="234" y="-265" on="1"/>
      </contour>
    </TTGlyph>
    <TTGlyph name="Ldot" xMin="113" yMin="0" xMax="464" yMax="620">
      <contour>
        <pt x="461" y="0" on="1"/>
        <pt x="113" y="0" on="1"/>
        <pt x="113" y="620" on="1"/>
        <pt x="140" y="620" on="1"/>
        <pt x="140" y="24" on="1"/>
        <pt x="464" y="24" on="1"/>
      </contour>
      <contour>
        <pt x="407" y="280" on="1"/>
        <pt x="356" y="280" on="1"/>
        <pt x="359" y="347" on="1"/>
        <pt x="410" y="347" on="1"/>
      </contour>
    </TTGlyph>
    <TTGlyph name="Ldot.sc" xMin="104" yMin="0" xMax="407" yMax="521">
      <contour>
        <pt x="404" y="0" on="1"/>
        <pt x="104" y="0" on="1"/>
        <pt x="104" y="521" on="1"/>
        <pt x="131" y="521" on="1"/>
        <pt x="131" y="24" on="1"/>
        <pt x="407" y="24" on="1"/>
      </contour>
      <contour>
        <pt x="369" y="230" on="1"/>
        <pt x="318" y="230" on="1"/>
        <pt x="321" y="297" on="1"/>
        <pt x="372" y="297" on="1"/>
      </contour>
    </TTGlyph>
    <TTGlyph name="Lslash" xMin="21" yMin="0" xMax="464" yMax="620">
      <contour>
        <pt x="461" y="0" on="1"/>
        <pt x="113" y="0" on="1"/>
        <pt x="113" y="326" on="1"/>
        <pt x="27" y="280" on="1"/>
        <pt x="21" y="301" on="1"/>
        <pt x="113" y="350" on="1"/>
        <pt x="113" y="620" on="1"/>
        <pt x="140" y="620" on="1"/>
        <pt x="140" y="364" on="1"/>
        <pt x="302" y="450" on="1"/>
        <pt x="308" y="429" on="1"/>
        <pt x="140" y="340" on="1"/>
        <pt x="140" y="24" on="1"/>
        <pt x="464" y="24" on="1"/>
      </contour>
    </TTGlyph>
    <TTGlyph name="Lslash.sc" xMin="16" yMin="0" xMax="407" yMax="521">
      <contour>
        <pt x="404" y="0" on="1"/>
        <pt x="104" y="0" on="1"/>
        <pt x="104" y="253" on="1"/>
        <pt x="22" y="210" on="1"/>
        <pt x="16" y="231" on="1"/>
        <pt x="104" y="278" on="1"/>
        <pt x="104" y="521" on="1"/>
        <pt x="131" y="521" on="1"/>
        <pt x="131" y="292" on="1"/>
        <pt x="286" y="374" on="1"/>
        <pt x="292" y="353" on="1"/>
        <pt x="131" y="268" on="1"/>
        <pt x="131" y="24" on="1"/>
        <pt x="407" y="24" on="1"/>
      </contour>
    </TTGlyph>
    <TTGlyph name="M" xMin="113" yMin="0" xMax="626" yMax="620">
      <contour>
        <pt x="577" y="620" on="1"/>
        <pt x="626" y="620" on="1"/>
        <pt x="626" y="0" on="1"/>
        <pt x="600" y="0" on="1"/>
        <pt x="600" y="595" on="1"/>
        <pt x="595" y="595" on="1"/>
        <pt x="388" y="76" on="1"/>
        <pt x="352" y="76" on="1"/>
        <pt x="145" y="595" on="1"/>
        <pt x="140" y="595" on="1"/>
        <pt x="140" y="0" on="1"/>
        <pt x="113" y="0" on="1"/>
        <pt x="113" y="620" on="1"/>
        <pt x="162" y="620" on="1"/>
        <pt x="162" y="620" on="0"/>
        <pt x="214" y="489" on="0"/>
        <pt x="283" y="318" on="0"/>
        <pt x="352" y="146" on="0"/>
        <pt x="368" y="106" on="1"/>
        <pt x="372" y="106" on="1"/>
        <pt x="388" y="146" on="0"/>
        <pt x="456" y="318" on="0"/>
        <pt x="525" y="489" on="0"/>
        <pt x="577" y="620" on="0"/>
      </contour>
    </TTGlyph>
    <TTGlyph name="M.sc" xMin="104" yMin="0" xMax="549" yMax="521">
      <contour>
        <pt x="310" y="62" on="1"/>
        <pt x="135" y="494" on="1"/>
        <pt x="130" y="494" on="1"/>
        <pt x="131" y="0" on="1"/>
        <pt x="104" y="0" on="1"/>
        <pt x="104" y="521" on="1"/>
        <pt x="151" y="521" on="1"/>
        <pt x="151" y="521" on="0"/>
        <pt x="195" y="411" on="0"/>
        <pt x="254" y="268" on="0"/>
        <pt x="312" y="126" on="0"/>
        <pt x="326" y="94" on="1"/>
        <pt x="329" y="94" on="1"/>
        <pt x="342" y="126" on="0"/>
        <pt x="400" y="268" on="0"/>
        <pt x="458" y="411" on="0"/>
        <pt x="503" y="521" on="0"/>
        <pt x="503" y="521" on="1"/>
        <pt x="549" y="521" on="1"/>
        <pt x="549" y="0" on="1"/>
        <pt x="523" y="0" on="1"/>
        <pt x="524" y="494" on="1"/>
        <pt x="519" y="494" on="1"/>
        <pt x="344" y="63" on="1"/>
      </contour>
    </TTGlyph>
    <TTGlyph name="N" xMin="113" yMin="0" xMax="540" yMax="620">
      <contour>
        <pt x="501" y="0" on="1"/>
        <pt x="145" y="591" on="1"/>
        <pt x="140" y="591" on="1"/>
        <pt x="140" y="0" on="1"/>
        <pt x="113" y="0" on="1"/>
        <pt x="113" y="620" on="1"/>
        <pt x="157" y="620" on="1"/>
        <pt x="508" y="37" on="1"/>
        <pt x="513" y="37" on="1"/>
        <pt x="513" y="620" on="1"/>
        <pt x="540" y="620" on="1"/>
        <pt x="540" y="0" on="1"/>
      </contour>
    </TTGlyph>
    <TTGlyph name="N.sc" xMin="104" yMin="0" xMax="475" yMax="521">
      <contour>
        <pt x="435" y="0" on="1"/>
        <pt x="136" y="491" on="1"/>
        <pt x="130" y="491" on="1"/>
        <pt x="131" y="0" on="1"/>
        <pt x="104" y="0" on="1"/>
        <pt x="104" y="521" on="1"/>
        <pt x="147" y="521" on="1"/>
        <pt x="442" y="38" on="1"/>
        <pt x="448" y="38" on="1"/>
        <pt x="448" y="521" on="1"/>
        <pt x="475" y="521" on="1"/>
        <pt x="475" y="0" on="1"/>
      </contour>
    </TTGlyph>
    <TTGlyph name="Nacute" xMin="113" yMin="0" xMax="540" yMax="892">
      <contour>
        <pt x="258" y="712" on="1"/>
        <pt x="278" y="729" on="0"/>
        <pt x="323" y="775" on="0"/>
        <pt x="365" y="823" on="0"/>
        <pt x="403" y="872" on="0"/>
        <pt x="417" y="892" on="1"/>
        <pt x="447" y="868" on="1"/>
        <pt x="414" y="829" on="0"/>
        <pt x="312" y="734" on="0"/>
        <pt x="269" y="700" on="1"/>
      </contour>
      <contour>
        <pt x="501" y="0" on="1"/>
        <pt x="145" y="591" on="1"/>
        <pt x="140" y="591" on="1"/>
        <pt x="140" y="0" on="1"/>
        <pt x="113" y="0" on="1"/>
        <pt x="113" y="620" on="1"/>
        <pt x="157" y="620" on="1"/>
        <pt x="508" y="37" on="1"/>
        <pt x="513" y="37" on="1"/>
        <pt x="513" y="620" on="1"/>
        <pt x="540" y="620" on="1"/>
        <pt x="540" y="0" on="1"/>
      </contour>
    </TTGlyph>
    <TTGlyph name="Nacute.sc" xMin="104" yMin="0" xMax="475" yMax="793">
      <contour>
        <pt x="221" y="613" on="1"/>
        <pt x="241" y="630" on="0"/>
        <pt x="286" y="676" on="0"/>
        <pt x="328" y="724" on="0"/>
        <pt x="366" y="773" on="0"/>
        <pt x="380" y="793" on="1"/>
        <pt x="410" y="769" on="1"/>
        <pt x="377" y="730" on="0"/>
        <pt x="275" y="635" on="0"/>
        <pt x="232" y="601" on="1"/>
      </contour>
      <contour>
        <pt x="435" y="0" on="1"/>
        <pt x="136" y="491" on="1"/>
        <pt x="130" y="491" on="1"/>
        <pt x="131" y="0" on="1"/>
        <pt x="104" y="0" on="1"/>
        <pt x="104" y="521" on="1"/>
        <pt x="147" y="521" on="1"/>
        <pt x="442" y="38" on="1"/>
        <pt x="448" y="38" on="1"/>
        <pt x="448" y="521" on="1"/>
        <pt x="475" y="521" on="1"/>
        <pt x="475" y="0" on="1"/>
      </contour>
    </TTGlyph>
    <TTGlyph name="Ncaron" xMin="113" yMin="0" xMax="540" yMax="866">
      <contour>
        <pt x="336" y="700" on="1"/>
        <pt x="335" y="700" on="1"/>
        <pt x="186" y="850" on="1"/>
        <pt x="204" y="866" on="1"/>
        <pt x="336" y="732" on="1"/>
        <pt x="473" y="866" on="1"/>
        <pt x="490" y="851" on="1"/>
      </contour>
      <contour>
        <pt x="501" y="0" on="1"/>
        <pt x="145" y="591" on="1"/>
        <pt x="140" y="591" on="1"/>
        <pt x="140" y="0" on="1"/>
        <pt x="113" y="0" on="1"/>
        <pt x="113" y="620" on="1"/>
        <pt x="157" y="620" on="1"/>
        <pt x="508" y="37" on="1"/>
        <pt x="513" y="37" on="1"/>
        <pt x="513" y="620" on="1"/>
        <pt x="540" y="620" on="1"/>
        <pt x="540" y="0" on="1"/>
      </contour>
    </TTGlyph>
    <TTGlyph name="Ncaron.sc" xMin="104" yMin="0" xMax="475" yMax="767">
      <contour>
        <pt x="299" y="601" on="1"/>
        <pt x="298" y="601" on="1"/>
        <pt x="149" y="751" on="1"/>
        <pt x="167" y="767" on="1"/>
        <pt x="299" y="633" on="1"/>
        <pt x="436" y="767" on="1"/>
        <pt x="453" y="752" on="1"/>
      </contour>
      <contour>
        <pt x="435" y="0" on="1"/>
        <pt x="136" y="491" on="1"/>
        <pt x="130" y="491" on="1"/>
        <pt x="131" y="0" on="1"/>
        <pt x="104" y="0" on="1"/>
        <pt x="104" y="521" on="1"/>
        <pt x="147" y="521" on="1"/>
        <pt x="442" y="38" on="1"/>
        <pt x="448" y="38" on="1"/>
        <pt x="448" y="521" on="1"/>
        <pt x="475" y="521" on="1"/>
        <pt x="475" y="0" on="1"/>
      </contour>
    </TTGlyph>
    <TTGlyph name="Ncommaaccent" xMin="113" yMin="-265" xMax="540" yMax="620">
      <contour>
        <pt x="501" y="0" on="1"/>
        <pt x="145" y="591" on="1"/>
        <pt x="140" y="591" on="1"/>
        <pt x="140" y="0" on="1"/>
        <pt x="113" y="0" on="1"/>
        <pt x="113" y="620" on="1"/>
        <pt x="157" y="620" on="1"/>
        <pt x="508" y="37" on="1"/>
        <pt x="513" y="37" on="1"/>
        <pt x="513" y="620" on="1"/>
        <pt x="540" y="620" on="1"/>
        <pt x="540" y="0" on="1"/>
      </contour>
      <contour>
        <pt x="298" y="-260" on="1"/>
        <pt x="314" y="-231" on="0"/>
        <pt x="327" y="-181" on="0"/>
        <pt x="327" y="-159" on="1"/>
        <pt x="327" y="-137" on="0"/>
        <pt x="316" y="-94" on="0"/>
        <pt x="307" y="-73" on="1"/>
        <pt x="313" y="-72" on="0"/>
        <pt x="339" y="-71" on="0"/>
        <pt x="346" y="-70" on="1"/>
        <pt x="350" y="-83" on="0"/>
        <pt x="355" y="-112" on="0"/>
        <pt x="355" y="-128" on="1"/>
        <pt x="355" y="-158" on="0"/>
        <pt x="334" y="-227" on="0"/>
        <pt x="310" y="-265" on="1"/>
      </contour>
    </TTGlyph>
    <TTGlyph name="Ncommaaccent.sc" xMin="104" yMin="-265" xMax="475" yMax="521">
      <contour>
        <pt x="435" y="0" on="1"/>
        <pt x="136" y="491" on="1"/>
        <pt x="130" y="491" on="1"/>
        <pt x="131" y="0" on="1"/>
        <pt x="104" y="0" on="1"/>
        <pt x="104" y="521" on="1"/>
        <pt x="147" y="521" on="1"/>
        <pt x="442" y="38" on="1"/>
        <pt x="448" y="38" on="1"/>
        <pt x="448" y="521" on="1"/>
        <pt x="475" y="521" on="1"/>
        <pt x="475" y="0" on="1"/>
      </contour>
      <contour>
        <pt x="261" y="-260" on="1"/>
        <pt x="277" y="-231" on="0"/>
        <pt x="290" y="-181" on="0"/>
        <pt x="290" y="-159" on="1"/>
        <pt x="290" y="-137" on="0"/>
        <pt x="279" y="-94" on="0"/>
        <pt x="270" y="-73" on="1"/>
        <pt x="276" y="-72" on="0"/>
        <pt x="302" y="-71" on="0"/>
        <pt x="309" y="-70" on="1"/>
        <pt x="313" y="-83" on="0"/>
        <pt x="318" y="-112" on="0"/>
        <pt x="318" y="-128" on="1"/>
        <pt x="318" y="-158" on="0"/>
        <pt x="297" y="-227" on="0"/>
        <pt x="273" y="-265" on="1"/>
      </contour>
    </TTGlyph>
    <TTGlyph name="Ntilde" xMin="113" yMin="0" xMax="540" yMax="861">
      <contour>
        <pt x="410" y="709" on="1"/>
        <pt x="386" y="709" on="0"/>
        <pt x="349" y="749" on="0"/>
        <pt x="316" y="798" on="0"/>
        <pt x="284" y="838" on="0"/>
        <pt x="265" y="838" on="1"/>
        <pt x="240" y="838" on="0"/>
        <pt x="197" y="768" on="0"/>
        <pt x="178" y="718" on="1"/>
        <pt x="157" y="724" on="1"/>
        <pt x="181" y="791" on="0"/>
        <pt x="235" y="861" on="0"/>
        <pt x="266" y="861" on="1"/>
        <pt x="290" y="861" on="0"/>
        <pt x="327" y="821" on="0"/>
        <pt x="360" y="772" on="0"/>
        <pt x="392" y="732" on="0"/>
        <pt x="411" y="732" on="1"/>
        <pt x="436" y="732" on="0"/>
        <pt x="479" y="802" on="0"/>
        <pt x="498" y="852" on="1"/>
        <pt x="519" y="846" on="1"/>
        <pt x="495" y="779" on="0"/>
        <pt x="441" y="709" on="0"/>
      </contour>
      <contour>
        <pt x="501" y="0" on="1"/>
        <pt x="145" y="591" on="1"/>
        <pt x="140" y="591" on="1"/>
        <pt x="140" y="0" on="1"/>
        <pt x="113" y="0" on="1"/>
        <pt x="113" y="620" on="1"/>
        <pt x="157" y="620" on="1"/>
        <pt x="508" y="37" on="1"/>
        <pt x="513" y="37" on="1"/>
        <pt x="513" y="620" on="1"/>
        <pt x="540" y="620" on="1"/>
        <pt x="540" y="0" on="1"/>
      </contour>
    </TTGlyph>
    <TTGlyph name="Ntilde.sc" xMin="104" yMin="0" xMax="482" yMax="762">
      <contour>
        <pt x="373" y="610" on="1"/>
        <pt x="349" y="610" on="0"/>
        <pt x="312" y="650" on="0"/>
        <pt x="279" y="699" on="0"/>
        <pt x="247" y="739" on="0"/>
        <pt x="228" y="739" on="1"/>
        <pt x="203" y="739" on="0"/>
        <pt x="160" y="669" on="0"/>
        <pt x="141" y="619" on="1"/>
        <pt x="120" y="625" on="1"/>
        <pt x="144" y="692" on="0"/>
        <pt x="198" y="762" on="0"/>
        <pt x="229" y="762" on="1"/>
        <pt x="253" y="762" on="0"/>
        <pt x="290" y="722" on="0"/>
        <pt x="323" y="673" on="0"/>
        <pt x="355" y="633" on="0"/>
        <pt x="374" y="633" on="1"/>
        <pt x="399" y="633" on="0"/>
        <pt x="442" y="703" on="0"/>
        <pt x="461" y="753" on="1"/>
        <pt x="482" y="747" on="1"/>
        <pt x="458" y="680" on="0"/>
        <pt x="404" y="610" on="0"/>
      </contour>
      <contour>
        <pt x="435" y="0" on="1"/>
        <pt x="136" y="491" on="1"/>
        <pt x="130" y="491" on="1"/>
        <pt x="131" y="0" on="1"/>
        <pt x="104" y="0" on="1"/>
        <pt x="104" y="521" on="1"/>
        <pt x="147" y="521" on="1"/>
        <pt x="442" y="38" on="1"/>
        <pt x="448" y="38" on="1"/>
        <pt x="448" y="521" on="1"/>
        <pt x="475" y="521" on="1"/>
        <pt x="475" y="0" on="1"/>
      </contour>
    </TTGlyph>
    <TTGlyph name="O" xMin="65" yMin="-13" xMax="580" yMax="633">
      <contour>
        <pt x="318" y="-13" on="1"/>
        <pt x="264" y="-13" on="0"/>
        <pt x="171" y="31" on="0"/>
        <pt x="104" y="112" on="0"/>
        <pt x="65" y="230" on="0"/>
        <pt x="65" y="304" on="1"/>
        <pt x="65" y="379" on="0"/>
        <pt x="107" y="501" on="0"/>
        <pt x="178" y="586" on="0"/>
        <pt x="274" y="633" on="0"/>
        <pt x="328" y="633" on="1"/>
        <pt x="381" y="633" on="0"/>
        <pt x="474" y="589" on="0"/>
        <pt x="541" y="508" on="0"/>
        <pt x="580" y="390" on="0"/>
        <pt x="580" y="316" on="1"/>
        <pt x="580" y="242" on="0"/>
        <pt x="538" y="120" on="0"/>
        <pt x="468" y="34" on="0"/>
        <pt x="372" y="-13" on="0"/>
      </contour>
      <contour>
        <pt x="325" y="609" on="1"/>
        <pt x="276" y="609" on="0"/>
        <pt x="191" y="567" on="0"/>
        <pt x="128" y="490" on="0"/>
        <pt x="92" y="377" on="0"/>
        <pt x="92" y="307" on="1"/>
        <pt x="92" y="238" on="0"/>
        <pt x="127" y="127" on="0"/>
        <pt x="188" y="51" on="0"/>
        <pt x="272" y="11" on="0"/>
        <pt x="321" y="11" on="1"/>
        <pt x="370" y="11" on="0"/>
        <pt x="455" y="53" on="0"/>
        <pt x="518" y="130" on="0"/>
        <pt x="554" y="243" on="0"/>
        <pt x="554" y="313" on="1"/>
        <pt x="554" y="382" on="0"/>
        <pt x="519" y="493" on="0"/>
        <pt x="458" y="569" on="0"/>
        <pt x="374" y="609" on="0"/>
      </contour>
    </TTGlyph>
    <TTGlyph name="O.sc" xMin="61" yMin="-11" xMax="506" yMax="532">
      <contour>
        <pt x="279" y="-11" on="1"/>
        <pt x="232" y="-11" on="0"/>
        <pt x="152" y="26" on="0"/>
        <pt x="94" y="94" on="0"/>
        <pt x="61" y="193" on="0"/>
        <pt x="61" y="255" on="1"/>
        <pt x="61" y="318" on="0"/>
        <pt x="97" y="420" on="0"/>
        <pt x="159" y="493" on="0"/>
        <pt x="242" y="532" on="0"/>
        <pt x="289" y="532" on="1"/>
        <pt x="335" y="532" on="0"/>
        <pt x="415" y="495" on="0"/>
        <pt x="473" y="427" on="0"/>
        <pt x="506" y="328" on="0"/>
        <pt x="506" y="266" on="1"/>
        <pt x="506" y="203" on="0"/>
        <pt x="470" y="101" on="0"/>
        <pt x="409" y="28" on="0"/>
        <pt x="326" y="-11" on="0"/>
      </contour>
      <contour>
        <pt x="285" y="508" on="1"/>
        <pt x="244" y="508" on="0"/>
        <pt x="171" y="474" on="0"/>
        <pt x="118" y="410" on="0"/>
        <pt x="88" y="317" on="0"/>
        <pt x="88" y="259" on="1"/>
        <pt x="88" y="143" on="0"/>
        <pt x="200" y="13" on="0"/>
        <pt x="283" y="13" on="1"/>
        <pt x="324" y="13" on="0"/>
        <pt x="396" y="47" on="0"/>
        <pt x="449" y="111" on="0"/>
        <pt x="479" y="204" on="0"/>
        <pt x="479" y="262" on="1"/>
        <pt x="479" y="378" on="0"/>
        <pt x="368" y="508" on="0"/>
      </contour>
    </TTGlyph>
    <TTGlyph name="OE" xMin="65" yMin="0" xMax="818" yMax="620">
      <contour>
        <pt x="92" y="304" on="1"/>
        <pt x="92" y="160" on="0"/>
        <pt x="274" y="28" on="0"/>
        <pt x="461" y="24" on="1"/>
        <pt x="461" y="596" on="1"/>
        <pt x="289" y="593" on="0"/>
        <pt x="92" y="444" on="0"/>
      </contour>
      <contour>
        <pt x="818" y="24" on="1"/>
        <pt x="815" y="0" on="1"/>
        <pt x="472" y="0" on="1"/>
        <pt x="260" y="0" on="0"/>
        <pt x="65" y="152" on="0"/>
        <pt x="65" y="297" on="1"/>
        <pt x="65" y="450" on="0"/>
        <pt x="278" y="620" on="0"/>
        <pt x="472" y="620" on="1"/>
        <pt x="816" y="620" on="1"/>
        <pt x="816" y="596" on="1"/>
        <pt x="488" y="596" on="1"/>
        <pt x="488" y="327" on="1"/>
        <pt x="775" y="327" on="1"/>
        <pt x="775" y="305" on="1"/>
        <pt x="488" y="305" on="1"/>
        <pt x="488" y="24" on="1"/>
      </contour>
    </TTGlyph>
    <TTGlyph name="OE.sc" xMin="59" yMin="0" xMax="716" yMax="521">
      <contour>
        <pt x="86" y="257" on="1"/>
        <pt x="86" y="186" on="0"/>
        <pt x="133" y="95" on="0"/>
        <pt x="218" y="44" on="0"/>
        <pt x="337" y="24" on="0"/>
        <pt x="408" y="24" on="1"/>
        <pt x="408" y="497" on="1"/>
        <pt x="335" y="497" on="0"/>
        <pt x="215" y="472" on="0"/>
        <pt x="132" y="415" on="0"/>
        <pt x="86" y="323" on="0"/>
      </contour>
      <contour>
        <pt x="716" y="24" on="1"/>
        <pt x="713" y="0" on="1"/>
        <pt x="418" y="0" on="1"/>
        <pt x="242" y="0" on="0"/>
        <pt x="59" y="110" on="0"/>
        <pt x="59" y="250" on="1"/>
        <pt x="59" y="395" on="0"/>
        <pt x="252" y="521" on="0"/>
        <pt x="418" y="521" on="1"/>
        <pt x="714" y="521" on="1"/>
        <pt x="714" y="497" on="1"/>
        <pt x="435" y="497" on="1"/>
        <pt x="435" y="276" on="1"/>
        <pt x="679" y="276" on="1"/>
        <pt x="679" y="254" on="1"/>
        <pt x="435" y="254" on="1"/>
        <pt x="435" y="24" on="1"/>
      </contour>
    </TTGlyph>
    <TTGlyph name="Oacute" xMin="65" yMin="-13" xMax="580" yMax="897">
      <contour>
        <pt x="249" y="717" on="1"/>
        <pt x="269" y="734" on="0"/>
        <pt x="314" y="780" on="0"/>
        <pt x="356" y="828" on="0"/>
        <pt x="394" y="877" on="0"/>
        <pt x="408" y="897" on="1"/>
        <pt x="438" y="873" on="1"/>
        <pt x="405" y="834" on="0"/>
        <pt x="303" y="739" on="0"/>
        <pt x="260" y="705" on="1"/>
      </contour>
      <contour>
        <pt x="318" y="-13" on="1"/>
        <pt x="264" y="-13" on="0"/>
        <pt x="171" y="31" on="0"/>
        <pt x="104" y="112" on="0"/>
        <pt x="65" y="230" on="0"/>
        <pt x="65" y="304" on="1"/>
        <pt x="65" y="379" on="0"/>
        <pt x="107" y="501" on="0"/>
        <pt x="178" y="586" on="0"/>
        <pt x="274" y="633" on="0"/>
        <pt x="328" y="633" on="1"/>
        <pt x="381" y="633" on="0"/>
        <pt x="474" y="589" on="0"/>
        <pt x="541" y="508" on="0"/>
        <pt x="580" y="390" on="0"/>
        <pt x="580" y="316" on="1"/>
        <pt x="580" y="242" on="0"/>
        <pt x="538" y="120" on="0"/>
        <pt x="468" y="34" on="0"/>
        <pt x="372" y="-13" on="0"/>
      </contour>
      <contour>
        <pt x="325" y="609" on="1"/>
        <pt x="276" y="609" on="0"/>
        <pt x="191" y="567" on="0"/>
        <pt x="128" y="490" on="0"/>
        <pt x="92" y="377" on="0"/>
        <pt x="92" y="307" on="1"/>
        <pt x="92" y="238" on="0"/>
        <pt x="127" y="127" on="0"/>
        <pt x="188" y="51" on="0"/>
        <pt x="272" y="11" on="0"/>
        <pt x="321" y="11" on="1"/>
        <pt x="370" y="11" on="0"/>
        <pt x="455" y="53" on="0"/>
        <pt x="518" y="130" on="0"/>
        <pt x="554" y="243" on="0"/>
        <pt x="554" y="313" on="1"/>
        <pt x="554" y="382" on="0"/>
        <pt x="519" y="493" on="0"/>
        <pt x="458" y="569" on="0"/>
        <pt x="374" y="609" on="0"/>
      </contour>
    </TTGlyph>
    <TTGlyph name="Oacute.sc" xMin="61" yMin="-11" xMax="506" yMax="798">
      <contour>
        <pt x="210" y="618" on="1"/>
        <pt x="230" y="635" on="0"/>
        <pt x="275" y="681" on="0"/>
        <pt x="317" y="729" on="0"/>
        <pt x="355" y="778" on="0"/>
        <pt x="369" y="798" on="1"/>
        <pt x="399" y="774" on="1"/>
        <pt x="366" y="735" on="0"/>
        <pt x="264" y="640" on="0"/>
        <pt x="221" y="606" on="1"/>
      </contour>
      <contour>
        <pt x="279" y="-11" on="1"/>
        <pt x="232" y="-11" on="0"/>
        <pt x="152" y="26" on="0"/>
        <pt x="94" y="94" on="0"/>
        <pt x="61" y="193" on="0"/>
        <pt x="61" y="255" on="1"/>
        <pt x="61" y="318" on="0"/>
        <pt x="97" y="420" on="0"/>
        <pt x="159" y="493" on="0"/>
        <pt x="242" y="532" on="0"/>
        <pt x="289" y="532" on="1"/>
        <pt x="335" y="532" on="0"/>
        <pt x="415" y="495" on="0"/>
        <pt x="473" y="427" on="0"/>
        <pt x="506" y="328" on="0"/>
        <pt x="506" y="266" on="1"/>
        <pt x="506" y="203" on="0"/>
        <pt x="470" y="101" on="0"/>
        <pt x="409" y="28" on="0"/>
        <pt x="326" y="-11" on="0"/>
      </contour>
      <contour>
        <pt x="285" y="508" on="1"/>
        <pt x="244" y="508" on="0"/>
        <pt x="171" y="474" on="0"/>
        <pt x="118" y="410" on="0"/>
        <pt x="88" y="317" on="0"/>
        <pt x="88" y="259" on="1"/>
        <pt x="88" y="143" on="0"/>
        <pt x="200" y="13" on="0"/>
        <pt x="283" y="13" on="1"/>
        <pt x="324" y="13" on="0"/>
        <pt x="396" y="47" on="0"/>
        <pt x="449" y="111" on="0"/>
        <pt x="479" y="204" on="0"/>
        <pt x="479" y="262" on="1"/>
        <pt x="479" y="378" on="0"/>
        <pt x="368" y="508" on="0"/>
      </contour>
    </TTGlyph>
    <TTGlyph name="Obreve" xMin="65" yMin="-13" xMax="580" yMax="869">
      <contour>
        <pt x="318" y="715" on="1"/>
        <pt x="275" y="715" on="0"/>
        <pt x="200" y="786" on="0"/>
        <pt x="161" y="857" on="1"/>
        <pt x="181" y="869" on="1"/>
        <pt x="220" y="798" on="0"/>
        <pt x="282" y="738" on="0"/>
        <pt x="319" y="738" on="1"/>
        <pt x="360" y="738" on="0"/>
        <pt x="427" y="804" on="0"/>
        <pt x="466" y="865" on="1"/>
        <pt x="485" y="856" on="1"/>
        <pt x="447" y="790" on="0"/>
        <pt x="364" y="715" on="0"/>
      </contour>
      <contour>
        <pt x="318" y="-13" on="1"/>
        <pt x="264" y="-13" on="0"/>
        <pt x="171" y="31" on="0"/>
        <pt x="104" y="112" on="0"/>
        <pt x="65" y="230" on="0"/>
        <pt x="65" y="304" on="1"/>
        <pt x="65" y="379" on="0"/>
        <pt x="107" y="501" on="0"/>
        <pt x="178" y="586" on="0"/>
        <pt x="274" y="633" on="0"/>
        <pt x="328" y="633" on="1"/>
        <pt x="381" y="633" on="0"/>
        <pt x="474" y="589" on="0"/>
        <pt x="541" y="508" on="0"/>
        <pt x="580" y="390" on="0"/>
        <pt x="580" y="316" on="1"/>
        <pt x="580" y="242" on="0"/>
        <pt x="538" y="120" on="0"/>
        <pt x="468" y="34" on="0"/>
        <pt x="372" y="-13" on="0"/>
      </contour>
      <contour>
        <pt x="325" y="609" on="1"/>
        <pt x="276" y="609" on="0"/>
        <pt x="191" y="567" on="0"/>
        <pt x="128" y="490" on="0"/>
        <pt x="92" y="377" on="0"/>
        <pt x="92" y="307" on="1"/>
        <pt x="92" y="238" on="0"/>
        <pt x="127" y="127" on="0"/>
        <pt x="188" y="51" on="0"/>
        <pt x="272" y="11" on="0"/>
        <pt x="321" y="11" on="1"/>
        <pt x="370" y="11" on="0"/>
        <pt x="455" y="53" on="0"/>
        <pt x="518" y="130" on="0"/>
        <pt x="554" y="243" on="0"/>
        <pt x="554" y="313" on="1"/>
        <pt x="554" y="382" on="0"/>
        <pt x="519" y="493" on="0"/>
        <pt x="458" y="569" on="0"/>
        <pt x="374" y="609" on="0"/>
      </contour>
    </TTGlyph>
    <TTGlyph name="Obreve.sc" xMin="61" yMin="-11" xMax="506" yMax="770">
      <contour>
        <pt x="279" y="616" on="1"/>
        <pt x="236" y="616" on="0"/>
        <pt x="161" y="687" on="0"/>
        <pt x="122" y="758" on="1"/>
        <pt x="142" y="770" on="1"/>
        <pt x="181" y="699" on="0"/>
        <pt x="243" y="639" on="0"/>
        <pt x="280" y="639" on="1"/>
        <pt x="321" y="639" on="0"/>
        <pt x="388" y="705" on="0"/>
        <pt x="427" y="766" on="1"/>
        <pt x="446" y="757" on="1"/>
        <pt x="408" y="691" on="0"/>
        <pt x="325" y="616" on="0"/>
      </contour>
      <contour>
        <pt x="279" y="-11" on="1"/>
        <pt x="232" y="-11" on="0"/>
        <pt x="152" y="26" on="0"/>
        <pt x="94" y="94" on="0"/>
        <pt x="61" y="193" on="0"/>
        <pt x="61" y="255" on="1"/>
        <pt x="61" y="318" on="0"/>
        <pt x="97" y="420" on="0"/>
        <pt x="159" y="493" on="0"/>
        <pt x="242" y="532" on="0"/>
        <pt x="289" y="532" on="1"/>
        <pt x="335" y="532" on="0"/>
        <pt x="415" y="495" on="0"/>
        <pt x="473" y="427" on="0"/>
        <pt x="506" y="328" on="0"/>
        <pt x="506" y="266" on="1"/>
        <pt x="506" y="203" on="0"/>
        <pt x="470" y="101" on="0"/>
        <pt x="409" y="28" on="0"/>
        <pt x="326" y="-11" on="0"/>
      </contour>
      <contour>
        <pt x="285" y="508" on="1"/>
        <pt x="244" y="508" on="0"/>
        <pt x="171" y="474" on="0"/>
        <pt x="118" y="410" on="0"/>
        <pt x="88" y="317" on="0"/>
        <pt x="88" y="259" on="1"/>
        <pt x="88" y="143" on="0"/>
        <pt x="200" y="13" on="0"/>
        <pt x="283" y="13" on="1"/>
        <pt x="324" y="13" on="0"/>
        <pt x="396" y="47" on="0"/>
        <pt x="449" y="111" on="0"/>
        <pt x="479" y="204" on="0"/>
        <pt x="479" y="262" on="1"/>
        <pt x="479" y="378" on="0"/>
        <pt x="368" y="508" on="0"/>
      </contour>
    </TTGlyph>
    <TTGlyph name="Ocircumflex" xMin="65" yMin="-13" xMax="580" yMax="876">
      <contour>
        <pt x="457" y="710" on="1"/>
        <pt x="325" y="844" on="1"/>
        <pt x="188" y="710" on="1"/>
        <pt x="171" y="725" on="1"/>
        <pt x="325" y="876" on="1"/>
        <pt x="326" y="876" on="1"/>
        <pt x="475" y="726" on="1"/>
      </contour>
      <contour>
        <pt x="318" y="-13" on="1"/>
        <pt x="264" y="-13" on="0"/>
        <pt x="171" y="31" on="0"/>
        <pt x="104" y="112" on="0"/>
        <pt x="65" y="230" on="0"/>
        <pt x="65" y="304" on="1"/>
        <pt x="65" y="379" on="0"/>
        <pt x="107" y="501" on="0"/>
        <pt x="178" y="586" on="0"/>
        <pt x="274" y="633" on="0"/>
        <pt x="328" y="633" on="1"/>
        <pt x="381" y="633" on="0"/>
        <pt x="474" y="589" on="0"/>
        <pt x="541" y="508" on="0"/>
        <pt x="580" y="390" on="0"/>
        <pt x="580" y="316" on="1"/>
        <pt x="580" y="242" on="0"/>
        <pt x="538" y="120" on="0"/>
        <pt x="468" y="34" on="0"/>
        <pt x="372" y="-13" on="0"/>
      </contour>
      <contour>
        <pt x="325" y="609" on="1"/>
        <pt x="276" y="609" on="0"/>
        <pt x="191" y="567" on="0"/>
        <pt x="128" y="490" on="0"/>
        <pt x="92" y="377" on="0"/>
        <pt x="92" y="307" on="1"/>
        <pt x="92" y="238" on="0"/>
        <pt x="127" y="127" on="0"/>
        <pt x="188" y="51" on="0"/>
        <pt x="272" y="11" on="0"/>
        <pt x="321" y="11" on="1"/>
        <pt x="370" y="11" on="0"/>
        <pt x="455" y="53" on="0"/>
        <pt x="518" y="130" on="0"/>
        <pt x="554" y="243" on="0"/>
        <pt x="554" y="313" on="1"/>
        <pt x="554" y="382" on="0"/>
        <pt x="519" y="493" on="0"/>
        <pt x="458" y="569" on="0"/>
        <pt x="374" y="609" on="0"/>
      </contour>
    </TTGlyph>
    <TTGlyph name="Ocircumflex.sc" xMin="61" yMin="-11" xMax="506" yMax="777">
      <contour>
        <pt x="418" y="611" on="1"/>
        <pt x="286" y="745" on="1"/>
        <pt x="149" y="611" on="1"/>
        <pt x="132" y="626" on="1"/>
        <pt x="286" y="777" on="1"/>
        <pt x="287" y="777" on="1"/>
        <pt x="436" y="627" on="1"/>
      </contour>
      <contour>
        <pt x="279" y="-11" on="1"/>
        <pt x="232" y="-11" on="0"/>
        <pt x="152" y="26" on="0"/>
        <pt x="94" y="94" on="0"/>
        <pt x="61" y="193" on="0"/>
        <pt x="61" y="255" on="1"/>
        <pt x="61" y="318" on="0"/>
        <pt x="97" y="420" on="0"/>
        <pt x="159" y="493" on="0"/>
        <pt x="242" y="532" on="0"/>
        <pt x="289" y="532" on="1"/>
        <pt x="335" y="532" on="0"/>
        <pt x="415" y="495" on="0"/>
        <pt x="473" y="427" on="0"/>
        <pt x="506" y="328" on="0"/>
        <pt x="506" y="266" on="1"/>
        <pt x="506" y="203" on="0"/>
        <pt x="470" y="101" on="0"/>
        <pt x="409" y="28" on="0"/>
        <pt x="326" y="-11" on="0"/>
      </contour>
      <contour>
        <pt x="285" y="508" on="1"/>
        <pt x="244" y="508" on="0"/>
        <pt x="171" y="474" on="0"/>
        <pt x="118" y="410" on="0"/>
        <pt x="88" y="317" on="0"/>
        <pt x="88" y="259" on="1"/>
        <pt x="88" y="143" on="0"/>
        <pt x="200" y="13" on="0"/>
        <pt x="283" y="13" on="1"/>
        <pt x="324" y="13" on="0"/>
        <pt x="396" y="47" on="0"/>
        <pt x="449" y="111" on="0"/>
        <pt x="479" y="204" on="0"/>
        <pt x="479" y="262" on="1"/>
        <pt x="479" y="378" on="0"/>
        <pt x="368" y="508" on="0"/>
      </contour>
    </TTGlyph>
    <TTGlyph name="Odieresis" xMin="65" yMin="-13" xMax="580" yMax="841">
      <contour>
        <pt x="438" y="712" on="1"/>
        <pt x="412" y="712" on="1"/>
        <pt x="411" y="841" on="1"/>
        <pt x="439" y="841" on="1"/>
      </contour>
      <contour>
        <pt x="237" y="712" on="1"/>
        <pt x="211" y="712" on="1"/>
        <pt x="210" y="841" on="1"/>
        <pt x="238" y="841" on="1"/>
      </contour>
      <contour>
        <pt x="318" y="-13" on="1"/>
        <pt x="264" y="-13" on="0"/>
        <pt x="171" y="31" on="0"/>
        <pt x="104" y="112" on="0"/>
        <pt x="65" y="230" on="0"/>
        <pt x="65" y="304" on="1"/>
        <pt x="65" y="379" on="0"/>
        <pt x="107" y="501" on="0"/>
        <pt x="178" y="586" on="0"/>
        <pt x="274" y="633" on="0"/>
        <pt x="328" y="633" on="1"/>
        <pt x="381" y="633" on="0"/>
        <pt x="474" y="589" on="0"/>
        <pt x="541" y="508" on="0"/>
        <pt x="580" y="390" on="0"/>
        <pt x="580" y="316" on="1"/>
        <pt x="580" y="242" on="0"/>
        <pt x="538" y="120" on="0"/>
        <pt x="468" y="34" on="0"/>
        <pt x="372" y="-13" on="0"/>
      </contour>
      <contour>
        <pt x="325" y="609" on="1"/>
        <pt x="276" y="609" on="0"/>
        <pt x="191" y="567" on="0"/>
        <pt x="128" y="490" on="0"/>
        <pt x="92" y="377" on="0"/>
        <pt x="92" y="307" on="1"/>
        <pt x="92" y="238" on="0"/>
        <pt x="127" y="127" on="0"/>
        <pt x="188" y="51" on="0"/>
        <pt x="272" y="11" on="0"/>
        <pt x="321" y="11" on="1"/>
        <pt x="370" y="11" on="0"/>
        <pt x="455" y="53" on="0"/>
        <pt x="518" y="130" on="0"/>
        <pt x="554" y="243" on="0"/>
        <pt x="554" y="313" on="1"/>
        <pt x="554" y="382" on="0"/>
        <pt x="519" y="493" on="0"/>
        <pt x="458" y="569" on="0"/>
        <pt x="374" y="609" on="0"/>
      </contour>
    </TTGlyph>
    <TTGlyph name="Odieresis.sc" xMin="61" yMin="-11" xMax="506" yMax="742">
      <contour>
        <pt x="399" y="613" on="1"/>
        <pt x="373" y="613" on="1"/>
        <pt x="372" y="742" on="1"/>
        <pt x="400" y="742" on="1"/>
      </contour>
      <contour>
        <pt x="198" y="613" on="1"/>
        <pt x="172" y="613" on="1"/>
        <pt x="171" y="742" on="1"/>
        <pt x="199" y="742" on="1"/>
      </contour>
      <contour>
        <pt x="279" y="-11" on="1"/>
        <pt x="232" y="-11" on="0"/>
        <pt x="152" y="26" on="0"/>
        <pt x="94" y="94" on="0"/>
        <pt x="61" y="193" on="0"/>
        <pt x="61" y="255" on="1"/>
        <pt x="61" y="318" on="0"/>
        <pt x="97" y="420" on="0"/>
        <pt x="159" y="493" on="0"/>
        <pt x="242" y="532" on="0"/>
        <pt x="289" y="532" on="1"/>
        <pt x="335" y="532" on="0"/>
        <pt x="415" y="495" on="0"/>
        <pt x="473" y="427" on="0"/>
        <pt x="506" y="328" on="0"/>
        <pt x="506" y="266" on="1"/>
        <pt x="506" y="203" on="0"/>
        <pt x="470" y="101" on="0"/>
        <pt x="409" y="28" on="0"/>
        <pt x="326" y="-11" on="0"/>
      </contour>
      <contour>
        <pt x="285" y="508" on="1"/>
        <pt x="244" y="508" on="0"/>
        <pt x="171" y="474" on="0"/>
        <pt x="118" y="410" on="0"/>
        <pt x="88" y="317" on="0"/>
        <pt x="88" y="259" on="1"/>
        <pt x="88" y="143" on="0"/>
        <pt x="200" y="13" on="0"/>
        <pt x="283" y="13" on="1"/>
        <pt x="324" y="13" on="0"/>
        <pt x="396" y="47" on="0"/>
        <pt x="449" y="111" on="0"/>
        <pt x="479" y="204" on="0"/>
        <pt x="479" y="262" on="1"/>
        <pt x="479" y="378" on="0"/>
        <pt x="368" y="508" on="0"/>
      </contour>
    </TTGlyph>
    <TTGlyph name="Ograve" xMin="65" yMin="-13" xMax="580" yMax="887">
      <contour>
        <pt x="397" y="707" on="1"/>
        <pt x="386" y="695" on="1"/>
        <pt x="343" y="729" on="0"/>
        <pt x="241" y="824" on="0"/>
        <pt x="208" y="863" on="1"/>
        <pt x="238" y="887" on="1"/>
        <pt x="252" y="867" on="0"/>
        <pt x="290" y="818" on="0"/>
        <pt x="332" y="770" on="0"/>
        <pt x="377" y="724" on="0"/>
      </contour>
      <contour>
        <pt x="318" y="-13" on="1"/>
        <pt x="264" y="-13" on="0"/>
        <pt x="171" y="31" on="0"/>
        <pt x="104" y="112" on="0"/>
        <pt x="65" y="230" on="0"/>
        <pt x="65" y="304" on="1"/>
        <pt x="65" y="379" on="0"/>
        <pt x="107" y="501" on="0"/>
        <pt x="178" y="586" on="0"/>
        <pt x="274" y="633" on="0"/>
        <pt x="328" y="633" on="1"/>
        <pt x="381" y="633" on="0"/>
        <pt x="474" y="589" on="0"/>
        <pt x="541" y="508" on="0"/>
        <pt x="580" y="390" on="0"/>
        <pt x="580" y="316" on="1"/>
        <pt x="580" y="242" on="0"/>
        <pt x="538" y="120" on="0"/>
        <pt x="468" y="34" on="0"/>
        <pt x="372" y="-13" on="0"/>
      </contour>
      <contour>
        <pt x="325" y="609" on="1"/>
        <pt x="276" y="609" on="0"/>
        <pt x="191" y="567" on="0"/>
        <pt x="128" y="490" on="0"/>
        <pt x="92" y="377" on="0"/>
        <pt x="92" y="307" on="1"/>
        <pt x="92" y="238" on="0"/>
        <pt x="127" y="127" on="0"/>
        <pt x="188" y="51" on="0"/>
        <pt x="272" y="11" on="0"/>
        <pt x="321" y="11" on="1"/>
        <pt x="370" y="11" on="0"/>
        <pt x="455" y="53" on="0"/>
        <pt x="518" y="130" on="0"/>
        <pt x="554" y="243" on="0"/>
        <pt x="554" y="313" on="1"/>
        <pt x="554" y="382" on="0"/>
        <pt x="519" y="493" on="0"/>
        <pt x="458" y="569" on="0"/>
        <pt x="374" y="609" on="0"/>
      </contour>
    </TTGlyph>
    <TTGlyph name="Ograve.sc" xMin="61" yMin="-11" xMax="506" yMax="788">
      <contour>
        <pt x="358" y="608" on="1"/>
        <pt x="347" y="596" on="1"/>
        <pt x="304" y="630" on="0"/>
        <pt x="202" y="725" on="0"/>
        <pt x="169" y="764" on="1"/>
        <pt x="199" y="788" on="1"/>
        <pt x="213" y="768" on="0"/>
        <pt x="251" y="719" on="0"/>
        <pt x="293" y="671" on="0"/>
        <pt x="338" y="625" on="0"/>
      </contour>
      <contour>
        <pt x="279" y="-11" on="1"/>
        <pt x="232" y="-11" on="0"/>
        <pt x="152" y="26" on="0"/>
        <pt x="94" y="94" on="0"/>
        <pt x="61" y="193" on="0"/>
        <pt x="61" y="255" on="1"/>
        <pt x="61" y="318" on="0"/>
        <pt x="97" y="420" on="0"/>
        <pt x="159" y="493" on="0"/>
        <pt x="242" y="532" on="0"/>
        <pt x="289" y="532" on="1"/>
        <pt x="335" y="532" on="0"/>
        <pt x="415" y="495" on="0"/>
        <pt x="473" y="427" on="0"/>
        <pt x="506" y="328" on="0"/>
        <pt x="506" y="266" on="1"/>
        <pt x="506" y="203" on="0"/>
        <pt x="470" y="101" on="0"/>
        <pt x="409" y="28" on="0"/>
        <pt x="326" y="-11" on="0"/>
      </contour>
      <contour>
        <pt x="285" y="508" on="1"/>
        <pt x="244" y="508" on="0"/>
        <pt x="171" y="474" on="0"/>
        <pt x="118" y="410" on="0"/>
        <pt x="88" y="317" on="0"/>
        <pt x="88" y="259" on="1"/>
        <pt x="88" y="143" on="0"/>
        <pt x="200" y="13" on="0"/>
        <pt x="283" y="13" on="1"/>
        <pt x="324" y="13" on="0"/>
        <pt x="396" y="47" on="0"/>
        <pt x="449" y="111" on="0"/>
        <pt x="479" y="204" on="0"/>
        <pt x="479" y="262" on="1"/>
        <pt x="479" y="378" on="0"/>
        <pt x="368" y="508" on="0"/>
      </contour>
    </TTGlyph>
    <TTGlyph name="Ohungarumlaut" xMin="65" yMin="-13" xMax="580" yMax="908">
      <contour>
        <pt x="395" y="712" on="1"/>
        <pt x="409" y="732" on="0"/>
        <pt x="438" y="783" on="0"/>
        <pt x="465" y="836" on="0"/>
        <pt x="489" y="887" on="0"/>
        <pt x="498" y="908" on="1"/>
        <pt x="532" y="891" on="1"/>
        <pt x="511" y="851" on="0"/>
        <pt x="440" y="743" on="0"/>
        <pt x="408" y="703" on="1"/>
      </contour>
      <contour>
        <pt x="205" y="712" on="1"/>
        <pt x="219" y="732" on="0"/>
        <pt x="248" y="783" on="0"/>
        <pt x="275" y="836" on="0"/>
        <pt x="299" y="887" on="0"/>
        <pt x="308" y="908" on="1"/>
        <pt x="342" y="891" on="1"/>
        <pt x="321" y="851" on="0"/>
        <pt x="250" y="743" on="0"/>
        <pt x="218" y="703" on="1"/>
      </contour>
      <contour>
        <pt x="318" y="-13" on="1"/>
        <pt x="264" y="-13" on="0"/>
        <pt x="171" y="31" on="0"/>
        <pt x="104" y="112" on="0"/>
        <pt x="65" y="230" on="0"/>
        <pt x="65" y="304" on="1"/>
        <pt x="65" y="379" on="0"/>
        <pt x="107" y="501" on="0"/>
        <pt x="178" y="586" on="0"/>
        <pt x="274" y="633" on="0"/>
        <pt x="328" y="633" on="1"/>
        <pt x="381" y="633" on="0"/>
        <pt x="474" y="589" on="0"/>
        <pt x="541" y="508" on="0"/>
        <pt x="580" y="390" on="0"/>
        <pt x="580" y="316" on="1"/>
        <pt x="580" y="242" on="0"/>
        <pt x="538" y="120" on="0"/>
        <pt x="468" y="34" on="0"/>
        <pt x="372" y="-13" on="0"/>
      </contour>
      <contour>
        <pt x="325" y="609" on="1"/>
        <pt x="276" y="609" on="0"/>
        <pt x="191" y="567" on="0"/>
        <pt x="128" y="490" on="0"/>
        <pt x="92" y="377" on="0"/>
        <pt x="92" y="307" on="1"/>
        <pt x="92" y="238" on="0"/>
        <pt x="127" y="127" on="0"/>
        <pt x="188" y="51" on="0"/>
        <pt x="272" y="11" on="0"/>
        <pt x="321" y="11" on="1"/>
        <pt x="370" y="11" on="0"/>
        <pt x="455" y="53" on="0"/>
        <pt x="518" y="130" on="0"/>
        <pt x="554" y="243" on="0"/>
        <pt x="554" y="313" on="1"/>
        <pt x="554" y="382" on="0"/>
        <pt x="519" y="493" on="0"/>
        <pt x="458" y="569" on="0"/>
        <pt x="374" y="609" on="0"/>
      </contour>
    </TTGlyph>
    <TTGlyph name="Ohungarumlaut.sc" xMin="61" yMin="-11" xMax="506" yMax="809">
      <contour>
        <pt x="356" y="613" on="1"/>
        <pt x="370" y="633" on="0"/>
        <pt x="399" y="684" on="0"/>
        <pt x="426" y="737" on="0"/>
        <pt x="450" y="788" on="0"/>
        <pt x="459" y="809" on="1"/>
        <pt x="493" y="792" on="1"/>
        <pt x="472" y="752" on="0"/>
        <pt x="401" y="644" on="0"/>
        <pt x="369" y="604" on="1"/>
      </contour>
      <contour>
        <pt x="166" y="613" on="1"/>
        <pt x="180" y="633" on="0"/>
        <pt x="209" y="684" on="0"/>
        <pt x="236" y="737" on="0"/>
        <pt x="260" y="788" on="0"/>
        <pt x="269" y="809" on="1"/>
        <pt x="303" y="792" on="1"/>
        <pt x="282" y="752" on="0"/>
        <pt x="211" y="644" on="0"/>
        <pt x="179" y="604" on="1"/>
      </contour>
      <contour>
        <pt x="279" y="-11" on="1"/>
        <pt x="232" y="-11" on="0"/>
        <pt x="152" y="26" on="0"/>
        <pt x="94" y="94" on="0"/>
        <pt x="61" y="193" on="0"/>
        <pt x="61" y="255" on="1"/>
        <pt x="61" y="318" on="0"/>
        <pt x="97" y="420" on="0"/>
        <pt x="159" y="493" on="0"/>
        <pt x="242" y="532" on="0"/>
        <pt x="289" y="532" on="1"/>
        <pt x="335" y="532" on="0"/>
        <pt x="415" y="495" on="0"/>
        <pt x="473" y="427" on="0"/>
        <pt x="506" y="328" on="0"/>
        <pt x="506" y="266" on="1"/>
        <pt x="506" y="203" on="0"/>
        <pt x="470" y="101" on="0"/>
        <pt x="409" y="28" on="0"/>
        <pt x="326" y="-11" on="0"/>
      </contour>
      <contour>
        <pt x="285" y="508" on="1"/>
        <pt x="244" y="508" on="0"/>
        <pt x="171" y="474" on="0"/>
        <pt x="118" y="410" on="0"/>
        <pt x="88" y="317" on="0"/>
        <pt x="88" y="259" on="1"/>
        <pt x="88" y="143" on="0"/>
        <pt x="200" y="13" on="0"/>
        <pt x="283" y="13" on="1"/>
        <pt x="324" y="13" on="0"/>
        <pt x="396" y="47" on="0"/>
        <pt x="449" y="111" on="0"/>
        <pt x="479" y="204" on="0"/>
        <pt x="479" y="262" on="1"/>
        <pt x="479" y="378" on="0"/>
        <pt x="368" y="508" on="0"/>
      </contour>
    </TTGlyph>
    <TTGlyph name="Omacron" xMin="65" yMin="-13" xMax="580" yMax="792">
      <contour>
        <pt x="468" y="792" on="1"/>
        <pt x="468" y="770" on="1"/>
        <pt x="178" y="770" on="1"/>
        <pt x="178" y="792" on="1"/>
      </contour>
      <contour>
        <pt x="318" y="-13" on="1"/>
        <pt x="264" y="-13" on="0"/>
        <pt x="171" y="31" on="0"/>
        <pt x="104" y="112" on="0"/>
        <pt x="65" y="230" on="0"/>
        <pt x="65" y="304" on="1"/>
        <pt x="65" y="379" on="0"/>
        <pt x="107" y="501" on="0"/>
        <pt x="178" y="586" on="0"/>
        <pt x="274" y="633" on="0"/>
        <pt x="328" y="633" on="1"/>
        <pt x="381" y="633" on="0"/>
        <pt x="474" y="589" on="0"/>
        <pt x="541" y="508" on="0"/>
        <pt x="580" y="390" on="0"/>
        <pt x="580" y="316" on="1"/>
        <pt x="580" y="242" on="0"/>
        <pt x="538" y="120" on="0"/>
        <pt x="468" y="34" on="0"/>
        <pt x="372" y="-13" on="0"/>
      </contour>
      <contour>
        <pt x="325" y="609" on="1"/>
        <pt x="276" y="609" on="0"/>
        <pt x="191" y="567" on="0"/>
        <pt x="128" y="490" on="0"/>
        <pt x="92" y="377" on="0"/>
        <pt x="92" y="307" on="1"/>
        <pt x="92" y="238" on="0"/>
        <pt x="127" y="127" on="0"/>
        <pt x="188" y="51" on="0"/>
        <pt x="272" y="11" on="0"/>
        <pt x="321" y="11" on="1"/>
        <pt x="370" y="11" on="0"/>
        <pt x="455" y="53" on="0"/>
        <pt x="518" y="130" on="0"/>
        <pt x="554" y="243" on="0"/>
        <pt x="554" y="313" on="1"/>
        <pt x="554" y="382" on="0"/>
        <pt x="519" y="493" on="0"/>
        <pt x="458" y="569" on="0"/>
        <pt x="374" y="609" on="0"/>
      </contour>
    </TTGlyph>
    <TTGlyph name="Omacron.sc" xMin="61" yMin="-11" xMax="506" yMax="693">
      <contour>
        <pt x="429" y="693" on="1"/>
        <pt x="429" y="671" on="1"/>
        <pt x="139" y="671" on="1"/>
        <pt x="139" y="693" on="1"/>
      </contour>
      <contour>
        <pt x="279" y="-11" on="1"/>
        <pt x="232" y="-11" on="0"/>
        <pt x="152" y="26" on="0"/>
        <pt x="94" y="94" on="0"/>
        <pt x="61" y="193" on="0"/>
        <pt x="61" y="255" on="1"/>
        <pt x="61" y="318" on="0"/>
        <pt x="97" y="420" on="0"/>
        <pt x="159" y="493" on="0"/>
        <pt x="242" y="532" on="0"/>
        <pt x="289" y="532" on="1"/>
        <pt x="335" y="532" on="0"/>
        <pt x="415" y="495" on="0"/>
        <pt x="473" y="427" on="0"/>
        <pt x="506" y="328" on="0"/>
        <pt x="506" y="266" on="1"/>
        <pt x="506" y="203" on="0"/>
        <pt x="470" y="101" on="0"/>
        <pt x="409" y="28" on="0"/>
        <pt x="326" y="-11" on="0"/>
      </contour>
      <contour>
        <pt x="285" y="508" on="1"/>
        <pt x="244" y="508" on="0"/>
        <pt x="171" y="474" on="0"/>
        <pt x="118" y="410" on="0"/>
        <pt x="88" y="317" on="0"/>
        <pt x="88" y="259" on="1"/>
        <pt x="88" y="143" on="0"/>
        <pt x="200" y="13" on="0"/>
        <pt x="283" y="13" on="1"/>
        <pt x="324" y="13" on="0"/>
        <pt x="396" y="47" on="0"/>
        <pt x="449" y="111" on="0"/>
        <pt x="479" y="204" on="0"/>
        <pt x="479" y="262" on="1"/>
        <pt x="479" y="378" on="0"/>
        <pt x="368" y="508" on="0"/>
      </contour>
    </TTGlyph>
    <TTGlyph name="Omega" xMin="70" yMin="0" xMax="562" yMax="631">
      <contour>
        <pt x="250" y="4" on="1"/>
        <pt x="248" y="0" on="1"/>
        <pt x="70" y="0" on="1"/>
        <pt x="70" y="24" on="1"/>
        <pt x="215" y="24" on="1"/>
        <pt x="158" y="124" on="0"/>
        <pt x="97" y="313" on="0"/>
        <pt x="97" y="387" on="1"/>
        <pt x="97" y="446" on="0"/>
        <pt x="132" y="537" on="0"/>
        <pt x="192" y="599" on="0"/>
        <pt x="274" y="631" on="0"/>
        <pt x="320" y="631" on="1"/>
        <pt x="413" y="631" on="0"/>
        <pt x="533" y="506" on="0"/>
        <pt x="533" y="394" on="1"/>
        <pt x="533" y="315" on="0"/>
        <pt x="467" y="124" on="0"/>
        <pt x="412" y="24" on="1"/>
        <pt x="562" y="24" on="1"/>
        <pt x="562" y="0" on="1"/>
        <pt x="380" y="0" on="1"/>
        <pt x="378" y="4" on="1"/>
        <pt x="440" y="110" on="0"/>
        <pt x="508" y="309" on="0"/>
        <pt x="508" y="386" on="1"/>
        <pt x="508" y="492" on="0"/>
        <pt x="402" y="607" on="0"/>
        <pt x="319" y="607" on="1"/>
        <pt x="278" y="607" on="0"/>
        <pt x="205" y="578" on="0"/>
        <pt x="152" y="522" on="0"/>
        <pt x="122" y="437" on="0"/>
        <pt x="122" y="383" on="1"/>
        <pt x="122" y="308" on="0"/>
        <pt x="187" y="111" on="0"/>
      </contour>
    </TTGlyph>
    <TTGlyph name="Oslash" xMin="65" yMin="-21" xMax="580" yMax="641">
      <contour>
        <pt x="92" y="307" on="1"/>
        <pt x="92" y="238" on="0"/>
        <pt x="127" y="127" on="0"/>
        <pt x="157" y="90" on="1"/>
        <pt x="474" y="547" on="1"/>
        <pt x="445" y="577" on="0"/>
        <pt x="368" y="609" on="0"/>
        <pt x="325" y="609" on="1"/>
        <pt x="276" y="609" on="0"/>
        <pt x="191" y="567" on="0"/>
        <pt x="128" y="490" on="0"/>
        <pt x="92" y="377" on="0"/>
      </contour>
      <contour>
        <pt x="321" y="11" on="1"/>
        <pt x="370" y="11" on="0"/>
        <pt x="455" y="53" on="0"/>
        <pt x="518" y="130" on="0"/>
        <pt x="554" y="243" on="0"/>
        <pt x="554" y="313" on="1"/>
        <pt x="554" y="382" on="0"/>
        <pt x="519" y="492" on="0"/>
        <pt x="489" y="530" on="1"/>
        <pt x="172" y="73" on="1"/>
        <pt x="202" y="43" on="0"/>
        <pt x="278" y="11" on="0"/>
      </contour>
      <contour>
        <pt x="318" y="-13" on="1"/>
        <pt x="272" y="-13" on="0"/>
        <pt x="189" y="20" on="0"/>
        <pt x="157" y="51" on="1"/>
        <pt x="108" y="-21" on="1"/>
        <pt x="90" y="-8" on="1"/>
        <pt x="141" y="67" on="1"/>
        <pt x="106" y="108" on="0"/>
        <pt x="65" y="229" on="0"/>
        <pt x="65" y="304" on="1"/>
        <pt x="65" y="379" on="0"/>
        <pt x="107" y="501" on="0"/>
        <pt x="178" y="586" on="0"/>
        <pt x="274" y="633" on="0"/>
        <pt x="328" y="633" on="1"/>
        <pt x="374" y="633" on="0"/>
        <pt x="457" y="599" on="0"/>
        <pt x="489" y="568" on="1"/>
        <pt x="540" y="641" on="1"/>
        <pt x="558" y="628" on="1"/>
        <pt x="505" y="552" on="1"/>
        <pt x="540" y="512" on="0"/>
        <pt x="580" y="391" on="0"/>
        <pt x="580" y="316" on="1"/>
        <pt x="580" y="242" on="0"/>
        <pt x="538" y="120" on="0"/>
        <pt x="468" y="34" on="0"/>
        <pt x="372" y="-13" on="0"/>
      </contour>
    </TTGlyph>
    <TTGlyph name="Oslash.sc" xMin="61" yMin="-27" xMax="506" yMax="545">
      <contour>
        <pt x="88" y="259" on="1"/>
        <pt x="88" y="201" on="0"/>
        <pt x="118" y="109" on="0"/>
        <pt x="144" y="78" on="1"/>
        <pt x="407" y="461" on="1"/>
        <pt x="382" y="484" on="0"/>
        <pt x="320" y="508" on="0"/>
        <pt x="285" y="508" on="1"/>
        <pt x="244" y="508" on="0"/>
        <pt x="171" y="474" on="0"/>
        <pt x="118" y="410" on="0"/>
        <pt x="88" y="317" on="0"/>
      </contour>
      <contour>
        <pt x="283" y="13" on="1"/>
        <pt x="324" y="13" on="0"/>
        <pt x="396" y="47" on="0"/>
        <pt x="449" y="111" on="0"/>
        <pt x="479" y="204" on="0"/>
        <pt x="479" y="262" on="1"/>
        <pt x="479" y="321" on="0"/>
        <pt x="449" y="414" on="0"/>
        <pt x="422" y="445" on="1"/>
        <pt x="159" y="61" on="1"/>
        <pt x="184" y="38" on="0"/>
        <pt x="247" y="13" on="0"/>
      </contour>
      <contour>
        <pt x="279" y="-11" on="1"/>
        <pt x="240" y="-11" on="0"/>
        <pt x="171" y="15" on="0"/>
        <pt x="144" y="39" on="1"/>
        <pt x="99" y="-27" on="1"/>
        <pt x="81" y="-14" on="1"/>
        <pt x="128" y="55" on="1"/>
        <pt x="97" y="89" on="0"/>
        <pt x="61" y="191" on="0"/>
        <pt x="61" y="255" on="1"/>
        <pt x="61" y="318" on="0"/>
        <pt x="97" y="420" on="0"/>
        <pt x="159" y="493" on="0"/>
        <pt x="242" y="532" on="0"/>
        <pt x="289" y="532" on="1"/>
        <pt x="327" y="532" on="0"/>
        <pt x="395" y="507" on="0"/>
        <pt x="422" y="483" on="1"/>
        <pt x="465" y="545" on="1"/>
        <pt x="483" y="532" on="1"/>
        <pt x="438" y="468" on="1"/>
        <pt x="469" y="434" on="0"/>
        <pt x="506" y="331" on="0"/>
        <pt x="506" y="266" on="1"/>
        <pt x="506" y="203" on="0"/>
        <pt x="470" y="101" on="0"/>
        <pt x="409" y="28" on="0"/>
        <pt x="326" y="-11" on="0"/>
      </contour>
    </TTGlyph>
    <TTGlyph name="Oslashacute" xMin="65" yMin="-21" xMax="580" yMax="892">
      <contour>
        <pt x="249" y="712" on="1"/>
        <pt x="269" y="729" on="0"/>
        <pt x="314" y="775" on="0"/>
        <pt x="356" y="823" on="0"/>
        <pt x="394" y="872" on="0"/>
        <pt x="408" y="892" on="1"/>
        <pt x="438" y="868" on="1"/>
        <pt x="405" y="829" on="0"/>
        <pt x="303" y="734" on="0"/>
        <pt x="260" y="700" on="1"/>
      </contour>
      <contour>
        <pt x="92" y="307" on="1"/>
        <pt x="92" y="238" on="0"/>
        <pt x="127" y="127" on="0"/>
        <pt x="157" y="90" on="1"/>
        <pt x="474" y="547" on="1"/>
        <pt x="445" y="577" on="0"/>
        <pt x="368" y="609" on="0"/>
        <pt x="325" y="609" on="1"/>
        <pt x="276" y="609" on="0"/>
        <pt x="191" y="567" on="0"/>
        <pt x="128" y="490" on="0"/>
        <pt x="92" y="377" on="0"/>
      </contour>
      <contour>
        <pt x="321" y="11" on="1"/>
        <pt x="370" y="11" on="0"/>
        <pt x="455" y="53" on="0"/>
        <pt x="518" y="130" on="0"/>
        <pt x="554" y="243" on="0"/>
        <pt x="554" y="313" on="1"/>
        <pt x="554" y="382" on="0"/>
        <pt x="519" y="492" on="0"/>
        <pt x="489" y="530" on="1"/>
        <pt x="172" y="73" on="1"/>
        <pt x="202" y="43" on="0"/>
        <pt x="278" y="11" on="0"/>
      </contour>
      <contour>
        <pt x="318" y="-13" on="1"/>
        <pt x="272" y="-13" on="0"/>
        <pt x="189" y="20" on="0"/>
        <pt x="157" y="51" on="1"/>
        <pt x="108" y="-21" on="1"/>
        <pt x="90" y="-8" on="1"/>
        <pt x="141" y="67" on="1"/>
        <pt x="106" y="108" on="0"/>
        <pt x="65" y="229" on="0"/>
        <pt x="65" y="304" on="1"/>
        <pt x="65" y="379" on="0"/>
        <pt x="107" y="501" on="0"/>
        <pt x="178" y="586" on="0"/>
        <pt x="274" y="633" on="0"/>
        <pt x="328" y="633" on="1"/>
        <pt x="374" y="633" on="0"/>
        <pt x="457" y="599" on="0"/>
        <pt x="489" y="568" on="1"/>
        <pt x="540" y="641" on="1"/>
        <pt x="558" y="628" on="1"/>
        <pt x="505" y="552" on="1"/>
        <pt x="540" y="512" on="0"/>
        <pt x="580" y="391" on="0"/>
        <pt x="580" y="316" on="1"/>
        <pt x="580" y="242" on="0"/>
        <pt x="538" y="120" on="0"/>
        <pt x="468" y="34" on="0"/>
        <pt x="372" y="-13" on="0"/>
      </contour>
    </TTGlyph>
    <TTGlyph name="Oslashacute.sc" xMin="61" yMin="-27" xMax="506" yMax="793">
      <contour>
        <pt x="207" y="613" on="1"/>
        <pt x="227" y="630" on="0"/>
        <pt x="272" y="676" on="0"/>
        <pt x="314" y="724" on="0"/>
        <pt x="352" y="773" on="0"/>
        <pt x="366" y="793" on="1"/>
        <pt x="396" y="769" on="1"/>
        <pt x="363" y="730" on="0"/>
        <pt x="261" y="635" on="0"/>
        <pt x="218" y="601" on="1"/>
      </contour>
      <contour>
        <pt x="88" y="259" on="1"/>
        <pt x="88" y="201" on="0"/>
        <pt x="118" y="109" on="0"/>
        <pt x="144" y="78" on="1"/>
        <pt x="407" y="461" on="1"/>
        <pt x="382" y="484" on="0"/>
        <pt x="320" y="508" on="0"/>
        <pt x="285" y="508" on="1"/>
        <pt x="244" y="508" on="0"/>
        <pt x="171" y="474" on="0"/>
        <pt x="118" y="410" on="0"/>
        <pt x="88" y="317" on="0"/>
      </contour>
      <contour>
        <pt x="283" y="13" on="1"/>
        <pt x="324" y="13" on="0"/>
        <pt x="396" y="47" on="0"/>
        <pt x="449" y="111" on="0"/>
        <pt x="479" y="204" on="0"/>
        <pt x="479" y="262" on="1"/>
        <pt x="479" y="321" on="0"/>
        <pt x="449" y="414" on="0"/>
        <pt x="422" y="445" on="1"/>
        <pt x="159" y="61" on="1"/>
        <pt x="184" y="38" on="0"/>
        <pt x="247" y="13" on="0"/>
      </contour>
      <contour>
        <pt x="279" y="-11" on="1"/>
        <pt x="240" y="-11" on="0"/>
        <pt x="171" y="15" on="0"/>
        <pt x="144" y="39" on="1"/>
        <pt x="99" y="-27" on="1"/>
        <pt x="81" y="-14" on="1"/>
        <pt x="128" y="55" on="1"/>
        <pt x="97" y="89" on="0"/>
        <pt x="61" y="191" on="0"/>
        <pt x="61" y="255" on="1"/>
        <pt x="61" y="318" on="0"/>
        <pt x="97" y="420" on="0"/>
        <pt x="159" y="493" on="0"/>
        <pt x="242" y="532" on="0"/>
        <pt x="289" y="532" on="1"/>
        <pt x="327" y="532" on="0"/>
        <pt x="395" y="507" on="0"/>
        <pt x="422" y="483" on="1"/>
        <pt x="465" y="545" on="1"/>
        <pt x="483" y="532" on="1"/>
        <pt x="438" y="468" on="1"/>
        <pt x="469" y="434" on="0"/>
        <pt x="506" y="331" on="0"/>
        <pt x="506" y="266" on="1"/>
        <pt x="506" y="203" on="0"/>
        <pt x="470" y="101" on="0"/>
        <pt x="409" y="28" on="0"/>
        <pt x="326" y="-11" on="0"/>
      </contour>
    </TTGlyph>
    <TTGlyph name="Otilde" xMin="65" yMin="-13" xMax="580" yMax="866">
      <contour>
        <pt x="401" y="714" on="1"/>
        <pt x="377" y="714" on="0"/>
        <pt x="340" y="754" on="0"/>
        <pt x="307" y="803" on="0"/>
        <pt x="275" y="843" on="0"/>
        <pt x="256" y="843" on="1"/>
        <pt x="231" y="843" on="0"/>
        <pt x="188" y="773" on="0"/>
        <pt x="169" y="723" on="1"/>
        <pt x="148" y="729" on="1"/>
        <pt x="172" y="796" on="0"/>
        <pt x="226" y="866" on="0"/>
        <pt x="257" y="866" on="1"/>
        <pt x="281" y="866" on="0"/>
        <pt x="318" y="826" on="0"/>
        <pt x="351" y="777" on="0"/>
        <pt x="383" y="737" on="0"/>
        <pt x="402" y="737" on="1"/>
        <pt x="427" y="737" on="0"/>
        <pt x="470" y="807" on="0"/>
        <pt x="489" y="857" on="1"/>
        <pt x="510" y="851" on="1"/>
        <pt x="486" y="784" on="0"/>
        <pt x="432" y="714" on="0"/>
      </contour>
      <contour>
        <pt x="318" y="-13" on="1"/>
        <pt x="264" y="-13" on="0"/>
        <pt x="171" y="31" on="0"/>
        <pt x="104" y="112" on="0"/>
        <pt x="65" y="230" on="0"/>
        <pt x="65" y="304" on="1"/>
        <pt x="65" y="379" on="0"/>
        <pt x="107" y="501" on="0"/>
        <pt x="178" y="586" on="0"/>
        <pt x="274" y="633" on="0"/>
        <pt x="328" y="633" on="1"/>
        <pt x="381" y="633" on="0"/>
        <pt x="474" y="589" on="0"/>
        <pt x="541" y="508" on="0"/>
        <pt x="580" y="390" on="0"/>
        <pt x="580" y="316" on="1"/>
        <pt x="580" y="242" on="0"/>
        <pt x="538" y="120" on="0"/>
        <pt x="468" y="34" on="0"/>
        <pt x="372" y="-13" on="0"/>
      </contour>
      <contour>
        <pt x="325" y="609" on="1"/>
        <pt x="276" y="609" on="0"/>
        <pt x="191" y="567" on="0"/>
        <pt x="128" y="490" on="0"/>
        <pt x="92" y="377" on="0"/>
        <pt x="92" y="307" on="1"/>
        <pt x="92" y="238" on="0"/>
        <pt x="127" y="127" on="0"/>
        <pt x="188" y="51" on="0"/>
        <pt x="272" y="11" on="0"/>
        <pt x="321" y="11" on="1"/>
        <pt x="370" y="11" on="0"/>
        <pt x="455" y="53" on="0"/>
        <pt x="518" y="130" on="0"/>
        <pt x="554" y="243" on="0"/>
        <pt x="554" y="313" on="1"/>
        <pt x="554" y="382" on="0"/>
        <pt x="519" y="493" on="0"/>
        <pt x="458" y="569" on="0"/>
        <pt x="374" y="609" on="0"/>
      </contour>
    </TTGlyph>
    <TTGlyph name="Otilde.sc" xMin="61" yMin="-11" xMax="506" yMax="767">
      <contour>
        <pt x="362" y="615" on="1"/>
        <pt x="338" y="615" on="0"/>
        <pt x="301" y="655" on="0"/>
        <pt x="268" y="704" on="0"/>
        <pt x="236" y="744" on="0"/>
        <pt x="217" y="744" on="1"/>
        <pt x="192" y="744" on="0"/>
        <pt x="149" y="674" on="0"/>
        <pt x="130" y="624" on="1"/>
        <pt x="109" y="630" on="1"/>
        <pt x="133" y="697" on="0"/>
        <pt x="187" y="767" on="0"/>
        <pt x="218" y="767" on="1"/>
        <pt x="242" y="767" on="0"/>
        <pt x="279" y="727" on="0"/>
        <pt x="312" y="678" on="0"/>
        <pt x="344" y="638" on="0"/>
        <pt x="363" y="638" on="1"/>
        <pt x="388" y="638" on="0"/>
        <pt x="431" y="708" on="0"/>
        <pt x="450" y="758" on="1"/>
        <pt x="471" y="752" on="1"/>
        <pt x="447" y="685" on="0"/>
        <pt x="393" y="615" on="0"/>
      </contour>
      <contour>
        <pt x="279" y="-11" on="1"/>
        <pt x="232" y="-11" on="0"/>
        <pt x="152" y="26" on="0"/>
        <pt x="94" y="94" on="0"/>
        <pt x="61" y="193" on="0"/>
        <pt x="61" y="255" on="1"/>
        <pt x="61" y="318" on="0"/>
        <pt x="97" y="420" on="0"/>
        <pt x="159" y="493" on="0"/>
        <pt x="242" y="532" on="0"/>
        <pt x="289" y="532" on="1"/>
        <pt x="335" y="532" on="0"/>
        <pt x="415" y="495" on="0"/>
        <pt x="473" y="427" on="0"/>
        <pt x="506" y="328" on="0"/>
        <pt x="506" y="266" on="1"/>
        <pt x="506" y="203" on="0"/>
        <pt x="470" y="101" on="0"/>
        <pt x="409" y="28" on="0"/>
        <pt x="326" y="-11" on="0"/>
      </contour>
      <contour>
        <pt x="285" y="508" on="1"/>
        <pt x="244" y="508" on="0"/>
        <pt x="171" y="474" on="0"/>
        <pt x="118" y="410" on="0"/>
        <pt x="88" y="317" on="0"/>
        <pt x="88" y="259" on="1"/>
        <pt x="88" y="143" on="0"/>
        <pt x="200" y="13" on="0"/>
        <pt x="283" y="13" on="1"/>
        <pt x="324" y="13" on="0"/>
        <pt x="396" y="47" on="0"/>
        <pt x="449" y="111" on="0"/>
        <pt x="479" y="204" on="0"/>
        <pt x="479" y="262" on="1"/>
        <pt x="479" y="378" on="0"/>
        <pt x="368" y="508" on="0"/>
      </contour>
    </TTGlyph>
    <TTGlyph name="P" xMin="113" yMin="0" xMax="481" yMax="629">
      <contour>
        <pt x="140" y="0" on="1"/>
        <pt x="113" y="0" on="1"/>
        <pt x="113" y="618" on="1"/>
        <pt x="145" y="624" on="0"/>
        <pt x="204" y="629" on="0"/>
        <pt x="231" y="629" on="1"/>
        <pt x="353" y="629" on="0"/>
        <pt x="481" y="523" on="0"/>
        <pt x="481" y="436" on="1"/>
        <pt x="481" y="332" on="0"/>
        <pt x="298" y="232" on="0"/>
        <pt x="140" y="230" on="1"/>
      </contour>
      <contour>
        <pt x="166" y="256" on="1"/>
        <pt x="300" y="256" on="0"/>
        <pt x="454" y="341" on="0"/>
        <pt x="454" y="434" on="1"/>
        <pt x="454" y="511" on="0"/>
        <pt x="341" y="605" on="0"/>
        <pt x="232" y="605" on="1"/>
        <pt x="211" y="605" on="0"/>
        <pt x="165" y="601" on="0"/>
        <pt x="140" y="597" on="1"/>
        <pt x="140" y="256" on="1"/>
        <pt x="147" y="256" on="0"/>
        <pt x="159" y="256" on="0"/>
      </contour>
    </TTGlyph>
    <TTGlyph name="P.sc" xMin="104" yMin="0" xMax="423" yMax="529">
      <contour>
        <pt x="131" y="0" on="1"/>
        <pt x="104" y="0" on="1"/>
        <pt x="104" y="519" on="1"/>
        <pt x="132" y="523" on="0"/>
        <pt x="184" y="529" on="0"/>
        <pt x="207" y="529" on="1"/>
        <pt x="312" y="529" on="0"/>
        <pt x="423" y="439" on="0"/>
        <pt x="423" y="366" on="1"/>
        <pt x="423" y="277" on="0"/>
        <pt x="266" y="193" on="0"/>
        <pt x="131" y="191" on="1"/>
      </contour>
      <contour>
        <pt x="155" y="216" on="1"/>
        <pt x="268" y="216" on="0"/>
        <pt x="396" y="286" on="0"/>
        <pt x="396" y="363" on="1"/>
        <pt x="396" y="426" on="0"/>
        <pt x="301" y="505" on="0"/>
        <pt x="208" y="505" on="1"/>
        <pt x="191" y="505" on="0"/>
        <pt x="152" y="502" on="0"/>
        <pt x="131" y="498" on="1"/>
        <pt x="131" y="217" on="1"/>
        <pt x="137" y="216" on="0"/>
        <pt x="149" y="216" on="0"/>
      </contour>
    </TTGlyph>
</ttFont>
